G04 #@! TF.GenerationSoftware,KiCad,Pcbnew,(5.1.4)-1*
G04 #@! TF.CreationDate,2020-08-16T22:28:13+03:00*
G04 #@! TF.ProjectId,UAH_0,5541485f-302e-46b6-9963-61645f706362,rev?*
G04 #@! TF.SameCoordinates,Original*
G04 #@! TF.FileFunction,Soldermask,Bot*
G04 #@! TF.FilePolarity,Negative*
%FSLAX46Y46*%
G04 Gerber Fmt 4.6, Leading zero omitted, Abs format (unit mm)*
G04 Created by KiCad (PCBNEW (5.1.4)-1) date 2020-08-16 22:28:13*
%MOMM*%
%LPD*%
G04 APERTURE LIST*
%ADD10C,0.100000*%
G04 APERTURE END LIST*
D10*
G36*
X171250000Y-120250000D02*
G01*
X172750000Y-120250000D01*
X172750000Y-119250000D01*
X171250000Y-119250000D01*
X171250000Y-120250000D01*
G37*
X171250000Y-120250000D02*
X172750000Y-120250000D01*
X172750000Y-119250000D01*
X171250000Y-119250000D01*
X171250000Y-120250000D01*
G36*
X236035787Y-141585462D02*
G01*
X236035790Y-141585463D01*
X236035789Y-141585463D01*
X236682029Y-141853144D01*
X237263631Y-142241758D01*
X237758242Y-142736369D01*
X238146856Y-143317971D01*
X238146856Y-143317972D01*
X238414538Y-143964213D01*
X238551000Y-144650256D01*
X238551000Y-145349744D01*
X238414538Y-146035787D01*
X238414537Y-146035789D01*
X238146856Y-146682029D01*
X237758242Y-147263631D01*
X237263631Y-147758242D01*
X236682029Y-148146856D01*
X236225068Y-148336135D01*
X236035787Y-148414538D01*
X235349744Y-148551000D01*
X234650256Y-148551000D01*
X233964213Y-148414538D01*
X233774932Y-148336135D01*
X233317971Y-148146856D01*
X232736369Y-147758242D01*
X232241758Y-147263631D01*
X231853144Y-146682029D01*
X231585463Y-146035789D01*
X231585462Y-146035787D01*
X231449000Y-145349744D01*
X231449000Y-144650256D01*
X231585462Y-143964213D01*
X231853144Y-143317972D01*
X231853144Y-143317971D01*
X232241758Y-142736369D01*
X232736369Y-142241758D01*
X233317971Y-141853144D01*
X233964211Y-141585463D01*
X233964210Y-141585463D01*
X233964213Y-141585462D01*
X234650256Y-141449000D01*
X235349744Y-141449000D01*
X236035787Y-141585462D01*
X236035787Y-141585462D01*
G37*
G36*
X56035787Y-141585462D02*
G01*
X56035790Y-141585463D01*
X56035789Y-141585463D01*
X56682029Y-141853144D01*
X57263631Y-142241758D01*
X57758242Y-142736369D01*
X58146856Y-143317971D01*
X58146856Y-143317972D01*
X58414538Y-143964213D01*
X58551000Y-144650256D01*
X58551000Y-145349744D01*
X58414538Y-146035787D01*
X58414537Y-146035789D01*
X58146856Y-146682029D01*
X57758242Y-147263631D01*
X57263631Y-147758242D01*
X56682029Y-148146856D01*
X56225068Y-148336135D01*
X56035787Y-148414538D01*
X55349744Y-148551000D01*
X54650256Y-148551000D01*
X53964213Y-148414538D01*
X53774932Y-148336135D01*
X53317971Y-148146856D01*
X52736369Y-147758242D01*
X52241758Y-147263631D01*
X51853144Y-146682029D01*
X51585463Y-146035789D01*
X51585462Y-146035787D01*
X51449000Y-145349744D01*
X51449000Y-144650256D01*
X51585462Y-143964213D01*
X51853144Y-143317972D01*
X51853144Y-143317971D01*
X52241758Y-142736369D01*
X52736369Y-142241758D01*
X53317971Y-141853144D01*
X53964211Y-141585463D01*
X53964210Y-141585463D01*
X53964213Y-141585462D01*
X54650256Y-141449000D01*
X55349744Y-141449000D01*
X56035787Y-141585462D01*
X56035787Y-141585462D01*
G37*
G36*
X69551000Y-146551000D02*
G01*
X67449000Y-146551000D01*
X67449000Y-144449000D01*
X69551000Y-144449000D01*
X69551000Y-146551000D01*
X69551000Y-146551000D01*
G37*
G36*
X78051000Y-146551000D02*
G01*
X75949000Y-146551000D01*
X75949000Y-144449000D01*
X78051000Y-144449000D01*
X78051000Y-146551000D01*
X78051000Y-146551000D01*
G37*
G36*
X97806564Y-144489389D02*
G01*
X97997833Y-144568615D01*
X97997835Y-144568616D01*
X98097331Y-144635097D01*
X98169973Y-144683635D01*
X98316365Y-144830027D01*
X98431385Y-145002167D01*
X98510611Y-145193436D01*
X98551000Y-145396484D01*
X98551000Y-145603516D01*
X98510611Y-145806564D01*
X98442203Y-145971715D01*
X98431384Y-145997835D01*
X98316365Y-146169973D01*
X98169973Y-146316365D01*
X97997835Y-146431384D01*
X97997834Y-146431385D01*
X97997833Y-146431385D01*
X97806564Y-146510611D01*
X97603516Y-146551000D01*
X97396484Y-146551000D01*
X97193436Y-146510611D01*
X97002167Y-146431385D01*
X97002166Y-146431385D01*
X97002165Y-146431384D01*
X96830027Y-146316365D01*
X96683635Y-146169973D01*
X96568616Y-145997835D01*
X96557797Y-145971715D01*
X96489389Y-145806564D01*
X96449000Y-145603516D01*
X96449000Y-145396484D01*
X96489389Y-145193436D01*
X96568615Y-145002167D01*
X96683635Y-144830027D01*
X96830027Y-144683635D01*
X96902669Y-144635097D01*
X97002165Y-144568616D01*
X97002167Y-144568615D01*
X97193436Y-144489389D01*
X97396484Y-144449000D01*
X97603516Y-144449000D01*
X97806564Y-144489389D01*
X97806564Y-144489389D01*
G37*
G36*
X103551000Y-146551000D02*
G01*
X101449000Y-146551000D01*
X101449000Y-144449000D01*
X103551000Y-144449000D01*
X103551000Y-146551000D01*
X103551000Y-146551000D01*
G37*
G36*
X64551000Y-146551000D02*
G01*
X62449000Y-146551000D01*
X62449000Y-144449000D01*
X64551000Y-144449000D01*
X64551000Y-146551000D01*
X64551000Y-146551000D01*
G37*
G36*
X83051000Y-146551000D02*
G01*
X80949000Y-146551000D01*
X80949000Y-144449000D01*
X83051000Y-144449000D01*
X83051000Y-146551000D01*
X83051000Y-146551000D01*
G37*
G36*
X201251000Y-146251000D02*
G01*
X198749000Y-146251000D01*
X198749000Y-143749000D01*
X201251000Y-143749000D01*
X201251000Y-146251000D01*
X201251000Y-146251000D01*
G37*
G36*
X211114903Y-143797075D02*
G01*
X211342571Y-143891378D01*
X211547466Y-144028285D01*
X211721715Y-144202534D01*
X211858622Y-144407429D01*
X211952925Y-144635097D01*
X212001000Y-144876787D01*
X212001000Y-145123213D01*
X211952925Y-145364903D01*
X211858622Y-145592571D01*
X211721715Y-145797466D01*
X211547466Y-145971715D01*
X211342571Y-146108622D01*
X211342570Y-146108623D01*
X211342569Y-146108623D01*
X211114903Y-146202925D01*
X210873214Y-146251000D01*
X210626786Y-146251000D01*
X210385097Y-146202925D01*
X210157431Y-146108623D01*
X210157430Y-146108623D01*
X210157429Y-146108622D01*
X209952534Y-145971715D01*
X209778285Y-145797466D01*
X209641378Y-145592571D01*
X209547075Y-145364903D01*
X209499000Y-145123213D01*
X209499000Y-144876787D01*
X209547075Y-144635097D01*
X209641378Y-144407429D01*
X209778285Y-144202534D01*
X209952534Y-144028285D01*
X210157429Y-143891378D01*
X210385097Y-143797075D01*
X210626786Y-143749000D01*
X210873214Y-143749000D01*
X211114903Y-143797075D01*
X211114903Y-143797075D01*
G37*
G36*
X204551000Y-141551000D02*
G01*
X202949000Y-141551000D01*
X202949000Y-138449000D01*
X204551000Y-138449000D01*
X204551000Y-141551000D01*
X204551000Y-141551000D01*
G37*
G36*
X208051000Y-141551000D02*
G01*
X206449000Y-141551000D01*
X206449000Y-138449000D01*
X208051000Y-138449000D01*
X208051000Y-141551000D01*
X208051000Y-141551000D01*
G37*
G36*
X235901000Y-135901000D02*
G01*
X234099000Y-135901000D01*
X234099000Y-134099000D01*
X235901000Y-134099000D01*
X235901000Y-135901000D01*
X235901000Y-135901000D01*
G37*
G36*
X220661000Y-135901000D02*
G01*
X218859000Y-135901000D01*
X218859000Y-134099000D01*
X220661000Y-134099000D01*
X220661000Y-135901000D01*
X220661000Y-135901000D01*
G37*
G36*
X235901000Y-133361000D02*
G01*
X234099000Y-133361000D01*
X234099000Y-131559000D01*
X235901000Y-131559000D01*
X235901000Y-133361000D01*
X235901000Y-133361000D01*
G37*
G36*
X220661000Y-133361000D02*
G01*
X218859000Y-133361000D01*
X218859000Y-131559000D01*
X220661000Y-131559000D01*
X220661000Y-133361000D01*
X220661000Y-133361000D01*
G37*
G36*
X150301000Y-132676000D02*
G01*
X149699000Y-132676000D01*
X149699000Y-131324000D01*
X150301000Y-131324000D01*
X150301000Y-132676000D01*
X150301000Y-132676000D01*
G37*
G36*
X148551000Y-132676000D02*
G01*
X147949000Y-132676000D01*
X147949000Y-131324000D01*
X148551000Y-131324000D01*
X148551000Y-132676000D01*
X148551000Y-132676000D01*
G37*
G36*
X142301000Y-132676000D02*
G01*
X141699000Y-132676000D01*
X141699000Y-131324000D01*
X142301000Y-131324000D01*
X142301000Y-132676000D01*
X142301000Y-132676000D01*
G37*
G36*
X140551000Y-132676000D02*
G01*
X139949000Y-132676000D01*
X139949000Y-131324000D01*
X140551000Y-131324000D01*
X140551000Y-132676000D01*
X140551000Y-132676000D01*
G37*
G36*
X232926000Y-131551000D02*
G01*
X231574000Y-131551000D01*
X231574000Y-130949000D01*
X232926000Y-130949000D01*
X232926000Y-131551000D01*
X232926000Y-131551000D01*
G37*
G36*
X235901000Y-130821000D02*
G01*
X234099000Y-130821000D01*
X234099000Y-129019000D01*
X235901000Y-129019000D01*
X235901000Y-130821000D01*
X235901000Y-130821000D01*
G37*
G36*
X220661000Y-130821000D02*
G01*
X218859000Y-130821000D01*
X218859000Y-129019000D01*
X220661000Y-129019000D01*
X220661000Y-130821000D01*
X220661000Y-130821000D01*
G37*
G36*
X232926000Y-129801000D02*
G01*
X231574000Y-129801000D01*
X231574000Y-129199000D01*
X232926000Y-129199000D01*
X232926000Y-129801000D01*
X232926000Y-129801000D01*
G37*
G36*
X139545800Y-129125600D02*
G01*
X138834200Y-129125600D01*
X138834200Y-127550400D01*
X139545800Y-127550400D01*
X139545800Y-129125600D01*
X139545800Y-129125600D01*
G37*
G36*
X143355800Y-129125600D02*
G01*
X142644200Y-129125600D01*
X142644200Y-127550400D01*
X143355800Y-127550400D01*
X143355800Y-129125600D01*
X143355800Y-129125600D01*
G37*
G36*
X140815800Y-129125600D02*
G01*
X140104200Y-129125600D01*
X140104200Y-127550400D01*
X140815800Y-127550400D01*
X140815800Y-129125600D01*
X140815800Y-129125600D01*
G37*
G36*
X142085800Y-129125600D02*
G01*
X141374200Y-129125600D01*
X141374200Y-127550400D01*
X142085800Y-127550400D01*
X142085800Y-129125600D01*
X142085800Y-129125600D01*
G37*
G36*
X151355800Y-129081600D02*
G01*
X150644200Y-129081600D01*
X150644200Y-127506400D01*
X151355800Y-127506400D01*
X151355800Y-129081600D01*
X151355800Y-129081600D01*
G37*
G36*
X150085800Y-129081600D02*
G01*
X149374200Y-129081600D01*
X149374200Y-127506400D01*
X150085800Y-127506400D01*
X150085800Y-129081600D01*
X150085800Y-129081600D01*
G37*
G36*
X148815800Y-129081600D02*
G01*
X148104200Y-129081600D01*
X148104200Y-127506400D01*
X148815800Y-127506400D01*
X148815800Y-129081600D01*
X148815800Y-129081600D01*
G37*
G36*
X147545800Y-129081600D02*
G01*
X146834200Y-129081600D01*
X146834200Y-127506400D01*
X147545800Y-127506400D01*
X147545800Y-129081600D01*
X147545800Y-129081600D01*
G37*
G36*
X220661000Y-128281000D02*
G01*
X218859000Y-128281000D01*
X218859000Y-126479000D01*
X220661000Y-126479000D01*
X220661000Y-128281000D01*
X220661000Y-128281000D01*
G37*
G36*
X235901000Y-128281000D02*
G01*
X234099000Y-128281000D01*
X234099000Y-126479000D01*
X235901000Y-126479000D01*
X235901000Y-128281000D01*
X235901000Y-128281000D01*
G37*
G36*
X235901000Y-125741000D02*
G01*
X234099000Y-125741000D01*
X234099000Y-123939000D01*
X235901000Y-123939000D01*
X235901000Y-125741000D01*
X235901000Y-125741000D01*
G37*
G36*
X220661000Y-125741000D02*
G01*
X218859000Y-125741000D01*
X218859000Y-123939000D01*
X220661000Y-123939000D01*
X220661000Y-125741000D01*
X220661000Y-125741000D01*
G37*
G36*
X142085800Y-123537600D02*
G01*
X141374200Y-123537600D01*
X141374200Y-121962400D01*
X142085800Y-121962400D01*
X142085800Y-123537600D01*
X142085800Y-123537600D01*
G37*
G36*
X139545800Y-123537600D02*
G01*
X138834200Y-123537600D01*
X138834200Y-121962400D01*
X139545800Y-121962400D01*
X139545800Y-123537600D01*
X139545800Y-123537600D01*
G37*
G36*
X143355800Y-123537600D02*
G01*
X142644200Y-123537600D01*
X142644200Y-121962400D01*
X143355800Y-121962400D01*
X143355800Y-123537600D01*
X143355800Y-123537600D01*
G37*
G36*
X140815800Y-123537600D02*
G01*
X140104200Y-123537600D01*
X140104200Y-121962400D01*
X140815800Y-121962400D01*
X140815800Y-123537600D01*
X140815800Y-123537600D01*
G37*
G36*
X151355800Y-123493600D02*
G01*
X150644200Y-123493600D01*
X150644200Y-121918400D01*
X151355800Y-121918400D01*
X151355800Y-123493600D01*
X151355800Y-123493600D01*
G37*
G36*
X150085800Y-123493600D02*
G01*
X149374200Y-123493600D01*
X149374200Y-121918400D01*
X150085800Y-121918400D01*
X150085800Y-123493600D01*
X150085800Y-123493600D01*
G37*
G36*
X148815800Y-123493600D02*
G01*
X148104200Y-123493600D01*
X148104200Y-121918400D01*
X148815800Y-121918400D01*
X148815800Y-123493600D01*
X148815800Y-123493600D01*
G37*
G36*
X147545800Y-123493600D02*
G01*
X146834200Y-123493600D01*
X146834200Y-121918400D01*
X147545800Y-121918400D01*
X147545800Y-123493600D01*
X147545800Y-123493600D01*
G37*
G36*
X220661000Y-123201000D02*
G01*
X218859000Y-123201000D01*
X218859000Y-121399000D01*
X220661000Y-121399000D01*
X220661000Y-123201000D01*
X220661000Y-123201000D01*
G37*
G36*
X235901000Y-123201000D02*
G01*
X234099000Y-123201000D01*
X234099000Y-121399000D01*
X235901000Y-121399000D01*
X235901000Y-123201000D01*
X235901000Y-123201000D01*
G37*
G36*
X55801000Y-122051000D02*
G01*
X53699000Y-122051000D01*
X53699000Y-119949000D01*
X55801000Y-119949000D01*
X55801000Y-122051000D01*
X55801000Y-122051000D01*
G37*
G36*
X191801000Y-121051000D02*
G01*
X187699000Y-121051000D01*
X187699000Y-118949000D01*
X191801000Y-118949000D01*
X191801000Y-121051000D01*
X191801000Y-121051000D01*
G37*
G36*
X220661000Y-120661000D02*
G01*
X218859000Y-120661000D01*
X218859000Y-118859000D01*
X220661000Y-118859000D01*
X220661000Y-120661000D01*
X220661000Y-120661000D01*
G37*
G36*
X235901000Y-120661000D02*
G01*
X234099000Y-120661000D01*
X234099000Y-118859000D01*
X235901000Y-118859000D01*
X235901000Y-120661000D01*
X235901000Y-120661000D01*
G37*
G36*
X136551000Y-120551000D02*
G01*
X135449000Y-120551000D01*
X135449000Y-118949000D01*
X136551000Y-118949000D01*
X136551000Y-120551000D01*
X136551000Y-120551000D01*
G37*
G36*
X134551000Y-120551000D02*
G01*
X133449000Y-120551000D01*
X133449000Y-118949000D01*
X134551000Y-118949000D01*
X134551000Y-120551000D01*
X134551000Y-120551000D01*
G37*
G36*
X153801000Y-120551000D02*
G01*
X152699000Y-120551000D01*
X152699000Y-118949000D01*
X153801000Y-118949000D01*
X153801000Y-120551000D01*
X153801000Y-120551000D01*
G37*
G36*
X155801000Y-120551000D02*
G01*
X154699000Y-120551000D01*
X154699000Y-118949000D01*
X155801000Y-118949000D01*
X155801000Y-120551000D01*
X155801000Y-120551000D01*
G37*
G36*
X171559003Y-119203355D02*
G01*
X171587374Y-119211961D01*
X171615744Y-119220567D01*
X171668035Y-119248517D01*
X171713869Y-119286131D01*
X171751483Y-119331964D01*
X171751485Y-119331968D01*
X171751486Y-119331969D01*
X171779432Y-119384253D01*
X171796645Y-119440996D01*
X171801000Y-119485214D01*
X171801000Y-120014786D01*
X171796645Y-120059004D01*
X171796644Y-120059006D01*
X171779433Y-120115745D01*
X171751483Y-120168036D01*
X171713869Y-120213869D01*
X171668036Y-120251483D01*
X171668032Y-120251485D01*
X171668031Y-120251486D01*
X171615747Y-120279432D01*
X171615745Y-120279433D01*
X171587375Y-120288039D01*
X171559004Y-120296645D01*
X171500000Y-120302456D01*
X171440997Y-120296645D01*
X171412626Y-120288039D01*
X171384256Y-120279433D01*
X171384254Y-120279432D01*
X171331970Y-120251486D01*
X171331969Y-120251485D01*
X171331965Y-120251483D01*
X171286132Y-120213869D01*
X171248518Y-120168036D01*
X171220568Y-120115745D01*
X171203357Y-120059006D01*
X171203356Y-120059004D01*
X171199001Y-120014786D01*
X171199000Y-119485215D01*
X171203355Y-119440997D01*
X171220568Y-119384254D01*
X171248516Y-119331967D01*
X171248517Y-119331965D01*
X171286131Y-119286131D01*
X171331964Y-119248517D01*
X171331968Y-119248515D01*
X171331969Y-119248514D01*
X171384253Y-119220568D01*
X171384255Y-119220567D01*
X171412625Y-119211961D01*
X171440996Y-119203355D01*
X171500000Y-119197544D01*
X171559003Y-119203355D01*
X171559003Y-119203355D01*
G37*
G36*
X172559003Y-119203355D02*
G01*
X172587374Y-119211961D01*
X172615744Y-119220567D01*
X172668035Y-119248517D01*
X172713869Y-119286131D01*
X172751483Y-119331964D01*
X172751485Y-119331968D01*
X172751486Y-119331969D01*
X172779432Y-119384253D01*
X172796645Y-119440996D01*
X172801000Y-119485214D01*
X172801000Y-120014786D01*
X172796645Y-120059004D01*
X172796644Y-120059006D01*
X172779433Y-120115745D01*
X172751483Y-120168036D01*
X172713869Y-120213869D01*
X172668036Y-120251483D01*
X172668032Y-120251485D01*
X172668031Y-120251486D01*
X172615747Y-120279432D01*
X172615745Y-120279433D01*
X172587375Y-120288039D01*
X172559004Y-120296645D01*
X172500000Y-120302456D01*
X172440997Y-120296645D01*
X172412626Y-120288039D01*
X172384256Y-120279433D01*
X172384254Y-120279432D01*
X172331970Y-120251486D01*
X172331969Y-120251485D01*
X172331965Y-120251483D01*
X172286132Y-120213869D01*
X172248518Y-120168036D01*
X172220568Y-120115745D01*
X172203357Y-120059006D01*
X172203356Y-120059004D01*
X172199001Y-120014786D01*
X172199000Y-119485215D01*
X172203355Y-119440997D01*
X172220568Y-119384254D01*
X172248516Y-119331967D01*
X172248517Y-119331965D01*
X172286131Y-119286131D01*
X172331964Y-119248517D01*
X172331968Y-119248515D01*
X172331969Y-119248514D01*
X172384253Y-119220568D01*
X172384255Y-119220567D01*
X172412625Y-119211961D01*
X172440996Y-119203355D01*
X172500000Y-119197544D01*
X172559003Y-119203355D01*
X172559003Y-119203355D01*
G37*
G36*
X220661000Y-118121000D02*
G01*
X218859000Y-118121000D01*
X218859000Y-116319000D01*
X220661000Y-116319000D01*
X220661000Y-118121000D01*
X220661000Y-118121000D01*
G37*
G36*
X235901000Y-118121000D02*
G01*
X234099000Y-118121000D01*
X234099000Y-116319000D01*
X235901000Y-116319000D01*
X235901000Y-118121000D01*
X235901000Y-118121000D01*
G37*
G36*
X222301000Y-117926000D02*
G01*
X221699000Y-117926000D01*
X221699000Y-116574000D01*
X222301000Y-116574000D01*
X222301000Y-117926000D01*
X222301000Y-117926000D01*
G37*
G36*
X224051000Y-117926000D02*
G01*
X223449000Y-117926000D01*
X223449000Y-116574000D01*
X224051000Y-116574000D01*
X224051000Y-117926000D01*
X224051000Y-117926000D01*
G37*
G36*
X160551000Y-117176000D02*
G01*
X159949000Y-117176000D01*
X159949000Y-115824000D01*
X160551000Y-115824000D01*
X160551000Y-117176000D01*
X160551000Y-117176000D01*
G37*
G36*
X158801000Y-117176000D02*
G01*
X158199000Y-117176000D01*
X158199000Y-115824000D01*
X158801000Y-115824000D01*
X158801000Y-117176000D01*
X158801000Y-117176000D01*
G37*
G36*
X55801000Y-117051000D02*
G01*
X53699000Y-117051000D01*
X53699000Y-114949000D01*
X55801000Y-114949000D01*
X55801000Y-117051000D01*
X55801000Y-117051000D01*
G37*
G36*
X149551000Y-116676000D02*
G01*
X148949000Y-116676000D01*
X148949000Y-115324000D01*
X149551000Y-115324000D01*
X149551000Y-116676000D01*
X149551000Y-116676000D01*
G37*
G36*
X151301000Y-116676000D02*
G01*
X150699000Y-116676000D01*
X150699000Y-115324000D01*
X151301000Y-115324000D01*
X151301000Y-116676000D01*
X151301000Y-116676000D01*
G37*
G36*
X126801000Y-116051000D02*
G01*
X122699000Y-116051000D01*
X122699000Y-113949000D01*
X126801000Y-113949000D01*
X126801000Y-116051000D01*
X126801000Y-116051000D01*
G37*
G36*
X167051000Y-116051000D02*
G01*
X162949000Y-116051000D01*
X162949000Y-113949000D01*
X167051000Y-113949000D01*
X167051000Y-116051000D01*
X167051000Y-116051000D01*
G37*
G36*
X220661000Y-115581000D02*
G01*
X218859000Y-115581000D01*
X218859000Y-113779000D01*
X220661000Y-113779000D01*
X220661000Y-115581000D01*
X220661000Y-115581000D01*
G37*
G36*
X235901000Y-115581000D02*
G01*
X234099000Y-115581000D01*
X234099000Y-113779000D01*
X235901000Y-113779000D01*
X235901000Y-115581000D01*
X235901000Y-115581000D01*
G37*
G36*
X190551000Y-114801000D02*
G01*
X188949000Y-114801000D01*
X188949000Y-112699000D01*
X190551000Y-112699000D01*
X190551000Y-114801000D01*
X190551000Y-114801000D01*
G37*
G36*
X188301000Y-114801000D02*
G01*
X186699000Y-114801000D01*
X186699000Y-112699000D01*
X188301000Y-112699000D01*
X188301000Y-114801000D01*
X188301000Y-114801000D01*
G37*
G36*
X192801000Y-114801000D02*
G01*
X191199000Y-114801000D01*
X191199000Y-112699000D01*
X192801000Y-112699000D01*
X192801000Y-114801000D01*
X192801000Y-114801000D01*
G37*
G36*
X162051000Y-113551000D02*
G01*
X157949000Y-113551000D01*
X157949000Y-111449000D01*
X162051000Y-111449000D01*
X162051000Y-113551000D01*
X162051000Y-113551000D01*
G37*
G36*
X121801000Y-113551000D02*
G01*
X117699000Y-113551000D01*
X117699000Y-111449000D01*
X121801000Y-111449000D01*
X121801000Y-113551000D01*
X121801000Y-113551000D01*
G37*
G36*
X235901000Y-113041000D02*
G01*
X234099000Y-113041000D01*
X234099000Y-111239000D01*
X235901000Y-111239000D01*
X235901000Y-113041000D01*
X235901000Y-113041000D01*
G37*
G36*
X220661000Y-113041000D02*
G01*
X218859000Y-113041000D01*
X218859000Y-111239000D01*
X220661000Y-111239000D01*
X220661000Y-113041000D01*
X220661000Y-113041000D01*
G37*
G36*
X224051000Y-112926000D02*
G01*
X223449000Y-112926000D01*
X223449000Y-111574000D01*
X224051000Y-111574000D01*
X224051000Y-112926000D01*
X224051000Y-112926000D01*
G37*
G36*
X222301000Y-112926000D02*
G01*
X221699000Y-112926000D01*
X221699000Y-111574000D01*
X222301000Y-111574000D01*
X222301000Y-112926000D01*
X222301000Y-112926000D01*
G37*
G36*
X148751000Y-112751000D02*
G01*
X146249000Y-112751000D01*
X146249000Y-110249000D01*
X148751000Y-110249000D01*
X148751000Y-112751000D01*
X148751000Y-112751000D01*
G37*
G36*
X152864903Y-110297075D02*
G01*
X153092571Y-110391378D01*
X153297466Y-110528285D01*
X153471715Y-110702534D01*
X153471716Y-110702536D01*
X153608623Y-110907431D01*
X153668091Y-111051000D01*
X153702925Y-111135097D01*
X153751000Y-111376787D01*
X153751000Y-111623213D01*
X153702925Y-111864903D01*
X153608622Y-112092571D01*
X153471715Y-112297466D01*
X153297466Y-112471715D01*
X153092571Y-112608622D01*
X153092570Y-112608623D01*
X153092569Y-112608623D01*
X152864903Y-112702925D01*
X152623214Y-112751000D01*
X152376786Y-112751000D01*
X152135097Y-112702925D01*
X151907431Y-112608623D01*
X151907430Y-112608623D01*
X151907429Y-112608622D01*
X151702534Y-112471715D01*
X151528285Y-112297466D01*
X151391378Y-112092571D01*
X151297075Y-111864903D01*
X151249000Y-111623213D01*
X151249000Y-111376787D01*
X151297075Y-111135097D01*
X151331909Y-111051000D01*
X151391377Y-110907431D01*
X151528284Y-110702536D01*
X151528285Y-110702534D01*
X151702534Y-110528285D01*
X151907429Y-110391378D01*
X152135097Y-110297075D01*
X152376786Y-110249000D01*
X152623214Y-110249000D01*
X152864903Y-110297075D01*
X152864903Y-110297075D01*
G37*
G36*
X207801000Y-111676000D02*
G01*
X207199000Y-111676000D01*
X207199000Y-110324000D01*
X207801000Y-110324000D01*
X207801000Y-111676000D01*
X207801000Y-111676000D01*
G37*
G36*
X206051000Y-111676000D02*
G01*
X205449000Y-111676000D01*
X205449000Y-110324000D01*
X206051000Y-110324000D01*
X206051000Y-111676000D01*
X206051000Y-111676000D01*
G37*
G36*
X126428210Y-108958489D02*
G01*
X126514950Y-108984802D01*
X126594889Y-109027530D01*
X126664962Y-109085038D01*
X126722470Y-109155111D01*
X126765198Y-109235050D01*
X126791511Y-109321790D01*
X126801000Y-109418140D01*
X126801000Y-110581860D01*
X126791511Y-110678210D01*
X126765198Y-110764950D01*
X126722470Y-110844889D01*
X126664962Y-110914962D01*
X126594889Y-110972470D01*
X126514950Y-111015198D01*
X126428210Y-111041511D01*
X126331860Y-111051000D01*
X123168140Y-111051000D01*
X123071790Y-111041511D01*
X122985050Y-111015198D01*
X122905111Y-110972470D01*
X122835038Y-110914962D01*
X122777530Y-110844889D01*
X122734802Y-110764950D01*
X122708489Y-110678210D01*
X122699000Y-110581860D01*
X122699000Y-109418140D01*
X122708489Y-109321790D01*
X122734802Y-109235050D01*
X122777530Y-109155111D01*
X122835038Y-109085038D01*
X122905111Y-109027530D01*
X122985050Y-108984802D01*
X123071790Y-108958489D01*
X123168140Y-108949000D01*
X126331860Y-108949000D01*
X126428210Y-108958489D01*
X126428210Y-108958489D01*
G37*
G36*
X166678210Y-108958489D02*
G01*
X166764950Y-108984802D01*
X166844889Y-109027530D01*
X166914962Y-109085038D01*
X166972470Y-109155111D01*
X167015198Y-109235050D01*
X167041511Y-109321790D01*
X167051000Y-109418140D01*
X167051000Y-110581860D01*
X167041511Y-110678210D01*
X167015198Y-110764950D01*
X166972470Y-110844889D01*
X166914962Y-110914962D01*
X166844889Y-110972470D01*
X166764950Y-111015198D01*
X166678210Y-111041511D01*
X166581860Y-111051000D01*
X163418140Y-111051000D01*
X163321790Y-111041511D01*
X163235050Y-111015198D01*
X163155111Y-110972470D01*
X163085038Y-110914962D01*
X163027530Y-110844889D01*
X162984802Y-110764950D01*
X162958489Y-110678210D01*
X162949000Y-110581860D01*
X162949000Y-109418140D01*
X162958489Y-109321790D01*
X162984802Y-109235050D01*
X163027530Y-109155111D01*
X163085038Y-109085038D01*
X163155111Y-109027530D01*
X163235050Y-108984802D01*
X163321790Y-108958489D01*
X163418140Y-108949000D01*
X166581860Y-108949000D01*
X166678210Y-108958489D01*
X166678210Y-108958489D01*
G37*
G36*
X220661000Y-110501000D02*
G01*
X218859000Y-110501000D01*
X218859000Y-108699000D01*
X220661000Y-108699000D01*
X220661000Y-110501000D01*
X220661000Y-110501000D01*
G37*
G36*
X235901000Y-110501000D02*
G01*
X234099000Y-110501000D01*
X234099000Y-108699000D01*
X235901000Y-108699000D01*
X235901000Y-110501000D01*
X235901000Y-110501000D01*
G37*
G36*
X192676000Y-108551000D02*
G01*
X191324000Y-108551000D01*
X191324000Y-107949000D01*
X192676000Y-107949000D01*
X192676000Y-108551000D01*
X192676000Y-108551000D01*
G37*
G36*
X188176000Y-108551000D02*
G01*
X186824000Y-108551000D01*
X186824000Y-107949000D01*
X188176000Y-107949000D01*
X188176000Y-108551000D01*
X188176000Y-108551000D01*
G37*
G36*
X220661000Y-107961000D02*
G01*
X218859000Y-107961000D01*
X218859000Y-106159000D01*
X220661000Y-106159000D01*
X220661000Y-107961000D01*
X220661000Y-107961000D01*
G37*
G36*
X235901000Y-107961000D02*
G01*
X234099000Y-107961000D01*
X234099000Y-106159000D01*
X235901000Y-106159000D01*
X235901000Y-107961000D01*
X235901000Y-107961000D01*
G37*
G36*
X55801000Y-107801000D02*
G01*
X53699000Y-107801000D01*
X53699000Y-105699000D01*
X55801000Y-105699000D01*
X55801000Y-107801000D01*
X55801000Y-107801000D01*
G37*
G36*
X212001000Y-107751000D02*
G01*
X209499000Y-107751000D01*
X209499000Y-105249000D01*
X212001000Y-105249000D01*
X212001000Y-107751000D01*
X212001000Y-107751000D01*
G37*
G36*
X204001000Y-107751000D02*
G01*
X201499000Y-107751000D01*
X201499000Y-105249000D01*
X204001000Y-105249000D01*
X204001000Y-107751000D01*
X204001000Y-107751000D01*
G37*
G36*
X192676000Y-106801000D02*
G01*
X191324000Y-106801000D01*
X191324000Y-106199000D01*
X192676000Y-106199000D01*
X192676000Y-106801000D01*
X192676000Y-106801000D01*
G37*
G36*
X188176000Y-106801000D02*
G01*
X186824000Y-106801000D01*
X186824000Y-106199000D01*
X188176000Y-106199000D01*
X188176000Y-106801000D01*
X188176000Y-106801000D01*
G37*
G36*
X148751000Y-106251000D02*
G01*
X146249000Y-106251000D01*
X146249000Y-103749000D01*
X148751000Y-103749000D01*
X148751000Y-106251000D01*
X148751000Y-106251000D01*
G37*
G36*
X152864903Y-103797075D02*
G01*
X153092571Y-103891378D01*
X153297466Y-104028285D01*
X153471715Y-104202534D01*
X153608622Y-104407429D01*
X153608623Y-104407431D01*
X153702925Y-104635097D01*
X153751000Y-104876786D01*
X153751000Y-105123214D01*
X153716339Y-105297464D01*
X153702925Y-105364903D01*
X153608622Y-105592571D01*
X153471715Y-105797466D01*
X153297466Y-105971715D01*
X153092571Y-106108622D01*
X153092570Y-106108623D01*
X153092569Y-106108623D01*
X152864903Y-106202925D01*
X152623214Y-106251000D01*
X152376786Y-106251000D01*
X152135097Y-106202925D01*
X151907431Y-106108623D01*
X151907430Y-106108623D01*
X151907429Y-106108622D01*
X151702534Y-105971715D01*
X151528285Y-105797466D01*
X151391378Y-105592571D01*
X151297075Y-105364903D01*
X151283661Y-105297464D01*
X151249000Y-105123214D01*
X151249000Y-104876786D01*
X151297075Y-104635097D01*
X151391377Y-104407431D01*
X151391378Y-104407429D01*
X151528285Y-104202534D01*
X151702534Y-104028285D01*
X151907429Y-103891378D01*
X152135097Y-103797075D01*
X152376786Y-103749000D01*
X152623214Y-103749000D01*
X152864903Y-103797075D01*
X152864903Y-103797075D01*
G37*
G36*
X232676000Y-106051000D02*
G01*
X231324000Y-106051000D01*
X231324000Y-105449000D01*
X232676000Y-105449000D01*
X232676000Y-106051000D01*
X232676000Y-106051000D01*
G37*
G36*
X79864903Y-103297075D02*
G01*
X80092571Y-103391378D01*
X80297466Y-103528285D01*
X80471715Y-103702534D01*
X80597896Y-103891377D01*
X80608623Y-103907431D01*
X80702925Y-104135097D01*
X80751000Y-104376786D01*
X80751000Y-104623214D01*
X80702925Y-104864903D01*
X80698003Y-104876787D01*
X80608622Y-105092571D01*
X80471715Y-105297466D01*
X80297466Y-105471715D01*
X80092571Y-105608622D01*
X80092570Y-105608623D01*
X80092569Y-105608623D01*
X79864903Y-105702925D01*
X79623214Y-105751000D01*
X79376786Y-105751000D01*
X79135097Y-105702925D01*
X78907431Y-105608623D01*
X78907430Y-105608623D01*
X78907429Y-105608622D01*
X78702534Y-105471715D01*
X78528285Y-105297466D01*
X78391378Y-105092571D01*
X78301998Y-104876787D01*
X78297075Y-104864903D01*
X78249000Y-104623214D01*
X78249000Y-104376786D01*
X78297075Y-104135097D01*
X78391377Y-103907431D01*
X78402104Y-103891377D01*
X78528285Y-103702534D01*
X78702534Y-103528285D01*
X78907429Y-103391378D01*
X79135097Y-103297075D01*
X79376786Y-103249000D01*
X79623214Y-103249000D01*
X79864903Y-103297075D01*
X79864903Y-103297075D01*
G37*
G36*
X72364903Y-103297075D02*
G01*
X72592571Y-103391378D01*
X72797466Y-103528285D01*
X72971715Y-103702534D01*
X73097896Y-103891377D01*
X73108623Y-103907431D01*
X73202925Y-104135097D01*
X73251000Y-104376786D01*
X73251000Y-104623214D01*
X73202925Y-104864903D01*
X73198003Y-104876787D01*
X73108622Y-105092571D01*
X72971715Y-105297466D01*
X72797466Y-105471715D01*
X72592571Y-105608622D01*
X72592570Y-105608623D01*
X72592569Y-105608623D01*
X72364903Y-105702925D01*
X72123214Y-105751000D01*
X71876786Y-105751000D01*
X71635097Y-105702925D01*
X71407431Y-105608623D01*
X71407430Y-105608623D01*
X71407429Y-105608622D01*
X71202534Y-105471715D01*
X71028285Y-105297466D01*
X70891378Y-105092571D01*
X70801998Y-104876787D01*
X70797075Y-104864903D01*
X70749000Y-104623214D01*
X70749000Y-104376786D01*
X70797075Y-104135097D01*
X70891377Y-103907431D01*
X70902104Y-103891377D01*
X71028285Y-103702534D01*
X71202534Y-103528285D01*
X71407429Y-103391378D01*
X71635097Y-103297075D01*
X71876786Y-103249000D01*
X72123214Y-103249000D01*
X72364903Y-103297075D01*
X72364903Y-103297075D01*
G37*
G36*
X106251000Y-105751000D02*
G01*
X103749000Y-105751000D01*
X103749000Y-103249000D01*
X106251000Y-103249000D01*
X106251000Y-105751000D01*
X106251000Y-105751000D01*
G37*
G36*
X98751000Y-105751000D02*
G01*
X96249000Y-105751000D01*
X96249000Y-103249000D01*
X98751000Y-103249000D01*
X98751000Y-105751000D01*
X98751000Y-105751000D01*
G37*
G36*
X235901000Y-105421000D02*
G01*
X234099000Y-105421000D01*
X234099000Y-103619000D01*
X235901000Y-103619000D01*
X235901000Y-105421000D01*
X235901000Y-105421000D01*
G37*
G36*
X220661000Y-105421000D02*
G01*
X218859000Y-105421000D01*
X218859000Y-103619000D01*
X220661000Y-103619000D01*
X220661000Y-105421000D01*
X220661000Y-105421000D01*
G37*
G36*
X232676000Y-104301000D02*
G01*
X231324000Y-104301000D01*
X231324000Y-103699000D01*
X232676000Y-103699000D01*
X232676000Y-104301000D01*
X232676000Y-104301000D01*
G37*
G36*
X220661000Y-102881000D02*
G01*
X218859000Y-102881000D01*
X218859000Y-101079000D01*
X220661000Y-101079000D01*
X220661000Y-102881000D01*
X220661000Y-102881000D01*
G37*
G36*
X235901000Y-102881000D02*
G01*
X234099000Y-102881000D01*
X234099000Y-101079000D01*
X235901000Y-101079000D01*
X235901000Y-102881000D01*
X235901000Y-102881000D01*
G37*
G36*
X55801000Y-102801000D02*
G01*
X53699000Y-102801000D01*
X53699000Y-100699000D01*
X55801000Y-100699000D01*
X55801000Y-102801000D01*
X55801000Y-102801000D01*
G37*
G36*
X209551000Y-101051000D02*
G01*
X207449000Y-101051000D01*
X207449000Y-98949000D01*
X209551000Y-98949000D01*
X209551000Y-101051000D01*
X209551000Y-101051000D01*
G37*
G36*
X198806564Y-98989389D02*
G01*
X198997833Y-99068615D01*
X198997835Y-99068616D01*
X199160324Y-99177188D01*
X199169973Y-99183635D01*
X199316365Y-99330027D01*
X199431385Y-99502167D01*
X199510611Y-99693436D01*
X199551000Y-99896484D01*
X199551000Y-100103516D01*
X199510611Y-100306564D01*
X199496347Y-100341000D01*
X199431384Y-100497835D01*
X199316365Y-100669973D01*
X199169973Y-100816365D01*
X198997835Y-100931384D01*
X198997834Y-100931385D01*
X198997833Y-100931385D01*
X198806564Y-101010611D01*
X198603516Y-101051000D01*
X198396484Y-101051000D01*
X198193436Y-101010611D01*
X198002167Y-100931385D01*
X198002166Y-100931385D01*
X198002165Y-100931384D01*
X197830027Y-100816365D01*
X197683635Y-100669973D01*
X197568616Y-100497835D01*
X197503653Y-100341000D01*
X197489389Y-100306564D01*
X197449000Y-100103516D01*
X197449000Y-99896484D01*
X197489389Y-99693436D01*
X197568615Y-99502167D01*
X197683635Y-99330027D01*
X197830027Y-99183635D01*
X197839676Y-99177188D01*
X198002165Y-99068616D01*
X198002167Y-99068615D01*
X198193436Y-98989389D01*
X198396484Y-98949000D01*
X198603516Y-98949000D01*
X198806564Y-98989389D01*
X198806564Y-98989389D01*
G37*
G36*
X224176000Y-100351000D02*
G01*
X222824000Y-100351000D01*
X222824000Y-99749000D01*
X224176000Y-99749000D01*
X224176000Y-100351000D01*
X224176000Y-100351000D01*
G37*
G36*
X227176000Y-100351000D02*
G01*
X225824000Y-100351000D01*
X225824000Y-99749000D01*
X227176000Y-99749000D01*
X227176000Y-100351000D01*
X227176000Y-100351000D01*
G37*
G36*
X230176000Y-100351000D02*
G01*
X228824000Y-100351000D01*
X228824000Y-99749000D01*
X230176000Y-99749000D01*
X230176000Y-100351000D01*
X230176000Y-100351000D01*
G37*
G36*
X219873512Y-98543927D02*
G01*
X220022812Y-98573624D01*
X220186784Y-98641544D01*
X220334354Y-98740147D01*
X220459853Y-98865646D01*
X220558456Y-99013216D01*
X220626376Y-99177188D01*
X220661000Y-99351259D01*
X220661000Y-99528741D01*
X220626376Y-99702812D01*
X220558456Y-99866784D01*
X220459853Y-100014354D01*
X220334354Y-100139853D01*
X220186784Y-100238456D01*
X220022812Y-100306376D01*
X219873512Y-100336073D01*
X219848742Y-100341000D01*
X219671258Y-100341000D01*
X219646488Y-100336073D01*
X219497188Y-100306376D01*
X219333216Y-100238456D01*
X219185646Y-100139853D01*
X219060147Y-100014354D01*
X218961544Y-99866784D01*
X218893624Y-99702812D01*
X218859000Y-99528741D01*
X218859000Y-99351259D01*
X218893624Y-99177188D01*
X218961544Y-99013216D01*
X219060147Y-98865646D01*
X219185646Y-98740147D01*
X219333216Y-98641544D01*
X219497188Y-98573624D01*
X219646488Y-98543927D01*
X219671258Y-98539000D01*
X219848742Y-98539000D01*
X219873512Y-98543927D01*
X219873512Y-98543927D01*
G37*
G36*
X235113512Y-98543927D02*
G01*
X235262812Y-98573624D01*
X235426784Y-98641544D01*
X235574354Y-98740147D01*
X235699853Y-98865646D01*
X235798456Y-99013216D01*
X235866376Y-99177188D01*
X235901000Y-99351259D01*
X235901000Y-99528741D01*
X235866376Y-99702812D01*
X235798456Y-99866784D01*
X235699853Y-100014354D01*
X235574354Y-100139853D01*
X235426784Y-100238456D01*
X235262812Y-100306376D01*
X235113512Y-100336073D01*
X235088742Y-100341000D01*
X234911258Y-100341000D01*
X234886488Y-100336073D01*
X234737188Y-100306376D01*
X234573216Y-100238456D01*
X234425646Y-100139853D01*
X234300147Y-100014354D01*
X234201544Y-99866784D01*
X234133624Y-99702812D01*
X234099000Y-99528741D01*
X234099000Y-99351259D01*
X234133624Y-99177188D01*
X234201544Y-99013216D01*
X234300147Y-98865646D01*
X234425646Y-98740147D01*
X234573216Y-98641544D01*
X234737188Y-98573624D01*
X234886488Y-98543927D01*
X234911258Y-98539000D01*
X235088742Y-98539000D01*
X235113512Y-98543927D01*
X235113512Y-98543927D01*
G37*
G36*
X230176000Y-98601000D02*
G01*
X228824000Y-98601000D01*
X228824000Y-97999000D01*
X230176000Y-97999000D01*
X230176000Y-98601000D01*
X230176000Y-98601000D01*
G37*
G36*
X227176000Y-98601000D02*
G01*
X225824000Y-98601000D01*
X225824000Y-97999000D01*
X227176000Y-97999000D01*
X227176000Y-98601000D01*
X227176000Y-98601000D01*
G37*
G36*
X224176000Y-98601000D02*
G01*
X222824000Y-98601000D01*
X222824000Y-97999000D01*
X224176000Y-97999000D01*
X224176000Y-98601000D01*
X224176000Y-98601000D01*
G37*
G36*
X200801000Y-97051000D02*
G01*
X199199000Y-97051000D01*
X199199000Y-93449000D01*
X200801000Y-93449000D01*
X200801000Y-97051000D01*
X200801000Y-97051000D01*
G37*
G36*
X208051000Y-97051000D02*
G01*
X206449000Y-97051000D01*
X206449000Y-93449000D01*
X208051000Y-93449000D01*
X208051000Y-97051000D01*
X208051000Y-97051000D01*
G37*
G36*
X228676000Y-96101000D02*
G01*
X227324000Y-96101000D01*
X227324000Y-95499000D01*
X228676000Y-95499000D01*
X228676000Y-96101000D01*
X228676000Y-96101000D01*
G37*
G36*
X222676000Y-96101000D02*
G01*
X221324000Y-96101000D01*
X221324000Y-95499000D01*
X222676000Y-95499000D01*
X222676000Y-96101000D01*
X222676000Y-96101000D01*
G37*
G36*
X225676000Y-96101000D02*
G01*
X224324000Y-96101000D01*
X224324000Y-95499000D01*
X225676000Y-95499000D01*
X225676000Y-96101000D01*
X225676000Y-96101000D01*
G37*
G36*
X222676000Y-94351000D02*
G01*
X221324000Y-94351000D01*
X221324000Y-93749000D01*
X222676000Y-93749000D01*
X222676000Y-94351000D01*
X222676000Y-94351000D01*
G37*
G36*
X225676000Y-94351000D02*
G01*
X224324000Y-94351000D01*
X224324000Y-93749000D01*
X225676000Y-93749000D01*
X225676000Y-94351000D01*
X225676000Y-94351000D01*
G37*
G36*
X228676000Y-94351000D02*
G01*
X227324000Y-94351000D01*
X227324000Y-93749000D01*
X228676000Y-93749000D01*
X228676000Y-94351000D01*
X228676000Y-94351000D01*
G37*
G36*
X235863512Y-90603927D02*
G01*
X236012812Y-90633624D01*
X236176784Y-90701544D01*
X236324354Y-90800147D01*
X236449853Y-90925646D01*
X236548456Y-91073216D01*
X236616376Y-91237188D01*
X236651000Y-91411259D01*
X236651000Y-91588741D01*
X236616376Y-91762812D01*
X236548456Y-91926784D01*
X236449853Y-92074354D01*
X236324354Y-92199853D01*
X236176784Y-92298456D01*
X236012812Y-92366376D01*
X235863512Y-92396073D01*
X235838742Y-92401000D01*
X235661258Y-92401000D01*
X235636488Y-92396073D01*
X235487188Y-92366376D01*
X235323216Y-92298456D01*
X235175646Y-92199853D01*
X235050147Y-92074354D01*
X234951544Y-91926784D01*
X234883624Y-91762812D01*
X234849000Y-91588741D01*
X234849000Y-91411259D01*
X234883624Y-91237188D01*
X234951544Y-91073216D01*
X235050147Y-90925646D01*
X235175646Y-90800147D01*
X235323216Y-90701544D01*
X235487188Y-90633624D01*
X235636488Y-90603927D01*
X235661258Y-90599000D01*
X235838742Y-90599000D01*
X235863512Y-90603927D01*
X235863512Y-90603927D01*
G37*
G36*
X209551000Y-91051000D02*
G01*
X207449000Y-91051000D01*
X207449000Y-88949000D01*
X209551000Y-88949000D01*
X209551000Y-91051000D01*
X209551000Y-91051000D01*
G37*
G36*
X199551000Y-91051000D02*
G01*
X197449000Y-91051000D01*
X197449000Y-88949000D01*
X199551000Y-88949000D01*
X199551000Y-91051000D01*
X199551000Y-91051000D01*
G37*
G36*
X236651000Y-89861000D02*
G01*
X234849000Y-89861000D01*
X234849000Y-88059000D01*
X236651000Y-88059000D01*
X236651000Y-89861000D01*
X236651000Y-89861000D01*
G37*
G36*
X235863512Y-84393927D02*
G01*
X236012812Y-84423624D01*
X236176784Y-84491544D01*
X236324354Y-84590147D01*
X236449853Y-84715646D01*
X236548456Y-84863216D01*
X236616376Y-85027188D01*
X236651000Y-85201259D01*
X236651000Y-85378741D01*
X236616376Y-85552812D01*
X236548456Y-85716784D01*
X236449853Y-85864354D01*
X236324354Y-85989853D01*
X236176784Y-86088456D01*
X236012812Y-86156376D01*
X235863512Y-86186073D01*
X235838742Y-86191000D01*
X235661258Y-86191000D01*
X235636488Y-86186073D01*
X235487188Y-86156376D01*
X235323216Y-86088456D01*
X235175646Y-85989853D01*
X235050147Y-85864354D01*
X234951544Y-85716784D01*
X234883624Y-85552812D01*
X234849000Y-85378741D01*
X234849000Y-85201259D01*
X234883624Y-85027188D01*
X234951544Y-84863216D01*
X235050147Y-84715646D01*
X235175646Y-84590147D01*
X235323216Y-84491544D01*
X235487188Y-84423624D01*
X235636488Y-84393927D01*
X235661258Y-84389000D01*
X235838742Y-84389000D01*
X235863512Y-84393927D01*
X235863512Y-84393927D01*
G37*
G36*
X236651000Y-83651000D02*
G01*
X234849000Y-83651000D01*
X234849000Y-81849000D01*
X236651000Y-81849000D01*
X236651000Y-83651000D01*
X236651000Y-83651000D01*
G37*
G36*
X213551000Y-83551000D02*
G01*
X211949000Y-83551000D01*
X211949000Y-82449000D01*
X213551000Y-82449000D01*
X213551000Y-83551000D01*
X213551000Y-83551000D01*
G37*
G36*
X219551000Y-83551000D02*
G01*
X217949000Y-83551000D01*
X217949000Y-82449000D01*
X219551000Y-82449000D01*
X219551000Y-83551000D01*
X219551000Y-83551000D01*
G37*
G36*
X216551000Y-83551000D02*
G01*
X214949000Y-83551000D01*
X214949000Y-82449000D01*
X216551000Y-82449000D01*
X216551000Y-83551000D01*
X216551000Y-83551000D01*
G37*
G36*
X209426000Y-82301000D02*
G01*
X208074000Y-82301000D01*
X208074000Y-81699000D01*
X209426000Y-81699000D01*
X209426000Y-82301000D01*
X209426000Y-82301000D01*
G37*
G36*
X203426000Y-82301000D02*
G01*
X202074000Y-82301000D01*
X202074000Y-81699000D01*
X203426000Y-81699000D01*
X203426000Y-82301000D01*
X203426000Y-82301000D01*
G37*
G36*
X206426000Y-82301000D02*
G01*
X205074000Y-82301000D01*
X205074000Y-81699000D01*
X206426000Y-81699000D01*
X206426000Y-82301000D01*
X206426000Y-82301000D01*
G37*
G36*
X213551000Y-81551000D02*
G01*
X211949000Y-81551000D01*
X211949000Y-80449000D01*
X213551000Y-80449000D01*
X213551000Y-81551000D01*
X213551000Y-81551000D01*
G37*
G36*
X216551000Y-81551000D02*
G01*
X214949000Y-81551000D01*
X214949000Y-80449000D01*
X216551000Y-80449000D01*
X216551000Y-81551000D01*
X216551000Y-81551000D01*
G37*
G36*
X219551000Y-81551000D02*
G01*
X217949000Y-81551000D01*
X217949000Y-80449000D01*
X219551000Y-80449000D01*
X219551000Y-81551000D01*
X219551000Y-81551000D01*
G37*
G36*
X187926000Y-81301000D02*
G01*
X186574000Y-81301000D01*
X186574000Y-80699000D01*
X187926000Y-80699000D01*
X187926000Y-81301000D01*
X187926000Y-81301000D01*
G37*
G36*
X172176000Y-81301000D02*
G01*
X170824000Y-81301000D01*
X170824000Y-80699000D01*
X172176000Y-80699000D01*
X172176000Y-81301000D01*
X172176000Y-81301000D01*
G37*
G36*
X101426000Y-81301000D02*
G01*
X100074000Y-81301000D01*
X100074000Y-80699000D01*
X101426000Y-80699000D01*
X101426000Y-81301000D01*
X101426000Y-81301000D01*
G37*
G36*
X128926000Y-81301000D02*
G01*
X127574000Y-81301000D01*
X127574000Y-80699000D01*
X128926000Y-80699000D01*
X128926000Y-81301000D01*
X128926000Y-81301000D01*
G37*
G36*
X144676000Y-81301000D02*
G01*
X143324000Y-81301000D01*
X143324000Y-80699000D01*
X144676000Y-80699000D01*
X144676000Y-81301000D01*
X144676000Y-81301000D01*
G37*
G36*
X85676000Y-81301000D02*
G01*
X84324000Y-81301000D01*
X84324000Y-80699000D01*
X85676000Y-80699000D01*
X85676000Y-81301000D01*
X85676000Y-81301000D01*
G37*
G36*
X203426000Y-80551000D02*
G01*
X202074000Y-80551000D01*
X202074000Y-79949000D01*
X203426000Y-79949000D01*
X203426000Y-80551000D01*
X203426000Y-80551000D01*
G37*
G36*
X209426000Y-80551000D02*
G01*
X208074000Y-80551000D01*
X208074000Y-79949000D01*
X209426000Y-79949000D01*
X209426000Y-80551000D01*
X209426000Y-80551000D01*
G37*
G36*
X206426000Y-80551000D02*
G01*
X205074000Y-80551000D01*
X205074000Y-79949000D01*
X206426000Y-79949000D01*
X206426000Y-80551000D01*
X206426000Y-80551000D01*
G37*
G36*
X172176000Y-79551000D02*
G01*
X170824000Y-79551000D01*
X170824000Y-78949000D01*
X172176000Y-78949000D01*
X172176000Y-79551000D01*
X172176000Y-79551000D01*
G37*
G36*
X144676000Y-79551000D02*
G01*
X143324000Y-79551000D01*
X143324000Y-78949000D01*
X144676000Y-78949000D01*
X144676000Y-79551000D01*
X144676000Y-79551000D01*
G37*
G36*
X128926000Y-79551000D02*
G01*
X127574000Y-79551000D01*
X127574000Y-78949000D01*
X128926000Y-78949000D01*
X128926000Y-79551000D01*
X128926000Y-79551000D01*
G37*
G36*
X187926000Y-79551000D02*
G01*
X186574000Y-79551000D01*
X186574000Y-78949000D01*
X187926000Y-78949000D01*
X187926000Y-79551000D01*
X187926000Y-79551000D01*
G37*
G36*
X101426000Y-79551000D02*
G01*
X100074000Y-79551000D01*
X100074000Y-78949000D01*
X101426000Y-78949000D01*
X101426000Y-79551000D01*
X101426000Y-79551000D01*
G37*
G36*
X85676000Y-79551000D02*
G01*
X84324000Y-79551000D01*
X84324000Y-78949000D01*
X85676000Y-78949000D01*
X85676000Y-79551000D01*
X85676000Y-79551000D01*
G37*
G36*
X215051000Y-78551000D02*
G01*
X213449000Y-78551000D01*
X213449000Y-77449000D01*
X215051000Y-77449000D01*
X215051000Y-78551000D01*
X215051000Y-78551000D01*
G37*
G36*
X218051000Y-78551000D02*
G01*
X216449000Y-78551000D01*
X216449000Y-77449000D01*
X218051000Y-77449000D01*
X218051000Y-78551000D01*
X218051000Y-78551000D01*
G37*
G36*
X212051000Y-78551000D02*
G01*
X210449000Y-78551000D01*
X210449000Y-77449000D01*
X212051000Y-77449000D01*
X212051000Y-78551000D01*
X212051000Y-78551000D01*
G37*
G36*
X201926000Y-78051000D02*
G01*
X200574000Y-78051000D01*
X200574000Y-77449000D01*
X201926000Y-77449000D01*
X201926000Y-78051000D01*
X201926000Y-78051000D01*
G37*
G36*
X204926000Y-78051000D02*
G01*
X203574000Y-78051000D01*
X203574000Y-77449000D01*
X204926000Y-77449000D01*
X204926000Y-78051000D01*
X204926000Y-78051000D01*
G37*
G36*
X207926000Y-78051000D02*
G01*
X206574000Y-78051000D01*
X206574000Y-77449000D01*
X207926000Y-77449000D01*
X207926000Y-78051000D01*
X207926000Y-78051000D01*
G37*
G36*
X235863512Y-75853927D02*
G01*
X236012812Y-75883624D01*
X236176784Y-75951544D01*
X236324354Y-76050147D01*
X236449853Y-76175646D01*
X236548456Y-76323216D01*
X236616376Y-76487188D01*
X236651000Y-76661259D01*
X236651000Y-76838741D01*
X236616376Y-77012812D01*
X236548456Y-77176784D01*
X236449853Y-77324354D01*
X236324354Y-77449853D01*
X236176784Y-77548456D01*
X236012812Y-77616376D01*
X235863512Y-77646073D01*
X235838742Y-77651000D01*
X235661258Y-77651000D01*
X235636488Y-77646073D01*
X235487188Y-77616376D01*
X235323216Y-77548456D01*
X235175646Y-77449853D01*
X235050147Y-77324354D01*
X234951544Y-77176784D01*
X234883624Y-77012812D01*
X234849000Y-76838741D01*
X234849000Y-76661259D01*
X234883624Y-76487188D01*
X234951544Y-76323216D01*
X235050147Y-76175646D01*
X235175646Y-76050147D01*
X235323216Y-75951544D01*
X235487188Y-75883624D01*
X235636488Y-75853927D01*
X235661258Y-75849000D01*
X235838742Y-75849000D01*
X235863512Y-75853927D01*
X235863512Y-75853927D01*
G37*
G36*
X231551000Y-77426000D02*
G01*
X230949000Y-77426000D01*
X230949000Y-76074000D01*
X231551000Y-76074000D01*
X231551000Y-77426000D01*
X231551000Y-77426000D01*
G37*
G36*
X233301000Y-77426000D02*
G01*
X232699000Y-77426000D01*
X232699000Y-76074000D01*
X233301000Y-76074000D01*
X233301000Y-77426000D01*
X233301000Y-77426000D01*
G37*
G36*
X218051000Y-76551000D02*
G01*
X216449000Y-76551000D01*
X216449000Y-75449000D01*
X218051000Y-75449000D01*
X218051000Y-76551000D01*
X218051000Y-76551000D01*
G37*
G36*
X215051000Y-76551000D02*
G01*
X213449000Y-76551000D01*
X213449000Y-75449000D01*
X215051000Y-75449000D01*
X215051000Y-76551000D01*
X215051000Y-76551000D01*
G37*
G36*
X212051000Y-76551000D02*
G01*
X210449000Y-76551000D01*
X210449000Y-75449000D01*
X212051000Y-75449000D01*
X212051000Y-76551000D01*
X212051000Y-76551000D01*
G37*
G36*
X201926000Y-76301000D02*
G01*
X200574000Y-76301000D01*
X200574000Y-75699000D01*
X201926000Y-75699000D01*
X201926000Y-76301000D01*
X201926000Y-76301000D01*
G37*
G36*
X204926000Y-76301000D02*
G01*
X203574000Y-76301000D01*
X203574000Y-75699000D01*
X204926000Y-75699000D01*
X204926000Y-76301000D01*
X204926000Y-76301000D01*
G37*
G36*
X207926000Y-76301000D02*
G01*
X206574000Y-76301000D01*
X206574000Y-75699000D01*
X207926000Y-75699000D01*
X207926000Y-76301000D01*
X207926000Y-76301000D01*
G37*
G36*
X236651000Y-75111000D02*
G01*
X234849000Y-75111000D01*
X234849000Y-73309000D01*
X236651000Y-73309000D01*
X236651000Y-75111000D01*
X236651000Y-75111000D01*
G37*
G36*
X233301000Y-74426000D02*
G01*
X232699000Y-74426000D01*
X232699000Y-73074000D01*
X233301000Y-73074000D01*
X233301000Y-74426000D01*
X233301000Y-74426000D01*
G37*
G36*
X231551000Y-74426000D02*
G01*
X230949000Y-74426000D01*
X230949000Y-73074000D01*
X231551000Y-73074000D01*
X231551000Y-74426000D01*
X231551000Y-74426000D01*
G37*
G36*
X235863512Y-69603927D02*
G01*
X236012812Y-69633624D01*
X236176784Y-69701544D01*
X236324354Y-69800147D01*
X236449853Y-69925646D01*
X236548456Y-70073216D01*
X236616376Y-70237188D01*
X236651000Y-70411259D01*
X236651000Y-70588741D01*
X236616376Y-70762812D01*
X236548456Y-70926784D01*
X236449853Y-71074354D01*
X236324354Y-71199853D01*
X236176784Y-71298456D01*
X236012812Y-71366376D01*
X235863512Y-71396073D01*
X235838742Y-71401000D01*
X235661258Y-71401000D01*
X235636488Y-71396073D01*
X235487188Y-71366376D01*
X235323216Y-71298456D01*
X235175646Y-71199853D01*
X235050147Y-71074354D01*
X234951544Y-70926784D01*
X234883624Y-70762812D01*
X234849000Y-70588741D01*
X234849000Y-70411259D01*
X234883624Y-70237188D01*
X234951544Y-70073216D01*
X235050147Y-69925646D01*
X235175646Y-69800147D01*
X235323216Y-69701544D01*
X235487188Y-69633624D01*
X235636488Y-69603927D01*
X235661258Y-69599000D01*
X235838742Y-69599000D01*
X235863512Y-69603927D01*
X235863512Y-69603927D01*
G37*
G36*
X231551000Y-71176000D02*
G01*
X230949000Y-71176000D01*
X230949000Y-69824000D01*
X231551000Y-69824000D01*
X231551000Y-71176000D01*
X231551000Y-71176000D01*
G37*
G36*
X233301000Y-71176000D02*
G01*
X232699000Y-71176000D01*
X232699000Y-69824000D01*
X233301000Y-69824000D01*
X233301000Y-71176000D01*
X233301000Y-71176000D01*
G37*
G36*
X236651000Y-68861000D02*
G01*
X234849000Y-68861000D01*
X234849000Y-67059000D01*
X236651000Y-67059000D01*
X236651000Y-68861000D01*
X236651000Y-68861000D01*
G37*
G36*
X160551000Y-68301000D02*
G01*
X158449000Y-68301000D01*
X158449000Y-65699000D01*
X160551000Y-65699000D01*
X160551000Y-68301000D01*
X160551000Y-68301000D01*
G37*
G36*
X74301000Y-68301000D02*
G01*
X72199000Y-68301000D01*
X72199000Y-65699000D01*
X74301000Y-65699000D01*
X74301000Y-68301000D01*
X74301000Y-68301000D01*
G37*
G36*
X69051000Y-68301000D02*
G01*
X66949000Y-68301000D01*
X66949000Y-65699000D01*
X69051000Y-65699000D01*
X69051000Y-68301000D01*
X69051000Y-68301000D01*
G37*
G36*
X117551000Y-68301000D02*
G01*
X115449000Y-68301000D01*
X115449000Y-65699000D01*
X117551000Y-65699000D01*
X117551000Y-68301000D01*
X117551000Y-68301000D01*
G37*
G36*
X112301000Y-68301000D02*
G01*
X110199000Y-68301000D01*
X110199000Y-65699000D01*
X112301000Y-65699000D01*
X112301000Y-68301000D01*
X112301000Y-68301000D01*
G37*
G36*
X155301000Y-68301000D02*
G01*
X153199000Y-68301000D01*
X153199000Y-65699000D01*
X155301000Y-65699000D01*
X155301000Y-68301000D01*
X155301000Y-68301000D01*
G37*
G36*
X233301000Y-68176000D02*
G01*
X232699000Y-68176000D01*
X232699000Y-66824000D01*
X233301000Y-66824000D01*
X233301000Y-68176000D01*
X233301000Y-68176000D01*
G37*
G36*
X231551000Y-68176000D02*
G01*
X230949000Y-68176000D01*
X230949000Y-66824000D01*
X231551000Y-66824000D01*
X231551000Y-68176000D01*
X231551000Y-68176000D01*
G37*
G36*
X235863512Y-63353927D02*
G01*
X236012812Y-63383624D01*
X236176784Y-63451544D01*
X236324354Y-63550147D01*
X236449853Y-63675646D01*
X236548456Y-63823216D01*
X236616376Y-63987188D01*
X236651000Y-64161259D01*
X236651000Y-64338741D01*
X236616376Y-64512812D01*
X236548456Y-64676784D01*
X236449853Y-64824354D01*
X236324354Y-64949853D01*
X236176784Y-65048456D01*
X236012812Y-65116376D01*
X235863512Y-65146073D01*
X235838742Y-65151000D01*
X235661258Y-65151000D01*
X235636488Y-65146073D01*
X235487188Y-65116376D01*
X235323216Y-65048456D01*
X235175646Y-64949853D01*
X235050147Y-64824354D01*
X234951544Y-64676784D01*
X234883624Y-64512812D01*
X234849000Y-64338741D01*
X234849000Y-64161259D01*
X234883624Y-63987188D01*
X234951544Y-63823216D01*
X235050147Y-63675646D01*
X235175646Y-63550147D01*
X235323216Y-63451544D01*
X235487188Y-63383624D01*
X235636488Y-63353927D01*
X235661258Y-63349000D01*
X235838742Y-63349000D01*
X235863512Y-63353927D01*
X235863512Y-63353927D01*
G37*
G36*
X233301000Y-64926000D02*
G01*
X232699000Y-64926000D01*
X232699000Y-63574000D01*
X233301000Y-63574000D01*
X233301000Y-64926000D01*
X233301000Y-64926000D01*
G37*
G36*
X231551000Y-64926000D02*
G01*
X230949000Y-64926000D01*
X230949000Y-63574000D01*
X231551000Y-63574000D01*
X231551000Y-64926000D01*
X231551000Y-64926000D01*
G37*
G36*
X155551000Y-63051000D02*
G01*
X153449000Y-63051000D01*
X153449000Y-60449000D01*
X155551000Y-60449000D01*
X155551000Y-63051000D01*
X155551000Y-63051000D01*
G37*
G36*
X160801000Y-63051000D02*
G01*
X158699000Y-63051000D01*
X158699000Y-60449000D01*
X160801000Y-60449000D01*
X160801000Y-63051000D01*
X160801000Y-63051000D01*
G37*
G36*
X74301000Y-63051000D02*
G01*
X72199000Y-63051000D01*
X72199000Y-60449000D01*
X74301000Y-60449000D01*
X74301000Y-63051000D01*
X74301000Y-63051000D01*
G37*
G36*
X112301000Y-63051000D02*
G01*
X110199000Y-63051000D01*
X110199000Y-60449000D01*
X112301000Y-60449000D01*
X112301000Y-63051000D01*
X112301000Y-63051000D01*
G37*
G36*
X69051000Y-63051000D02*
G01*
X66949000Y-63051000D01*
X66949000Y-60449000D01*
X69051000Y-60449000D01*
X69051000Y-63051000D01*
X69051000Y-63051000D01*
G37*
G36*
X117551000Y-63051000D02*
G01*
X115449000Y-63051000D01*
X115449000Y-60449000D01*
X117551000Y-60449000D01*
X117551000Y-63051000D01*
X117551000Y-63051000D01*
G37*
G36*
X236651000Y-62611000D02*
G01*
X234849000Y-62611000D01*
X234849000Y-60809000D01*
X236651000Y-60809000D01*
X236651000Y-62611000D01*
X236651000Y-62611000D01*
G37*
G36*
X212551000Y-62301000D02*
G01*
X210449000Y-62301000D01*
X210449000Y-60199000D01*
X212551000Y-60199000D01*
X212551000Y-62301000D01*
X212551000Y-62301000D01*
G37*
G36*
X226301000Y-62301000D02*
G01*
X224199000Y-62301000D01*
X224199000Y-60199000D01*
X226301000Y-60199000D01*
X226301000Y-62301000D01*
X226301000Y-62301000D01*
G37*
G36*
X223801000Y-62301000D02*
G01*
X221699000Y-62301000D01*
X221699000Y-60199000D01*
X223801000Y-60199000D01*
X223801000Y-62301000D01*
X223801000Y-62301000D01*
G37*
G36*
X221301000Y-62301000D02*
G01*
X219199000Y-62301000D01*
X219199000Y-60199000D01*
X221301000Y-60199000D01*
X221301000Y-62301000D01*
X221301000Y-62301000D01*
G37*
G36*
X218801000Y-62301000D02*
G01*
X216699000Y-62301000D01*
X216699000Y-60199000D01*
X218801000Y-60199000D01*
X218801000Y-62301000D01*
X218801000Y-62301000D01*
G37*
G36*
X191301000Y-62301000D02*
G01*
X189199000Y-62301000D01*
X189199000Y-60199000D01*
X191301000Y-60199000D01*
X191301000Y-62301000D01*
X191301000Y-62301000D01*
G37*
G36*
X193801000Y-62301000D02*
G01*
X191699000Y-62301000D01*
X191699000Y-60199000D01*
X193801000Y-60199000D01*
X193801000Y-62301000D01*
X193801000Y-62301000D01*
G37*
G36*
X196301000Y-62301000D02*
G01*
X194199000Y-62301000D01*
X194199000Y-60199000D01*
X196301000Y-60199000D01*
X196301000Y-62301000D01*
X196301000Y-62301000D01*
G37*
G36*
X198801000Y-62301000D02*
G01*
X196699000Y-62301000D01*
X196699000Y-60199000D01*
X198801000Y-60199000D01*
X198801000Y-62301000D01*
X198801000Y-62301000D01*
G37*
G36*
X205051000Y-62301000D02*
G01*
X202949000Y-62301000D01*
X202949000Y-60199000D01*
X205051000Y-60199000D01*
X205051000Y-62301000D01*
X205051000Y-62301000D01*
G37*
G36*
X207551000Y-62301000D02*
G01*
X205449000Y-62301000D01*
X205449000Y-60199000D01*
X207551000Y-60199000D01*
X207551000Y-62301000D01*
X207551000Y-62301000D01*
G37*
G36*
X210051000Y-62301000D02*
G01*
X207949000Y-62301000D01*
X207949000Y-60199000D01*
X210051000Y-60199000D01*
X210051000Y-62301000D01*
X210051000Y-62301000D01*
G37*
G36*
X233301000Y-61926000D02*
G01*
X232699000Y-61926000D01*
X232699000Y-60574000D01*
X233301000Y-60574000D01*
X233301000Y-61926000D01*
X233301000Y-61926000D01*
G37*
G36*
X231551000Y-61926000D02*
G01*
X230949000Y-61926000D01*
X230949000Y-60574000D01*
X231551000Y-60574000D01*
X231551000Y-61926000D01*
X231551000Y-61926000D01*
G37*
G36*
X149501000Y-60251000D02*
G01*
X146999000Y-60251000D01*
X146999000Y-57749000D01*
X149501000Y-57749000D01*
X149501000Y-60251000D01*
X149501000Y-60251000D01*
G37*
G36*
X106251000Y-60251000D02*
G01*
X103749000Y-60251000D01*
X103749000Y-57749000D01*
X106251000Y-57749000D01*
X106251000Y-60251000D01*
X106251000Y-60251000D01*
G37*
G36*
X63001000Y-60251000D02*
G01*
X60499000Y-60251000D01*
X60499000Y-57749000D01*
X63001000Y-57749000D01*
X63001000Y-60251000D01*
X63001000Y-60251000D01*
G37*
G36*
X117114903Y-56797075D02*
G01*
X117342571Y-56891378D01*
X117547466Y-57028285D01*
X117721715Y-57202534D01*
X117858622Y-57407429D01*
X117952925Y-57635097D01*
X118001000Y-57876787D01*
X118001000Y-58123213D01*
X117952925Y-58364903D01*
X117858622Y-58592571D01*
X117721715Y-58797466D01*
X117547466Y-58971715D01*
X117342571Y-59108622D01*
X117342570Y-59108623D01*
X117342569Y-59108623D01*
X117114903Y-59202925D01*
X116873214Y-59251000D01*
X116626786Y-59251000D01*
X116385097Y-59202925D01*
X116157431Y-59108623D01*
X116157430Y-59108623D01*
X116157429Y-59108622D01*
X115952534Y-58971715D01*
X115778285Y-58797466D01*
X115641378Y-58592571D01*
X115547075Y-58364903D01*
X115499000Y-58123213D01*
X115499000Y-57876787D01*
X115547075Y-57635097D01*
X115641378Y-57407429D01*
X115778285Y-57202534D01*
X115952534Y-57028285D01*
X116157429Y-56891378D01*
X116385097Y-56797075D01*
X116626786Y-56749000D01*
X116873214Y-56749000D01*
X117114903Y-56797075D01*
X117114903Y-56797075D01*
G37*
G36*
X154864903Y-56797075D02*
G01*
X155092571Y-56891378D01*
X155297466Y-57028285D01*
X155471715Y-57202534D01*
X155608622Y-57407429D01*
X155702925Y-57635097D01*
X155751000Y-57876787D01*
X155751000Y-58123213D01*
X155702925Y-58364903D01*
X155608622Y-58592571D01*
X155471715Y-58797466D01*
X155297466Y-58971715D01*
X155092571Y-59108622D01*
X155092570Y-59108623D01*
X155092569Y-59108623D01*
X154864903Y-59202925D01*
X154623214Y-59251000D01*
X154376786Y-59251000D01*
X154135097Y-59202925D01*
X153907431Y-59108623D01*
X153907430Y-59108623D01*
X153907429Y-59108622D01*
X153702534Y-58971715D01*
X153528285Y-58797466D01*
X153391378Y-58592571D01*
X153297075Y-58364903D01*
X153249000Y-58123213D01*
X153249000Y-57876787D01*
X153297075Y-57635097D01*
X153391378Y-57407429D01*
X153528285Y-57202534D01*
X153702534Y-57028285D01*
X153907429Y-56891378D01*
X154135097Y-56797075D01*
X154376786Y-56749000D01*
X154623214Y-56749000D01*
X154864903Y-56797075D01*
X154864903Y-56797075D01*
G37*
G36*
X160364903Y-56797075D02*
G01*
X160592571Y-56891378D01*
X160797466Y-57028285D01*
X160971715Y-57202534D01*
X161108622Y-57407429D01*
X161202925Y-57635097D01*
X161251000Y-57876787D01*
X161251000Y-58123213D01*
X161202925Y-58364903D01*
X161108622Y-58592571D01*
X160971715Y-58797466D01*
X160797466Y-58971715D01*
X160592571Y-59108622D01*
X160592570Y-59108623D01*
X160592569Y-59108623D01*
X160364903Y-59202925D01*
X160123214Y-59251000D01*
X159876786Y-59251000D01*
X159635097Y-59202925D01*
X159407431Y-59108623D01*
X159407430Y-59108623D01*
X159407429Y-59108622D01*
X159202534Y-58971715D01*
X159028285Y-58797466D01*
X158891378Y-58592571D01*
X158797075Y-58364903D01*
X158749000Y-58123213D01*
X158749000Y-57876787D01*
X158797075Y-57635097D01*
X158891378Y-57407429D01*
X159028285Y-57202534D01*
X159202534Y-57028285D01*
X159407429Y-56891378D01*
X159635097Y-56797075D01*
X159876786Y-56749000D01*
X160123214Y-56749000D01*
X160364903Y-56797075D01*
X160364903Y-56797075D01*
G37*
G36*
X68364903Y-56797075D02*
G01*
X68592571Y-56891378D01*
X68797466Y-57028285D01*
X68971715Y-57202534D01*
X69108622Y-57407429D01*
X69202925Y-57635097D01*
X69251000Y-57876787D01*
X69251000Y-58123213D01*
X69202925Y-58364903D01*
X69108622Y-58592571D01*
X68971715Y-58797466D01*
X68797466Y-58971715D01*
X68592571Y-59108622D01*
X68592570Y-59108623D01*
X68592569Y-59108623D01*
X68364903Y-59202925D01*
X68123214Y-59251000D01*
X67876786Y-59251000D01*
X67635097Y-59202925D01*
X67407431Y-59108623D01*
X67407430Y-59108623D01*
X67407429Y-59108622D01*
X67202534Y-58971715D01*
X67028285Y-58797466D01*
X66891378Y-58592571D01*
X66797075Y-58364903D01*
X66749000Y-58123213D01*
X66749000Y-57876787D01*
X66797075Y-57635097D01*
X66891378Y-57407429D01*
X67028285Y-57202534D01*
X67202534Y-57028285D01*
X67407429Y-56891378D01*
X67635097Y-56797075D01*
X67876786Y-56749000D01*
X68123214Y-56749000D01*
X68364903Y-56797075D01*
X68364903Y-56797075D01*
G37*
G36*
X111614903Y-56797075D02*
G01*
X111842571Y-56891378D01*
X112047466Y-57028285D01*
X112221715Y-57202534D01*
X112358622Y-57407429D01*
X112452925Y-57635097D01*
X112501000Y-57876787D01*
X112501000Y-58123213D01*
X112452925Y-58364903D01*
X112358622Y-58592571D01*
X112221715Y-58797466D01*
X112047466Y-58971715D01*
X111842571Y-59108622D01*
X111842570Y-59108623D01*
X111842569Y-59108623D01*
X111614903Y-59202925D01*
X111373214Y-59251000D01*
X111126786Y-59251000D01*
X110885097Y-59202925D01*
X110657431Y-59108623D01*
X110657430Y-59108623D01*
X110657429Y-59108622D01*
X110452534Y-58971715D01*
X110278285Y-58797466D01*
X110141378Y-58592571D01*
X110047075Y-58364903D01*
X109999000Y-58123213D01*
X109999000Y-57876787D01*
X110047075Y-57635097D01*
X110141378Y-57407429D01*
X110278285Y-57202534D01*
X110452534Y-57028285D01*
X110657429Y-56891378D01*
X110885097Y-56797075D01*
X111126786Y-56749000D01*
X111373214Y-56749000D01*
X111614903Y-56797075D01*
X111614903Y-56797075D01*
G37*
G36*
X73864903Y-56797075D02*
G01*
X74092571Y-56891378D01*
X74297466Y-57028285D01*
X74471715Y-57202534D01*
X74608622Y-57407429D01*
X74702925Y-57635097D01*
X74751000Y-57876787D01*
X74751000Y-58123213D01*
X74702925Y-58364903D01*
X74608622Y-58592571D01*
X74471715Y-58797466D01*
X74297466Y-58971715D01*
X74092571Y-59108622D01*
X74092570Y-59108623D01*
X74092569Y-59108623D01*
X73864903Y-59202925D01*
X73623214Y-59251000D01*
X73376786Y-59251000D01*
X73135097Y-59202925D01*
X72907431Y-59108623D01*
X72907430Y-59108623D01*
X72907429Y-59108622D01*
X72702534Y-58971715D01*
X72528285Y-58797466D01*
X72391378Y-58592571D01*
X72297075Y-58364903D01*
X72249000Y-58123213D01*
X72249000Y-57876787D01*
X72297075Y-57635097D01*
X72391378Y-57407429D01*
X72528285Y-57202534D01*
X72702534Y-57028285D01*
X72907429Y-56891378D01*
X73135097Y-56797075D01*
X73376786Y-56749000D01*
X73623214Y-56749000D01*
X73864903Y-56797075D01*
X73864903Y-56797075D01*
G37*
G36*
X236035787Y-51585462D02*
G01*
X236035790Y-51585463D01*
X236035789Y-51585463D01*
X236682029Y-51853144D01*
X237263631Y-52241758D01*
X237758242Y-52736369D01*
X238146856Y-53317971D01*
X238183911Y-53407431D01*
X238414538Y-53964213D01*
X238551000Y-54650256D01*
X238551000Y-55349744D01*
X238414538Y-56035787D01*
X238414537Y-56035789D01*
X238146856Y-56682029D01*
X237758242Y-57263631D01*
X237263631Y-57758242D01*
X236682029Y-58146856D01*
X236225068Y-58336135D01*
X236035787Y-58414538D01*
X235349744Y-58551000D01*
X234650256Y-58551000D01*
X233964213Y-58414538D01*
X233774932Y-58336135D01*
X233317971Y-58146856D01*
X232736369Y-57758242D01*
X232241758Y-57263631D01*
X231853144Y-56682029D01*
X231585463Y-56035789D01*
X231585462Y-56035787D01*
X231449000Y-55349744D01*
X231449000Y-54650256D01*
X231585462Y-53964213D01*
X231816089Y-53407431D01*
X231853144Y-53317971D01*
X232241758Y-52736369D01*
X232736369Y-52241758D01*
X233317971Y-51853144D01*
X233964211Y-51585463D01*
X233964210Y-51585463D01*
X233964213Y-51585462D01*
X234650256Y-51449000D01*
X235349744Y-51449000D01*
X236035787Y-51585462D01*
X236035787Y-51585462D01*
G37*
G36*
X56035787Y-51585462D02*
G01*
X56035790Y-51585463D01*
X56035789Y-51585463D01*
X56682029Y-51853144D01*
X57263631Y-52241758D01*
X57758242Y-52736369D01*
X58146856Y-53317971D01*
X58183911Y-53407431D01*
X58414538Y-53964213D01*
X58551000Y-54650256D01*
X58551000Y-55349744D01*
X58414538Y-56035787D01*
X58414537Y-56035789D01*
X58146856Y-56682029D01*
X57758242Y-57263631D01*
X57263631Y-57758242D01*
X56682029Y-58146856D01*
X56225068Y-58336135D01*
X56035787Y-58414538D01*
X55349744Y-58551000D01*
X54650256Y-58551000D01*
X53964213Y-58414538D01*
X53774932Y-58336135D01*
X53317971Y-58146856D01*
X52736369Y-57758242D01*
X52241758Y-57263631D01*
X51853144Y-56682029D01*
X51585463Y-56035789D01*
X51585462Y-56035787D01*
X51449000Y-55349744D01*
X51449000Y-54650256D01*
X51585462Y-53964213D01*
X51816089Y-53407431D01*
X51853144Y-53317971D01*
X52241758Y-52736369D01*
X52736369Y-52241758D01*
X53317971Y-51853144D01*
X53964211Y-51585463D01*
X53964210Y-51585463D01*
X53964213Y-51585462D01*
X54650256Y-51449000D01*
X55349744Y-51449000D01*
X56035787Y-51585462D01*
X56035787Y-51585462D01*
G37*
G36*
X183801000Y-55551000D02*
G01*
X181699000Y-55551000D01*
X181699000Y-53449000D01*
X183801000Y-53449000D01*
X183801000Y-55551000D01*
X183801000Y-55551000D01*
G37*
G36*
X97301000Y-55551000D02*
G01*
X95199000Y-55551000D01*
X95199000Y-53449000D01*
X97301000Y-53449000D01*
X97301000Y-55551000D01*
X97301000Y-55551000D01*
G37*
G36*
X87301000Y-55551000D02*
G01*
X85199000Y-55551000D01*
X85199000Y-53449000D01*
X87301000Y-53449000D01*
X87301000Y-55551000D01*
X87301000Y-55551000D01*
G37*
G36*
X82301000Y-55551000D02*
G01*
X80199000Y-55551000D01*
X80199000Y-53449000D01*
X82301000Y-53449000D01*
X82301000Y-55551000D01*
X82301000Y-55551000D01*
G37*
G36*
X130551000Y-55551000D02*
G01*
X128449000Y-55551000D01*
X128449000Y-53449000D01*
X130551000Y-53449000D01*
X130551000Y-55551000D01*
X130551000Y-55551000D01*
G37*
G36*
X125551000Y-55551000D02*
G01*
X123449000Y-55551000D01*
X123449000Y-53449000D01*
X125551000Y-53449000D01*
X125551000Y-55551000D01*
X125551000Y-55551000D01*
G37*
G36*
X135551000Y-55551000D02*
G01*
X133449000Y-55551000D01*
X133449000Y-53449000D01*
X135551000Y-53449000D01*
X135551000Y-55551000D01*
X135551000Y-55551000D01*
G37*
G36*
X173801000Y-55551000D02*
G01*
X171699000Y-55551000D01*
X171699000Y-53449000D01*
X173801000Y-53449000D01*
X173801000Y-55551000D01*
X173801000Y-55551000D01*
G37*
G36*
X168801000Y-55551000D02*
G01*
X166699000Y-55551000D01*
X166699000Y-53449000D01*
X168801000Y-53449000D01*
X168801000Y-55551000D01*
X168801000Y-55551000D01*
G37*
G36*
X178801000Y-55551000D02*
G01*
X176699000Y-55551000D01*
X176699000Y-53449000D01*
X178801000Y-53449000D01*
X178801000Y-55551000D01*
X178801000Y-55551000D01*
G37*
G36*
X92301000Y-55551000D02*
G01*
X90199000Y-55551000D01*
X90199000Y-53449000D01*
X92301000Y-53449000D01*
X92301000Y-55551000D01*
X92301000Y-55551000D01*
G37*
G36*
X140551000Y-55551000D02*
G01*
X138449000Y-55551000D01*
X138449000Y-53449000D01*
X140551000Y-53449000D01*
X140551000Y-55551000D01*
X140551000Y-55551000D01*
G37*
G36*
X62114903Y-52797075D02*
G01*
X62342571Y-52891378D01*
X62547466Y-53028285D01*
X62721715Y-53202534D01*
X62858622Y-53407429D01*
X62952925Y-53635097D01*
X63001000Y-53876787D01*
X63001000Y-54123213D01*
X62952925Y-54364903D01*
X62858622Y-54592571D01*
X62721715Y-54797466D01*
X62547466Y-54971715D01*
X62342571Y-55108622D01*
X62342570Y-55108623D01*
X62342569Y-55108623D01*
X62114903Y-55202925D01*
X61873214Y-55251000D01*
X61626786Y-55251000D01*
X61385097Y-55202925D01*
X61157431Y-55108623D01*
X61157430Y-55108623D01*
X61157429Y-55108622D01*
X60952534Y-54971715D01*
X60778285Y-54797466D01*
X60641378Y-54592571D01*
X60547075Y-54364903D01*
X60499000Y-54123213D01*
X60499000Y-53876787D01*
X60547075Y-53635097D01*
X60641378Y-53407429D01*
X60778285Y-53202534D01*
X60952534Y-53028285D01*
X61157429Y-52891378D01*
X61385097Y-52797075D01*
X61626786Y-52749000D01*
X61873214Y-52749000D01*
X62114903Y-52797075D01*
X62114903Y-52797075D01*
G37*
G36*
X105364903Y-52797075D02*
G01*
X105592571Y-52891378D01*
X105797466Y-53028285D01*
X105971715Y-53202534D01*
X106108622Y-53407429D01*
X106202925Y-53635097D01*
X106251000Y-53876787D01*
X106251000Y-54123213D01*
X106202925Y-54364903D01*
X106108622Y-54592571D01*
X105971715Y-54797466D01*
X105797466Y-54971715D01*
X105592571Y-55108622D01*
X105592570Y-55108623D01*
X105592569Y-55108623D01*
X105364903Y-55202925D01*
X105123214Y-55251000D01*
X104876786Y-55251000D01*
X104635097Y-55202925D01*
X104407431Y-55108623D01*
X104407430Y-55108623D01*
X104407429Y-55108622D01*
X104202534Y-54971715D01*
X104028285Y-54797466D01*
X103891378Y-54592571D01*
X103797075Y-54364903D01*
X103749000Y-54123213D01*
X103749000Y-53876787D01*
X103797075Y-53635097D01*
X103891378Y-53407429D01*
X104028285Y-53202534D01*
X104202534Y-53028285D01*
X104407429Y-52891378D01*
X104635097Y-52797075D01*
X104876786Y-52749000D01*
X105123214Y-52749000D01*
X105364903Y-52797075D01*
X105364903Y-52797075D01*
G37*
G36*
X148614903Y-52797075D02*
G01*
X148842571Y-52891378D01*
X149047466Y-53028285D01*
X149221715Y-53202534D01*
X149358622Y-53407429D01*
X149452925Y-53635097D01*
X149501000Y-53876787D01*
X149501000Y-54123213D01*
X149452925Y-54364903D01*
X149358622Y-54592571D01*
X149221715Y-54797466D01*
X149047466Y-54971715D01*
X148842571Y-55108622D01*
X148842570Y-55108623D01*
X148842569Y-55108623D01*
X148614903Y-55202925D01*
X148373214Y-55251000D01*
X148126786Y-55251000D01*
X147885097Y-55202925D01*
X147657431Y-55108623D01*
X147657430Y-55108623D01*
X147657429Y-55108622D01*
X147452534Y-54971715D01*
X147278285Y-54797466D01*
X147141378Y-54592571D01*
X147047075Y-54364903D01*
X146999000Y-54123213D01*
X146999000Y-53876787D01*
X147047075Y-53635097D01*
X147141378Y-53407429D01*
X147278285Y-53202534D01*
X147452534Y-53028285D01*
X147657429Y-52891378D01*
X147885097Y-52797075D01*
X148126786Y-52749000D01*
X148373214Y-52749000D01*
X148614903Y-52797075D01*
X148614903Y-52797075D01*
G37*
G36*
X211806564Y-52739389D02*
G01*
X211997833Y-52818615D01*
X211997835Y-52818616D01*
X212169973Y-52933635D01*
X212316365Y-53080027D01*
X212398222Y-53202534D01*
X212431385Y-53252167D01*
X212510611Y-53443436D01*
X212551000Y-53646484D01*
X212551000Y-53853516D01*
X212510611Y-54056564D01*
X212431385Y-54247833D01*
X212431384Y-54247835D01*
X212316365Y-54419973D01*
X212169973Y-54566365D01*
X211997835Y-54681384D01*
X211997834Y-54681385D01*
X211997833Y-54681385D01*
X211806564Y-54760611D01*
X211603516Y-54801000D01*
X211396484Y-54801000D01*
X211193436Y-54760611D01*
X211002167Y-54681385D01*
X211002166Y-54681385D01*
X211002165Y-54681384D01*
X210830027Y-54566365D01*
X210683635Y-54419973D01*
X210568616Y-54247835D01*
X210568615Y-54247833D01*
X210489389Y-54056564D01*
X210449000Y-53853516D01*
X210449000Y-53646484D01*
X210489389Y-53443436D01*
X210568615Y-53252167D01*
X210601779Y-53202534D01*
X210683635Y-53080027D01*
X210830027Y-52933635D01*
X211002165Y-52818616D01*
X211002167Y-52818615D01*
X211193436Y-52739389D01*
X211396484Y-52699000D01*
X211603516Y-52699000D01*
X211806564Y-52739389D01*
X211806564Y-52739389D01*
G37*
G36*
X205051000Y-54801000D02*
G01*
X202949000Y-54801000D01*
X202949000Y-52699000D01*
X205051000Y-52699000D01*
X205051000Y-54801000D01*
X205051000Y-54801000D01*
G37*
G36*
X198056564Y-52739389D02*
G01*
X198247833Y-52818615D01*
X198247835Y-52818616D01*
X198419973Y-52933635D01*
X198566365Y-53080027D01*
X198648222Y-53202534D01*
X198681385Y-53252167D01*
X198760611Y-53443436D01*
X198801000Y-53646484D01*
X198801000Y-53853516D01*
X198760611Y-54056564D01*
X198681385Y-54247833D01*
X198681384Y-54247835D01*
X198566365Y-54419973D01*
X198419973Y-54566365D01*
X198247835Y-54681384D01*
X198247834Y-54681385D01*
X198247833Y-54681385D01*
X198056564Y-54760611D01*
X197853516Y-54801000D01*
X197646484Y-54801000D01*
X197443436Y-54760611D01*
X197252167Y-54681385D01*
X197252166Y-54681385D01*
X197252165Y-54681384D01*
X197080027Y-54566365D01*
X196933635Y-54419973D01*
X196818616Y-54247835D01*
X196818615Y-54247833D01*
X196739389Y-54056564D01*
X196699000Y-53853516D01*
X196699000Y-53646484D01*
X196739389Y-53443436D01*
X196818615Y-53252167D01*
X196851779Y-53202534D01*
X196933635Y-53080027D01*
X197080027Y-52933635D01*
X197252165Y-52818616D01*
X197252167Y-52818615D01*
X197443436Y-52739389D01*
X197646484Y-52699000D01*
X197853516Y-52699000D01*
X198056564Y-52739389D01*
X198056564Y-52739389D01*
G37*
G36*
X196301000Y-54801000D02*
G01*
X194199000Y-54801000D01*
X194199000Y-52699000D01*
X196301000Y-52699000D01*
X196301000Y-54801000D01*
X196301000Y-54801000D01*
G37*
G36*
X207551000Y-54801000D02*
G01*
X205449000Y-54801000D01*
X205449000Y-52699000D01*
X207551000Y-52699000D01*
X207551000Y-54801000D01*
X207551000Y-54801000D01*
G37*
G36*
X191301000Y-54801000D02*
G01*
X189199000Y-54801000D01*
X189199000Y-52699000D01*
X191301000Y-52699000D01*
X191301000Y-54801000D01*
X191301000Y-54801000D01*
G37*
G36*
X193801000Y-54801000D02*
G01*
X191699000Y-54801000D01*
X191699000Y-52699000D01*
X193801000Y-52699000D01*
X193801000Y-54801000D01*
X193801000Y-54801000D01*
G37*
G36*
X210051000Y-54801000D02*
G01*
X207949000Y-54801000D01*
X207949000Y-52699000D01*
X210051000Y-52699000D01*
X210051000Y-54801000D01*
X210051000Y-54801000D01*
G37*
G36*
X221301000Y-54801000D02*
G01*
X219199000Y-54801000D01*
X219199000Y-52699000D01*
X221301000Y-52699000D01*
X221301000Y-54801000D01*
X221301000Y-54801000D01*
G37*
G36*
X223801000Y-54801000D02*
G01*
X221699000Y-54801000D01*
X221699000Y-52699000D01*
X223801000Y-52699000D01*
X223801000Y-54801000D01*
X223801000Y-54801000D01*
G37*
G36*
X225556564Y-52739389D02*
G01*
X225747833Y-52818615D01*
X225747835Y-52818616D01*
X225919973Y-52933635D01*
X226066365Y-53080027D01*
X226148222Y-53202534D01*
X226181385Y-53252167D01*
X226260611Y-53443436D01*
X226301000Y-53646484D01*
X226301000Y-53853516D01*
X226260611Y-54056564D01*
X226181385Y-54247833D01*
X226181384Y-54247835D01*
X226066365Y-54419973D01*
X225919973Y-54566365D01*
X225747835Y-54681384D01*
X225747834Y-54681385D01*
X225747833Y-54681385D01*
X225556564Y-54760611D01*
X225353516Y-54801000D01*
X225146484Y-54801000D01*
X224943436Y-54760611D01*
X224752167Y-54681385D01*
X224752166Y-54681385D01*
X224752165Y-54681384D01*
X224580027Y-54566365D01*
X224433635Y-54419973D01*
X224318616Y-54247835D01*
X224318615Y-54247833D01*
X224239389Y-54056564D01*
X224199000Y-53853516D01*
X224199000Y-53646484D01*
X224239389Y-53443436D01*
X224318615Y-53252167D01*
X224351779Y-53202534D01*
X224433635Y-53080027D01*
X224580027Y-52933635D01*
X224752165Y-52818616D01*
X224752167Y-52818615D01*
X224943436Y-52739389D01*
X225146484Y-52699000D01*
X225353516Y-52699000D01*
X225556564Y-52739389D01*
X225556564Y-52739389D01*
G37*
G36*
X218801000Y-54801000D02*
G01*
X216699000Y-54801000D01*
X216699000Y-52699000D01*
X218801000Y-52699000D01*
X218801000Y-54801000D01*
X218801000Y-54801000D01*
G37*
G36*
X161251000Y-54251000D02*
G01*
X158749000Y-54251000D01*
X158749000Y-51749000D01*
X161251000Y-51749000D01*
X161251000Y-54251000D01*
X161251000Y-54251000D01*
G37*
G36*
X155751000Y-54251000D02*
G01*
X153249000Y-54251000D01*
X153249000Y-51749000D01*
X155751000Y-51749000D01*
X155751000Y-54251000D01*
X155751000Y-54251000D01*
G37*
G36*
X112501000Y-54251000D02*
G01*
X109999000Y-54251000D01*
X109999000Y-51749000D01*
X112501000Y-51749000D01*
X112501000Y-54251000D01*
X112501000Y-54251000D01*
G37*
G36*
X118001000Y-54251000D02*
G01*
X115499000Y-54251000D01*
X115499000Y-51749000D01*
X118001000Y-51749000D01*
X118001000Y-54251000D01*
X118001000Y-54251000D01*
G37*
G36*
X69251000Y-54251000D02*
G01*
X66749000Y-54251000D01*
X66749000Y-51749000D01*
X69251000Y-51749000D01*
X69251000Y-54251000D01*
X69251000Y-54251000D01*
G37*
G36*
X74751000Y-54251000D02*
G01*
X72249000Y-54251000D01*
X72249000Y-51749000D01*
X74751000Y-51749000D01*
X74751000Y-54251000D01*
X74751000Y-54251000D01*
G37*
M02*
