M48
; DRILL file {KiCad (5.1.4)-1} date 16.08.2020 22:28:16
; FORMAT={3:3/ absolute / metric / keep zeros}
; #@! TF.CreationDate,2020-08-16T22:28:16+03:00
; #@! TF.GenerationSoftware,Kicad,Pcbnew,(5.1.4)-1
; #@! TF.FileFunction,Plated,1,2,PTH
FMAT,2
METRIC
T1C0.400
T2C0.800
T3C1.000
T4C1.200
T5C1.400
T6C1.600
T7C3.400
%
G90
G05
T1
X077000Y-062500
X082000Y-067500
X082000Y-082250
X088750Y-067500
X088750Y-073000
X099500Y-062500
X103750Y-067500
X103750Y-082250
X120250Y-062500
X125250Y-067500
X125250Y-082250
X132000Y-067500
X132000Y-073000
X132500Y-110000
X132500Y-116500
X135750Y-136000
X137250Y-135750
X139250Y-136000
X142750Y-062500
X143000Y-135750
X144250Y-125475
X147000Y-067500
X147000Y-082250
X147250Y-136000
X147750Y-125475
X151000Y-135750
X155000Y-125500
X162500Y-125500
X162500Y-135750
X163500Y-062500
X168500Y-068750
X168500Y-082250
X170000Y-119750
X175000Y-068750
X175000Y-073000
X178750Y-134750
X178750Y-136000
X186000Y-062500
X189500Y-132500
X189500Y-136000
X190250Y-068750
X190250Y-082250
X192500Y-110000
X194000Y-122725
X194000Y-125475
X194000Y-127975
X194000Y-132475
X198500Y-125475
X198500Y-127975
X198500Y-132475
X201250Y-072000
X202750Y-072000
X203500Y-124475
X203500Y-127975
X203500Y-132475
X204250Y-072000
X205750Y-072000
X207250Y-072000
X207500Y-124975
X208750Y-072000
X210000Y-122475
X211250Y-085000
X212250Y-096750
X212500Y-119975
X212750Y-085000
X214250Y-085000
X215750Y-085000
X217250Y-085000
X218000Y-095250
X218750Y-085000
X222000Y-089550
X222000Y-091825
X223500Y-089550
X223500Y-091825
X225000Y-089550
X225000Y-091825
X225000Y-102600
X225000Y-112250
X225000Y-117250
X226500Y-089550
X226500Y-091825
X228000Y-089550
X228000Y-091825
X229500Y-089550
X229500Y-091825
X231750Y-127250
T2
X052000Y-072500
X052000Y-074250
X053250Y-070500
X054500Y-072500
X054500Y-074250
X055750Y-070500
X057000Y-072500
X057000Y-074250
X059500Y-072500
X059500Y-074250
X108750Y-075250
X108750Y-077750
X108750Y-080250
X108750Y-082750
X108750Y-085250
X111750Y-075250
X111750Y-077750
X111750Y-080250
X111750Y-082750
X111750Y-085250
X152000Y-075250
X152000Y-077750
X152000Y-080250
X152000Y-082750
X152000Y-085250
X155000Y-075250
X155000Y-077750
X155000Y-080250
X155000Y-082750
X155000Y-085250
X195250Y-075250
X195250Y-077750
X195250Y-080250
X195250Y-082750
X195250Y-085250
X198250Y-075250
X198250Y-077750
X198250Y-080250
X198250Y-082750
X198250Y-085250
T3
X235750Y-088960
X235750Y-091500
X235750Y-061710
X235750Y-064250
X235750Y-082750
X235750Y-085290
X219760Y-099440
X219760Y-101980
X219760Y-104520
X219760Y-107060
X219760Y-109600
X219760Y-112140
X219760Y-114680
X219760Y-117220
X219760Y-119760
X219760Y-122300
X219760Y-124840
X219760Y-127380
X219760Y-129920
X219760Y-132460
X219760Y-135000
X235000Y-099440
X235000Y-101980
X235000Y-104520
X235000Y-107060
X235000Y-109600
X235000Y-112140
X235000Y-114680
X235000Y-117220
X235000Y-119760
X235000Y-122300
X235000Y-124840
X235000Y-127380
X235000Y-129920
X235000Y-132460
X235000Y-135000
X235750Y-074210
X235750Y-076750
X235750Y-067960
X235750Y-070500
T4
X077000Y-145500
X082000Y-145500
X097500Y-145500
X102500Y-145500
X081250Y-054500
X086250Y-054500
X167750Y-054500
X172750Y-054500
X204000Y-053750
X204000Y-061250
X206500Y-053750
X206500Y-061250
X209000Y-053750
X209000Y-061250
X211500Y-053750
X211500Y-061250
X177750Y-054500
X182750Y-054500
X091250Y-054500
X096250Y-054500
X198500Y-090000
X198500Y-100000
X208500Y-090000
X208500Y-100000
X134500Y-054500
X139500Y-054500
X124500Y-054500
X129500Y-054500
X054750Y-101750
X054750Y-106750
X054750Y-116000
X054750Y-121000
X217750Y-053750
X217750Y-061250
X220250Y-053750
X220250Y-061250
X222750Y-053750
X222750Y-061250
X225250Y-053750
X225250Y-061250
X063500Y-145500
X068500Y-145500
X190250Y-053750
X190250Y-061250
X192750Y-053750
X192750Y-061250
X195250Y-053750
X195250Y-061250
X197750Y-053750
X197750Y-061250
T5
X160000Y-112500
X165000Y-110000
X165000Y-115000
X119750Y-112500
X124750Y-110000
X124750Y-115000
T6
X160000Y-053000
X160000Y-058000
X147500Y-105000
X152500Y-105000
X200000Y-145000
X202750Y-106500
X210750Y-106500
X210750Y-145000
X111250Y-053000
X111250Y-058000
X154500Y-053000
X154500Y-058000
X073500Y-053000
X073500Y-058000
X116750Y-053000
X116750Y-058000
X148250Y-054000
X148250Y-059000
X072000Y-104500
X079500Y-104500
X097500Y-104500
X105000Y-104500
X068000Y-053000
X068000Y-058000
X105000Y-054000
X105000Y-059000
X061750Y-054000
X061750Y-059000
X147500Y-111500
X152500Y-111500
T7
X055000Y-145000
X235000Y-055000
X235000Y-145000
X055000Y-055000
T0
M30
