G04 #@! TF.GenerationSoftware,KiCad,Pcbnew,(5.1.4)-1*
G04 #@! TF.CreationDate,2020-08-16T22:28:13+03:00*
G04 #@! TF.ProjectId,UAH_0,5541485f-302e-46b6-9963-61645f706362,rev?*
G04 #@! TF.SameCoordinates,Original*
G04 #@! TF.FileFunction,Legend,Top*
G04 #@! TF.FilePolarity,Positive*
%FSLAX46Y46*%
G04 Gerber Fmt 4.6, Leading zero omitted, Abs format (unit mm)*
G04 Created by KiCad (PCBNEW (5.1.4)-1) date 2020-08-16 22:28:13*
%MOMM*%
%LPD*%
G04 APERTURE LIST*
%ADD10C,0.150000*%
%ADD11C,0.200000*%
%ADD12C,0.010000*%
G04 APERTURE END LIST*
D10*
X183078571Y-63421428D02*
X183192857Y-63421428D01*
X183250000Y-63450000D01*
X183307142Y-63507142D01*
X183335714Y-63621428D01*
X183335714Y-63821428D01*
X183307142Y-63935714D01*
X183250000Y-63992857D01*
X183192857Y-64021428D01*
X183078571Y-64021428D01*
X183021428Y-63992857D01*
X182964285Y-63935714D01*
X182935714Y-63821428D01*
X182935714Y-63621428D01*
X182964285Y-63507142D01*
X183021428Y-63450000D01*
X183078571Y-63421428D01*
X183592857Y-63421428D02*
X183592857Y-63907142D01*
X183621428Y-63964285D01*
X183650000Y-63992857D01*
X183707142Y-64021428D01*
X183821428Y-64021428D01*
X183878571Y-63992857D01*
X183907142Y-63964285D01*
X183935714Y-63907142D01*
X183935714Y-63421428D01*
X184135714Y-63421428D02*
X184478571Y-63421428D01*
X184307142Y-64021428D02*
X184307142Y-63421428D01*
X184621428Y-63421428D02*
X184992857Y-63421428D01*
X184792857Y-63650000D01*
X184878571Y-63650000D01*
X184935714Y-63678571D01*
X184964285Y-63707142D01*
X184992857Y-63764285D01*
X184992857Y-63907142D01*
X184964285Y-63964285D01*
X184935714Y-63992857D01*
X184878571Y-64021428D01*
X184707142Y-64021428D01*
X184650000Y-63992857D01*
X184621428Y-63964285D01*
X185221428Y-63478571D02*
X185250000Y-63450000D01*
X185307142Y-63421428D01*
X185450000Y-63421428D01*
X185507142Y-63450000D01*
X185535714Y-63478571D01*
X185564285Y-63535714D01*
X185564285Y-63592857D01*
X185535714Y-63678571D01*
X185192857Y-64021428D01*
X185564285Y-64021428D01*
X164328571Y-63421428D02*
X164442857Y-63421428D01*
X164500000Y-63450000D01*
X164557142Y-63507142D01*
X164585714Y-63621428D01*
X164585714Y-63821428D01*
X164557142Y-63935714D01*
X164500000Y-63992857D01*
X164442857Y-64021428D01*
X164328571Y-64021428D01*
X164271428Y-63992857D01*
X164214285Y-63935714D01*
X164185714Y-63821428D01*
X164185714Y-63621428D01*
X164214285Y-63507142D01*
X164271428Y-63450000D01*
X164328571Y-63421428D01*
X164842857Y-63421428D02*
X164842857Y-63907142D01*
X164871428Y-63964285D01*
X164900000Y-63992857D01*
X164957142Y-64021428D01*
X165071428Y-64021428D01*
X165128571Y-63992857D01*
X165157142Y-63964285D01*
X165185714Y-63907142D01*
X165185714Y-63421428D01*
X165385714Y-63421428D02*
X165728571Y-63421428D01*
X165557142Y-64021428D02*
X165557142Y-63421428D01*
X165871428Y-63421428D02*
X166242857Y-63421428D01*
X166042857Y-63650000D01*
X166128571Y-63650000D01*
X166185714Y-63678571D01*
X166214285Y-63707142D01*
X166242857Y-63764285D01*
X166242857Y-63907142D01*
X166214285Y-63964285D01*
X166185714Y-63992857D01*
X166128571Y-64021428D01*
X165957142Y-64021428D01*
X165900000Y-63992857D01*
X165871428Y-63964285D01*
X166814285Y-64021428D02*
X166471428Y-64021428D01*
X166642857Y-64021428D02*
X166642857Y-63421428D01*
X166585714Y-63507142D01*
X166528571Y-63564285D01*
X166471428Y-63592857D01*
X139828571Y-63421428D02*
X139942857Y-63421428D01*
X140000000Y-63450000D01*
X140057142Y-63507142D01*
X140085714Y-63621428D01*
X140085714Y-63821428D01*
X140057142Y-63935714D01*
X140000000Y-63992857D01*
X139942857Y-64021428D01*
X139828571Y-64021428D01*
X139771428Y-63992857D01*
X139714285Y-63935714D01*
X139685714Y-63821428D01*
X139685714Y-63621428D01*
X139714285Y-63507142D01*
X139771428Y-63450000D01*
X139828571Y-63421428D01*
X140342857Y-63421428D02*
X140342857Y-63907142D01*
X140371428Y-63964285D01*
X140400000Y-63992857D01*
X140457142Y-64021428D01*
X140571428Y-64021428D01*
X140628571Y-63992857D01*
X140657142Y-63964285D01*
X140685714Y-63907142D01*
X140685714Y-63421428D01*
X140885714Y-63421428D02*
X141228571Y-63421428D01*
X141057142Y-64021428D02*
X141057142Y-63421428D01*
X141400000Y-63478571D02*
X141428571Y-63450000D01*
X141485714Y-63421428D01*
X141628571Y-63421428D01*
X141685714Y-63450000D01*
X141714285Y-63478571D01*
X141742857Y-63535714D01*
X141742857Y-63592857D01*
X141714285Y-63678571D01*
X141371428Y-64021428D01*
X141742857Y-64021428D01*
X141971428Y-63478571D02*
X142000000Y-63450000D01*
X142057142Y-63421428D01*
X142200000Y-63421428D01*
X142257142Y-63450000D01*
X142285714Y-63478571D01*
X142314285Y-63535714D01*
X142314285Y-63592857D01*
X142285714Y-63678571D01*
X141942857Y-64021428D01*
X142314285Y-64021428D01*
X121078571Y-63421428D02*
X121192857Y-63421428D01*
X121250000Y-63450000D01*
X121307142Y-63507142D01*
X121335714Y-63621428D01*
X121335714Y-63821428D01*
X121307142Y-63935714D01*
X121250000Y-63992857D01*
X121192857Y-64021428D01*
X121078571Y-64021428D01*
X121021428Y-63992857D01*
X120964285Y-63935714D01*
X120935714Y-63821428D01*
X120935714Y-63621428D01*
X120964285Y-63507142D01*
X121021428Y-63450000D01*
X121078571Y-63421428D01*
X121592857Y-63421428D02*
X121592857Y-63907142D01*
X121621428Y-63964285D01*
X121650000Y-63992857D01*
X121707142Y-64021428D01*
X121821428Y-64021428D01*
X121878571Y-63992857D01*
X121907142Y-63964285D01*
X121935714Y-63907142D01*
X121935714Y-63421428D01*
X122135714Y-63421428D02*
X122478571Y-63421428D01*
X122307142Y-64021428D02*
X122307142Y-63421428D01*
X122650000Y-63478571D02*
X122678571Y-63450000D01*
X122735714Y-63421428D01*
X122878571Y-63421428D01*
X122935714Y-63450000D01*
X122964285Y-63478571D01*
X122992857Y-63535714D01*
X122992857Y-63592857D01*
X122964285Y-63678571D01*
X122621428Y-64021428D01*
X122992857Y-64021428D01*
X123564285Y-64021428D02*
X123221428Y-64021428D01*
X123392857Y-64021428D02*
X123392857Y-63421428D01*
X123335714Y-63507142D01*
X123278571Y-63564285D01*
X123221428Y-63592857D01*
X96578571Y-63421428D02*
X96692857Y-63421428D01*
X96750000Y-63450000D01*
X96807142Y-63507142D01*
X96835714Y-63621428D01*
X96835714Y-63821428D01*
X96807142Y-63935714D01*
X96750000Y-63992857D01*
X96692857Y-64021428D01*
X96578571Y-64021428D01*
X96521428Y-63992857D01*
X96464285Y-63935714D01*
X96435714Y-63821428D01*
X96435714Y-63621428D01*
X96464285Y-63507142D01*
X96521428Y-63450000D01*
X96578571Y-63421428D01*
X97092857Y-63421428D02*
X97092857Y-63907142D01*
X97121428Y-63964285D01*
X97150000Y-63992857D01*
X97207142Y-64021428D01*
X97321428Y-64021428D01*
X97378571Y-63992857D01*
X97407142Y-63964285D01*
X97435714Y-63907142D01*
X97435714Y-63421428D01*
X97635714Y-63421428D02*
X97978571Y-63421428D01*
X97807142Y-64021428D02*
X97807142Y-63421428D01*
X98492857Y-64021428D02*
X98150000Y-64021428D01*
X98321428Y-64021428D02*
X98321428Y-63421428D01*
X98264285Y-63507142D01*
X98207142Y-63564285D01*
X98150000Y-63592857D01*
X98721428Y-63478571D02*
X98750000Y-63450000D01*
X98807142Y-63421428D01*
X98950000Y-63421428D01*
X99007142Y-63450000D01*
X99035714Y-63478571D01*
X99064285Y-63535714D01*
X99064285Y-63592857D01*
X99035714Y-63678571D01*
X98692857Y-64021428D01*
X99064285Y-64021428D01*
X77828571Y-63421428D02*
X77942857Y-63421428D01*
X78000000Y-63450000D01*
X78057142Y-63507142D01*
X78085714Y-63621428D01*
X78085714Y-63821428D01*
X78057142Y-63935714D01*
X78000000Y-63992857D01*
X77942857Y-64021428D01*
X77828571Y-64021428D01*
X77771428Y-63992857D01*
X77714285Y-63935714D01*
X77685714Y-63821428D01*
X77685714Y-63621428D01*
X77714285Y-63507142D01*
X77771428Y-63450000D01*
X77828571Y-63421428D01*
X78342857Y-63421428D02*
X78342857Y-63907142D01*
X78371428Y-63964285D01*
X78400000Y-63992857D01*
X78457142Y-64021428D01*
X78571428Y-64021428D01*
X78628571Y-63992857D01*
X78657142Y-63964285D01*
X78685714Y-63907142D01*
X78685714Y-63421428D01*
X78885714Y-63421428D02*
X79228571Y-63421428D01*
X79057142Y-64021428D02*
X79057142Y-63421428D01*
X79742857Y-64021428D02*
X79400000Y-64021428D01*
X79571428Y-64021428D02*
X79571428Y-63421428D01*
X79514285Y-63507142D01*
X79457142Y-63564285D01*
X79400000Y-63592857D01*
X80314285Y-64021428D02*
X79971428Y-64021428D01*
X80142857Y-64021428D02*
X80142857Y-63421428D01*
X80085714Y-63507142D01*
X80028571Y-63564285D01*
X79971428Y-63592857D01*
X143778571Y-106464285D02*
X143750000Y-106492857D01*
X143664285Y-106521428D01*
X143607142Y-106521428D01*
X143521428Y-106492857D01*
X143464285Y-106435714D01*
X143435714Y-106378571D01*
X143407142Y-106264285D01*
X143407142Y-106178571D01*
X143435714Y-106064285D01*
X143464285Y-106007142D01*
X143521428Y-105950000D01*
X143607142Y-105921428D01*
X143664285Y-105921428D01*
X143750000Y-105950000D01*
X143778571Y-105978571D01*
X144150000Y-105921428D02*
X144264285Y-105921428D01*
X144321428Y-105950000D01*
X144378571Y-106007142D01*
X144407142Y-106121428D01*
X144407142Y-106321428D01*
X144378571Y-106435714D01*
X144321428Y-106492857D01*
X144264285Y-106521428D01*
X144150000Y-106521428D01*
X144092857Y-106492857D01*
X144035714Y-106435714D01*
X144007142Y-106321428D01*
X144007142Y-106121428D01*
X144035714Y-106007142D01*
X144092857Y-105950000D01*
X144150000Y-105921428D01*
X144664285Y-106521428D02*
X144664285Y-105921428D01*
X144864285Y-106350000D01*
X145064285Y-105921428D01*
X145064285Y-106521428D01*
X143964285Y-112421428D02*
X144021428Y-112421428D01*
X144078571Y-112450000D01*
X144107142Y-112478571D01*
X144135714Y-112535714D01*
X144164285Y-112650000D01*
X144164285Y-112792857D01*
X144135714Y-112907142D01*
X144107142Y-112964285D01*
X144078571Y-112992857D01*
X144021428Y-113021428D01*
X143964285Y-113021428D01*
X143907142Y-112992857D01*
X143878571Y-112964285D01*
X143850000Y-112907142D01*
X143821428Y-112792857D01*
X143821428Y-112650000D01*
X143850000Y-112535714D01*
X143878571Y-112478571D01*
X143907142Y-112450000D01*
X143964285Y-112421428D01*
X144335714Y-112421428D02*
X144535714Y-113021428D01*
X144735714Y-112421428D01*
X230235714Y-91171428D02*
X230292857Y-91171428D01*
X230350000Y-91200000D01*
X230378571Y-91228571D01*
X230407142Y-91285714D01*
X230435714Y-91400000D01*
X230435714Y-91542857D01*
X230407142Y-91657142D01*
X230378571Y-91714285D01*
X230350000Y-91742857D01*
X230292857Y-91771428D01*
X230235714Y-91771428D01*
X230178571Y-91742857D01*
X230150000Y-91714285D01*
X230121428Y-91657142D01*
X230092857Y-91542857D01*
X230092857Y-91400000D01*
X230121428Y-91285714D01*
X230150000Y-91228571D01*
X230178571Y-91200000D01*
X230235714Y-91171428D01*
X230864285Y-92000000D02*
X230835714Y-91971428D01*
X230778571Y-91885714D01*
X230750000Y-91828571D01*
X230721428Y-91742857D01*
X230692857Y-91600000D01*
X230692857Y-91485714D01*
X230721428Y-91342857D01*
X230750000Y-91257142D01*
X230778571Y-91200000D01*
X230835714Y-91114285D01*
X230864285Y-91085714D01*
X231378571Y-91171428D02*
X231092857Y-91171428D01*
X231064285Y-91457142D01*
X231092857Y-91428571D01*
X231150000Y-91400000D01*
X231292857Y-91400000D01*
X231350000Y-91428571D01*
X231378571Y-91457142D01*
X231407142Y-91514285D01*
X231407142Y-91657142D01*
X231378571Y-91714285D01*
X231350000Y-91742857D01*
X231292857Y-91771428D01*
X231150000Y-91771428D01*
X231092857Y-91742857D01*
X231064285Y-91714285D01*
X231864285Y-91457142D02*
X231950000Y-91485714D01*
X231978571Y-91514285D01*
X232007142Y-91571428D01*
X232007142Y-91657142D01*
X231978571Y-91714285D01*
X231950000Y-91742857D01*
X231892857Y-91771428D01*
X231664285Y-91771428D01*
X231664285Y-91171428D01*
X231864285Y-91171428D01*
X231921428Y-91200000D01*
X231950000Y-91228571D01*
X231978571Y-91285714D01*
X231978571Y-91342857D01*
X231950000Y-91400000D01*
X231921428Y-91428571D01*
X231864285Y-91457142D01*
X231664285Y-91457142D01*
X232207142Y-92000000D02*
X232235714Y-91971428D01*
X232292857Y-91885714D01*
X232321428Y-91828571D01*
X232350000Y-91742857D01*
X232378571Y-91600000D01*
X232378571Y-91485714D01*
X232350000Y-91342857D01*
X232321428Y-91257142D01*
X232292857Y-91200000D01*
X232235714Y-91114285D01*
X232207142Y-91085714D01*
X230235714Y-88671428D02*
X230292857Y-88671428D01*
X230350000Y-88700000D01*
X230378571Y-88728571D01*
X230407142Y-88785714D01*
X230435714Y-88900000D01*
X230435714Y-89042857D01*
X230407142Y-89157142D01*
X230378571Y-89214285D01*
X230350000Y-89242857D01*
X230292857Y-89271428D01*
X230235714Y-89271428D01*
X230178571Y-89242857D01*
X230150000Y-89214285D01*
X230121428Y-89157142D01*
X230092857Y-89042857D01*
X230092857Y-88900000D01*
X230121428Y-88785714D01*
X230150000Y-88728571D01*
X230178571Y-88700000D01*
X230235714Y-88671428D01*
X230864285Y-89500000D02*
X230835714Y-89471428D01*
X230778571Y-89385714D01*
X230750000Y-89328571D01*
X230721428Y-89242857D01*
X230692857Y-89100000D01*
X230692857Y-88985714D01*
X230721428Y-88842857D01*
X230750000Y-88757142D01*
X230778571Y-88700000D01*
X230835714Y-88614285D01*
X230864285Y-88585714D01*
X231378571Y-88671428D02*
X231092857Y-88671428D01*
X231064285Y-88957142D01*
X231092857Y-88928571D01*
X231150000Y-88900000D01*
X231292857Y-88900000D01*
X231350000Y-88928571D01*
X231378571Y-88957142D01*
X231407142Y-89014285D01*
X231407142Y-89157142D01*
X231378571Y-89214285D01*
X231350000Y-89242857D01*
X231292857Y-89271428D01*
X231150000Y-89271428D01*
X231092857Y-89242857D01*
X231064285Y-89214285D01*
X231864285Y-88957142D02*
X231950000Y-88985714D01*
X231978571Y-89014285D01*
X232007142Y-89071428D01*
X232007142Y-89157142D01*
X231978571Y-89214285D01*
X231950000Y-89242857D01*
X231892857Y-89271428D01*
X231664285Y-89271428D01*
X231664285Y-88671428D01*
X231864285Y-88671428D01*
X231921428Y-88700000D01*
X231950000Y-88728571D01*
X231978571Y-88785714D01*
X231978571Y-88842857D01*
X231950000Y-88900000D01*
X231921428Y-88928571D01*
X231864285Y-88957142D01*
X231664285Y-88957142D01*
X232207142Y-89500000D02*
X232235714Y-89471428D01*
X232292857Y-89385714D01*
X232321428Y-89328571D01*
X232350000Y-89242857D01*
X232378571Y-89100000D01*
X232378571Y-88985714D01*
X232350000Y-88842857D01*
X232321428Y-88757142D01*
X232292857Y-88700000D01*
X232235714Y-88614285D01*
X232207142Y-88585714D01*
X229757142Y-84921428D02*
X229471428Y-84921428D01*
X229442857Y-85207142D01*
X229471428Y-85178571D01*
X229528571Y-85150000D01*
X229671428Y-85150000D01*
X229728571Y-85178571D01*
X229757142Y-85207142D01*
X229785714Y-85264285D01*
X229785714Y-85407142D01*
X229757142Y-85464285D01*
X229728571Y-85492857D01*
X229671428Y-85521428D01*
X229528571Y-85521428D01*
X229471428Y-85492857D01*
X229442857Y-85464285D01*
X230242857Y-85207142D02*
X230328571Y-85235714D01*
X230357142Y-85264285D01*
X230385714Y-85321428D01*
X230385714Y-85407142D01*
X230357142Y-85464285D01*
X230328571Y-85492857D01*
X230271428Y-85521428D01*
X230042857Y-85521428D01*
X230042857Y-84921428D01*
X230242857Y-84921428D01*
X230300000Y-84950000D01*
X230328571Y-84978571D01*
X230357142Y-85035714D01*
X230357142Y-85092857D01*
X230328571Y-85150000D01*
X230300000Y-85178571D01*
X230242857Y-85207142D01*
X230042857Y-85207142D01*
X231214285Y-84921428D02*
X231328571Y-84921428D01*
X231385714Y-84950000D01*
X231442857Y-85007142D01*
X231471428Y-85121428D01*
X231471428Y-85321428D01*
X231442857Y-85435714D01*
X231385714Y-85492857D01*
X231328571Y-85521428D01*
X231214285Y-85521428D01*
X231157142Y-85492857D01*
X231100000Y-85435714D01*
X231071428Y-85321428D01*
X231071428Y-85121428D01*
X231100000Y-85007142D01*
X231157142Y-84950000D01*
X231214285Y-84921428D01*
X231728571Y-84921428D02*
X231728571Y-85407142D01*
X231757142Y-85464285D01*
X231785714Y-85492857D01*
X231842857Y-85521428D01*
X231957142Y-85521428D01*
X232014285Y-85492857D01*
X232042857Y-85464285D01*
X232071428Y-85407142D01*
X232071428Y-84921428D01*
X232271428Y-84921428D02*
X232614285Y-84921428D01*
X232442857Y-85521428D02*
X232442857Y-84921428D01*
X229757142Y-82421428D02*
X229471428Y-82421428D01*
X229442857Y-82707142D01*
X229471428Y-82678571D01*
X229528571Y-82650000D01*
X229671428Y-82650000D01*
X229728571Y-82678571D01*
X229757142Y-82707142D01*
X229785714Y-82764285D01*
X229785714Y-82907142D01*
X229757142Y-82964285D01*
X229728571Y-82992857D01*
X229671428Y-83021428D01*
X229528571Y-83021428D01*
X229471428Y-82992857D01*
X229442857Y-82964285D01*
X230242857Y-82707142D02*
X230328571Y-82735714D01*
X230357142Y-82764285D01*
X230385714Y-82821428D01*
X230385714Y-82907142D01*
X230357142Y-82964285D01*
X230328571Y-82992857D01*
X230271428Y-83021428D01*
X230042857Y-83021428D01*
X230042857Y-82421428D01*
X230242857Y-82421428D01*
X230300000Y-82450000D01*
X230328571Y-82478571D01*
X230357142Y-82535714D01*
X230357142Y-82592857D01*
X230328571Y-82650000D01*
X230300000Y-82678571D01*
X230242857Y-82707142D01*
X230042857Y-82707142D01*
X231214285Y-82421428D02*
X231328571Y-82421428D01*
X231385714Y-82450000D01*
X231442857Y-82507142D01*
X231471428Y-82621428D01*
X231471428Y-82821428D01*
X231442857Y-82935714D01*
X231385714Y-82992857D01*
X231328571Y-83021428D01*
X231214285Y-83021428D01*
X231157142Y-82992857D01*
X231100000Y-82935714D01*
X231071428Y-82821428D01*
X231071428Y-82621428D01*
X231100000Y-82507142D01*
X231157142Y-82450000D01*
X231214285Y-82421428D01*
X231728571Y-82421428D02*
X231728571Y-82907142D01*
X231757142Y-82964285D01*
X231785714Y-82992857D01*
X231842857Y-83021428D01*
X231957142Y-83021428D01*
X232014285Y-82992857D01*
X232042857Y-82964285D01*
X232071428Y-82907142D01*
X232071428Y-82421428D01*
X232271428Y-82421428D02*
X232614285Y-82421428D01*
X232442857Y-83021428D02*
X232442857Y-82421428D01*
X229871428Y-62021428D02*
X229871428Y-61421428D01*
X230014285Y-61421428D01*
X230100000Y-61450000D01*
X230157142Y-61507142D01*
X230185714Y-61564285D01*
X230214285Y-61678571D01*
X230214285Y-61764285D01*
X230185714Y-61878571D01*
X230157142Y-61935714D01*
X230100000Y-61992857D01*
X230014285Y-62021428D01*
X229871428Y-62021428D01*
X230471428Y-62021428D02*
X230471428Y-61421428D01*
X230871428Y-61421428D02*
X230985714Y-61421428D01*
X231042857Y-61450000D01*
X231100000Y-61507142D01*
X231128571Y-61621428D01*
X231128571Y-61821428D01*
X231100000Y-61935714D01*
X231042857Y-61992857D01*
X230985714Y-62021428D01*
X230871428Y-62021428D01*
X230814285Y-61992857D01*
X230757142Y-61935714D01*
X230728571Y-61821428D01*
X230728571Y-61621428D01*
X230757142Y-61507142D01*
X230814285Y-61450000D01*
X230871428Y-61421428D01*
X232100000Y-61421428D02*
X231985714Y-61421428D01*
X231928571Y-61450000D01*
X231900000Y-61478571D01*
X231842857Y-61564285D01*
X231814285Y-61678571D01*
X231814285Y-61907142D01*
X231842857Y-61964285D01*
X231871428Y-61992857D01*
X231928571Y-62021428D01*
X232042857Y-62021428D01*
X232100000Y-61992857D01*
X232128571Y-61964285D01*
X232157142Y-61907142D01*
X232157142Y-61764285D01*
X232128571Y-61707142D01*
X232100000Y-61678571D01*
X232042857Y-61650000D01*
X231928571Y-61650000D01*
X231871428Y-61678571D01*
X231842857Y-61707142D01*
X231814285Y-61764285D01*
X229871428Y-64521428D02*
X229871428Y-63921428D01*
X230014285Y-63921428D01*
X230100000Y-63950000D01*
X230157142Y-64007142D01*
X230185714Y-64064285D01*
X230214285Y-64178571D01*
X230214285Y-64264285D01*
X230185714Y-64378571D01*
X230157142Y-64435714D01*
X230100000Y-64492857D01*
X230014285Y-64521428D01*
X229871428Y-64521428D01*
X230471428Y-64521428D02*
X230471428Y-63921428D01*
X230871428Y-63921428D02*
X230985714Y-63921428D01*
X231042857Y-63950000D01*
X231100000Y-64007142D01*
X231128571Y-64121428D01*
X231128571Y-64321428D01*
X231100000Y-64435714D01*
X231042857Y-64492857D01*
X230985714Y-64521428D01*
X230871428Y-64521428D01*
X230814285Y-64492857D01*
X230757142Y-64435714D01*
X230728571Y-64321428D01*
X230728571Y-64121428D01*
X230757142Y-64007142D01*
X230814285Y-63950000D01*
X230871428Y-63921428D01*
X232128571Y-63921428D02*
X231842857Y-63921428D01*
X231814285Y-64207142D01*
X231842857Y-64178571D01*
X231900000Y-64150000D01*
X232042857Y-64150000D01*
X232100000Y-64178571D01*
X232128571Y-64207142D01*
X232157142Y-64264285D01*
X232157142Y-64407142D01*
X232128571Y-64464285D01*
X232100000Y-64492857D01*
X232042857Y-64521428D01*
X231900000Y-64521428D01*
X231842857Y-64492857D01*
X231814285Y-64464285D01*
X229871428Y-68271428D02*
X229871428Y-67671428D01*
X230014285Y-67671428D01*
X230100000Y-67700000D01*
X230157142Y-67757142D01*
X230185714Y-67814285D01*
X230214285Y-67928571D01*
X230214285Y-68014285D01*
X230185714Y-68128571D01*
X230157142Y-68185714D01*
X230100000Y-68242857D01*
X230014285Y-68271428D01*
X229871428Y-68271428D01*
X230471428Y-68271428D02*
X230471428Y-67671428D01*
X230871428Y-67671428D02*
X230985714Y-67671428D01*
X231042857Y-67700000D01*
X231100000Y-67757142D01*
X231128571Y-67871428D01*
X231128571Y-68071428D01*
X231100000Y-68185714D01*
X231042857Y-68242857D01*
X230985714Y-68271428D01*
X230871428Y-68271428D01*
X230814285Y-68242857D01*
X230757142Y-68185714D01*
X230728571Y-68071428D01*
X230728571Y-67871428D01*
X230757142Y-67757142D01*
X230814285Y-67700000D01*
X230871428Y-67671428D01*
X232100000Y-67871428D02*
X232100000Y-68271428D01*
X231957142Y-67642857D02*
X231814285Y-68071428D01*
X232185714Y-68071428D01*
X229871428Y-70771428D02*
X229871428Y-70171428D01*
X230014285Y-70171428D01*
X230100000Y-70200000D01*
X230157142Y-70257142D01*
X230185714Y-70314285D01*
X230214285Y-70428571D01*
X230214285Y-70514285D01*
X230185714Y-70628571D01*
X230157142Y-70685714D01*
X230100000Y-70742857D01*
X230014285Y-70771428D01*
X229871428Y-70771428D01*
X230471428Y-70771428D02*
X230471428Y-70171428D01*
X230871428Y-70171428D02*
X230985714Y-70171428D01*
X231042857Y-70200000D01*
X231100000Y-70257142D01*
X231128571Y-70371428D01*
X231128571Y-70571428D01*
X231100000Y-70685714D01*
X231042857Y-70742857D01*
X230985714Y-70771428D01*
X230871428Y-70771428D01*
X230814285Y-70742857D01*
X230757142Y-70685714D01*
X230728571Y-70571428D01*
X230728571Y-70371428D01*
X230757142Y-70257142D01*
X230814285Y-70200000D01*
X230871428Y-70171428D01*
X231785714Y-70171428D02*
X232157142Y-70171428D01*
X231957142Y-70400000D01*
X232042857Y-70400000D01*
X232100000Y-70428571D01*
X232128571Y-70457142D01*
X232157142Y-70514285D01*
X232157142Y-70657142D01*
X232128571Y-70714285D01*
X232100000Y-70742857D01*
X232042857Y-70771428D01*
X231871428Y-70771428D01*
X231814285Y-70742857D01*
X231785714Y-70714285D01*
X229871428Y-74521428D02*
X229871428Y-73921428D01*
X230014285Y-73921428D01*
X230100000Y-73950000D01*
X230157142Y-74007142D01*
X230185714Y-74064285D01*
X230214285Y-74178571D01*
X230214285Y-74264285D01*
X230185714Y-74378571D01*
X230157142Y-74435714D01*
X230100000Y-74492857D01*
X230014285Y-74521428D01*
X229871428Y-74521428D01*
X230471428Y-74521428D02*
X230471428Y-73921428D01*
X230871428Y-73921428D02*
X230985714Y-73921428D01*
X231042857Y-73950000D01*
X231100000Y-74007142D01*
X231128571Y-74121428D01*
X231128571Y-74321428D01*
X231100000Y-74435714D01*
X231042857Y-74492857D01*
X230985714Y-74521428D01*
X230871428Y-74521428D01*
X230814285Y-74492857D01*
X230757142Y-74435714D01*
X230728571Y-74321428D01*
X230728571Y-74121428D01*
X230757142Y-74007142D01*
X230814285Y-73950000D01*
X230871428Y-73921428D01*
X231814285Y-73978571D02*
X231842857Y-73950000D01*
X231900000Y-73921428D01*
X232042857Y-73921428D01*
X232100000Y-73950000D01*
X232128571Y-73978571D01*
X232157142Y-74035714D01*
X232157142Y-74092857D01*
X232128571Y-74178571D01*
X231785714Y-74521428D01*
X232157142Y-74521428D01*
X229871428Y-77021428D02*
X229871428Y-76421428D01*
X230014285Y-76421428D01*
X230100000Y-76450000D01*
X230157142Y-76507142D01*
X230185714Y-76564285D01*
X230214285Y-76678571D01*
X230214285Y-76764285D01*
X230185714Y-76878571D01*
X230157142Y-76935714D01*
X230100000Y-76992857D01*
X230014285Y-77021428D01*
X229871428Y-77021428D01*
X230471428Y-77021428D02*
X230471428Y-76421428D01*
X230871428Y-76421428D02*
X230985714Y-76421428D01*
X231042857Y-76450000D01*
X231100000Y-76507142D01*
X231128571Y-76621428D01*
X231128571Y-76821428D01*
X231100000Y-76935714D01*
X231042857Y-76992857D01*
X230985714Y-77021428D01*
X230871428Y-77021428D01*
X230814285Y-76992857D01*
X230757142Y-76935714D01*
X230728571Y-76821428D01*
X230728571Y-76621428D01*
X230757142Y-76507142D01*
X230814285Y-76450000D01*
X230871428Y-76421428D01*
X232157142Y-77021428D02*
X231814285Y-77021428D01*
X231985714Y-77021428D02*
X231985714Y-76421428D01*
X231928571Y-76507142D01*
X231871428Y-76564285D01*
X231814285Y-76592857D01*
X182271428Y-63800000D02*
X181671428Y-63800000D01*
X182100000Y-63600000D01*
X181671428Y-63400000D01*
X182271428Y-63400000D01*
X181671428Y-63000000D02*
X181671428Y-62885714D01*
X181700000Y-62828571D01*
X181757142Y-62771428D01*
X181871428Y-62742857D01*
X182071428Y-62742857D01*
X182185714Y-62771428D01*
X182242857Y-62828571D01*
X182271428Y-62885714D01*
X182271428Y-63000000D01*
X182242857Y-63057142D01*
X182185714Y-63114285D01*
X182071428Y-63142857D01*
X181871428Y-63142857D01*
X181757142Y-63114285D01*
X181700000Y-63057142D01*
X181671428Y-63000000D01*
X181671428Y-62571428D02*
X181671428Y-62228571D01*
X182271428Y-62400000D02*
X181671428Y-62400000D01*
X181671428Y-61914285D02*
X181671428Y-61800000D01*
X181700000Y-61742857D01*
X181757142Y-61685714D01*
X181871428Y-61657142D01*
X182071428Y-61657142D01*
X182185714Y-61685714D01*
X182242857Y-61742857D01*
X182271428Y-61800000D01*
X182271428Y-61914285D01*
X182242857Y-61971428D01*
X182185714Y-62028571D01*
X182071428Y-62057142D01*
X181871428Y-62057142D01*
X181757142Y-62028571D01*
X181700000Y-61971428D01*
X181671428Y-61914285D01*
X182271428Y-61057142D02*
X181985714Y-61257142D01*
X182271428Y-61400000D02*
X181671428Y-61400000D01*
X181671428Y-61171428D01*
X181700000Y-61114285D01*
X181728571Y-61085714D01*
X181785714Y-61057142D01*
X181871428Y-61057142D01*
X181928571Y-61085714D01*
X181957142Y-61114285D01*
X181985714Y-61171428D01*
X181985714Y-61400000D01*
X181671428Y-60857142D02*
X181671428Y-60485714D01*
X181900000Y-60685714D01*
X181900000Y-60600000D01*
X181928571Y-60542857D01*
X181957142Y-60514285D01*
X182014285Y-60485714D01*
X182157142Y-60485714D01*
X182214285Y-60514285D01*
X182242857Y-60542857D01*
X182271428Y-60600000D01*
X182271428Y-60771428D01*
X182242857Y-60828571D01*
X182214285Y-60857142D01*
X182042857Y-60228571D02*
X182042857Y-59771428D01*
X181728571Y-59514285D02*
X181700000Y-59485714D01*
X181671428Y-59428571D01*
X181671428Y-59285714D01*
X181700000Y-59228571D01*
X181728571Y-59200000D01*
X181785714Y-59171428D01*
X181842857Y-59171428D01*
X181928571Y-59200000D01*
X182271428Y-59542857D01*
X182271428Y-59171428D01*
X178521428Y-63800000D02*
X177921428Y-63800000D01*
X178350000Y-63600000D01*
X177921428Y-63400000D01*
X178521428Y-63400000D01*
X177921428Y-63000000D02*
X177921428Y-62885714D01*
X177950000Y-62828571D01*
X178007142Y-62771428D01*
X178121428Y-62742857D01*
X178321428Y-62742857D01*
X178435714Y-62771428D01*
X178492857Y-62828571D01*
X178521428Y-62885714D01*
X178521428Y-63000000D01*
X178492857Y-63057142D01*
X178435714Y-63114285D01*
X178321428Y-63142857D01*
X178121428Y-63142857D01*
X178007142Y-63114285D01*
X177950000Y-63057142D01*
X177921428Y-63000000D01*
X177921428Y-62571428D02*
X177921428Y-62228571D01*
X178521428Y-62400000D02*
X177921428Y-62400000D01*
X177921428Y-61914285D02*
X177921428Y-61800000D01*
X177950000Y-61742857D01*
X178007142Y-61685714D01*
X178121428Y-61657142D01*
X178321428Y-61657142D01*
X178435714Y-61685714D01*
X178492857Y-61742857D01*
X178521428Y-61800000D01*
X178521428Y-61914285D01*
X178492857Y-61971428D01*
X178435714Y-62028571D01*
X178321428Y-62057142D01*
X178121428Y-62057142D01*
X178007142Y-62028571D01*
X177950000Y-61971428D01*
X177921428Y-61914285D01*
X178521428Y-61057142D02*
X178235714Y-61257142D01*
X178521428Y-61400000D02*
X177921428Y-61400000D01*
X177921428Y-61171428D01*
X177950000Y-61114285D01*
X177978571Y-61085714D01*
X178035714Y-61057142D01*
X178121428Y-61057142D01*
X178178571Y-61085714D01*
X178207142Y-61114285D01*
X178235714Y-61171428D01*
X178235714Y-61400000D01*
X177921428Y-60857142D02*
X177921428Y-60485714D01*
X178150000Y-60685714D01*
X178150000Y-60600000D01*
X178178571Y-60542857D01*
X178207142Y-60514285D01*
X178264285Y-60485714D01*
X178407142Y-60485714D01*
X178464285Y-60514285D01*
X178492857Y-60542857D01*
X178521428Y-60600000D01*
X178521428Y-60771428D01*
X178492857Y-60828571D01*
X178464285Y-60857142D01*
X178292857Y-60228571D02*
X178292857Y-59771428D01*
X177978571Y-59514285D02*
X177950000Y-59485714D01*
X177921428Y-59428571D01*
X177921428Y-59285714D01*
X177950000Y-59228571D01*
X177978571Y-59200000D01*
X178035714Y-59171428D01*
X178092857Y-59171428D01*
X178178571Y-59200000D01*
X178521428Y-59542857D01*
X178521428Y-59171428D01*
X172271428Y-63800000D02*
X171671428Y-63800000D01*
X172100000Y-63600000D01*
X171671428Y-63400000D01*
X172271428Y-63400000D01*
X171671428Y-63000000D02*
X171671428Y-62885714D01*
X171700000Y-62828571D01*
X171757142Y-62771428D01*
X171871428Y-62742857D01*
X172071428Y-62742857D01*
X172185714Y-62771428D01*
X172242857Y-62828571D01*
X172271428Y-62885714D01*
X172271428Y-63000000D01*
X172242857Y-63057142D01*
X172185714Y-63114285D01*
X172071428Y-63142857D01*
X171871428Y-63142857D01*
X171757142Y-63114285D01*
X171700000Y-63057142D01*
X171671428Y-63000000D01*
X171671428Y-62571428D02*
X171671428Y-62228571D01*
X172271428Y-62400000D02*
X171671428Y-62400000D01*
X171671428Y-61914285D02*
X171671428Y-61800000D01*
X171700000Y-61742857D01*
X171757142Y-61685714D01*
X171871428Y-61657142D01*
X172071428Y-61657142D01*
X172185714Y-61685714D01*
X172242857Y-61742857D01*
X172271428Y-61800000D01*
X172271428Y-61914285D01*
X172242857Y-61971428D01*
X172185714Y-62028571D01*
X172071428Y-62057142D01*
X171871428Y-62057142D01*
X171757142Y-62028571D01*
X171700000Y-61971428D01*
X171671428Y-61914285D01*
X172271428Y-61057142D02*
X171985714Y-61257142D01*
X172271428Y-61400000D02*
X171671428Y-61400000D01*
X171671428Y-61171428D01*
X171700000Y-61114285D01*
X171728571Y-61085714D01*
X171785714Y-61057142D01*
X171871428Y-61057142D01*
X171928571Y-61085714D01*
X171957142Y-61114285D01*
X171985714Y-61171428D01*
X171985714Y-61400000D01*
X171671428Y-60857142D02*
X171671428Y-60485714D01*
X171900000Y-60685714D01*
X171900000Y-60600000D01*
X171928571Y-60542857D01*
X171957142Y-60514285D01*
X172014285Y-60485714D01*
X172157142Y-60485714D01*
X172214285Y-60514285D01*
X172242857Y-60542857D01*
X172271428Y-60600000D01*
X172271428Y-60771428D01*
X172242857Y-60828571D01*
X172214285Y-60857142D01*
X172042857Y-60228571D02*
X172042857Y-59771428D01*
X172271428Y-59171428D02*
X172271428Y-59514285D01*
X172271428Y-59342857D02*
X171671428Y-59342857D01*
X171757142Y-59400000D01*
X171814285Y-59457142D01*
X171842857Y-59514285D01*
X168521428Y-63800000D02*
X167921428Y-63800000D01*
X168350000Y-63600000D01*
X167921428Y-63400000D01*
X168521428Y-63400000D01*
X167921428Y-63000000D02*
X167921428Y-62885714D01*
X167950000Y-62828571D01*
X168007142Y-62771428D01*
X168121428Y-62742857D01*
X168321428Y-62742857D01*
X168435714Y-62771428D01*
X168492857Y-62828571D01*
X168521428Y-62885714D01*
X168521428Y-63000000D01*
X168492857Y-63057142D01*
X168435714Y-63114285D01*
X168321428Y-63142857D01*
X168121428Y-63142857D01*
X168007142Y-63114285D01*
X167950000Y-63057142D01*
X167921428Y-63000000D01*
X167921428Y-62571428D02*
X167921428Y-62228571D01*
X168521428Y-62400000D02*
X167921428Y-62400000D01*
X167921428Y-61914285D02*
X167921428Y-61800000D01*
X167950000Y-61742857D01*
X168007142Y-61685714D01*
X168121428Y-61657142D01*
X168321428Y-61657142D01*
X168435714Y-61685714D01*
X168492857Y-61742857D01*
X168521428Y-61800000D01*
X168521428Y-61914285D01*
X168492857Y-61971428D01*
X168435714Y-62028571D01*
X168321428Y-62057142D01*
X168121428Y-62057142D01*
X168007142Y-62028571D01*
X167950000Y-61971428D01*
X167921428Y-61914285D01*
X168521428Y-61057142D02*
X168235714Y-61257142D01*
X168521428Y-61400000D02*
X167921428Y-61400000D01*
X167921428Y-61171428D01*
X167950000Y-61114285D01*
X167978571Y-61085714D01*
X168035714Y-61057142D01*
X168121428Y-61057142D01*
X168178571Y-61085714D01*
X168207142Y-61114285D01*
X168235714Y-61171428D01*
X168235714Y-61400000D01*
X167921428Y-60857142D02*
X167921428Y-60485714D01*
X168150000Y-60685714D01*
X168150000Y-60600000D01*
X168178571Y-60542857D01*
X168207142Y-60514285D01*
X168264285Y-60485714D01*
X168407142Y-60485714D01*
X168464285Y-60514285D01*
X168492857Y-60542857D01*
X168521428Y-60600000D01*
X168521428Y-60771428D01*
X168492857Y-60828571D01*
X168464285Y-60857142D01*
X168292857Y-60228571D02*
X168292857Y-59771428D01*
X168521428Y-59171428D02*
X168521428Y-59514285D01*
X168521428Y-59342857D02*
X167921428Y-59342857D01*
X168007142Y-59400000D01*
X168064285Y-59457142D01*
X168092857Y-59514285D01*
X139021428Y-63800000D02*
X138421428Y-63800000D01*
X138850000Y-63600000D01*
X138421428Y-63400000D01*
X139021428Y-63400000D01*
X138421428Y-63000000D02*
X138421428Y-62885714D01*
X138450000Y-62828571D01*
X138507142Y-62771428D01*
X138621428Y-62742857D01*
X138821428Y-62742857D01*
X138935714Y-62771428D01*
X138992857Y-62828571D01*
X139021428Y-62885714D01*
X139021428Y-63000000D01*
X138992857Y-63057142D01*
X138935714Y-63114285D01*
X138821428Y-63142857D01*
X138621428Y-63142857D01*
X138507142Y-63114285D01*
X138450000Y-63057142D01*
X138421428Y-63000000D01*
X138421428Y-62571428D02*
X138421428Y-62228571D01*
X139021428Y-62400000D02*
X138421428Y-62400000D01*
X138421428Y-61914285D02*
X138421428Y-61800000D01*
X138450000Y-61742857D01*
X138507142Y-61685714D01*
X138621428Y-61657142D01*
X138821428Y-61657142D01*
X138935714Y-61685714D01*
X138992857Y-61742857D01*
X139021428Y-61800000D01*
X139021428Y-61914285D01*
X138992857Y-61971428D01*
X138935714Y-62028571D01*
X138821428Y-62057142D01*
X138621428Y-62057142D01*
X138507142Y-62028571D01*
X138450000Y-61971428D01*
X138421428Y-61914285D01*
X139021428Y-61057142D02*
X138735714Y-61257142D01*
X139021428Y-61400000D02*
X138421428Y-61400000D01*
X138421428Y-61171428D01*
X138450000Y-61114285D01*
X138478571Y-61085714D01*
X138535714Y-61057142D01*
X138621428Y-61057142D01*
X138678571Y-61085714D01*
X138707142Y-61114285D01*
X138735714Y-61171428D01*
X138735714Y-61400000D01*
X138478571Y-60828571D02*
X138450000Y-60800000D01*
X138421428Y-60742857D01*
X138421428Y-60600000D01*
X138450000Y-60542857D01*
X138478571Y-60514285D01*
X138535714Y-60485714D01*
X138592857Y-60485714D01*
X138678571Y-60514285D01*
X139021428Y-60857142D01*
X139021428Y-60485714D01*
X138792857Y-60228571D02*
X138792857Y-59771428D01*
X138478571Y-59514285D02*
X138450000Y-59485714D01*
X138421428Y-59428571D01*
X138421428Y-59285714D01*
X138450000Y-59228571D01*
X138478571Y-59200000D01*
X138535714Y-59171428D01*
X138592857Y-59171428D01*
X138678571Y-59200000D01*
X139021428Y-59542857D01*
X139021428Y-59171428D01*
X135271428Y-63800000D02*
X134671428Y-63800000D01*
X135100000Y-63600000D01*
X134671428Y-63400000D01*
X135271428Y-63400000D01*
X134671428Y-63000000D02*
X134671428Y-62885714D01*
X134700000Y-62828571D01*
X134757142Y-62771428D01*
X134871428Y-62742857D01*
X135071428Y-62742857D01*
X135185714Y-62771428D01*
X135242857Y-62828571D01*
X135271428Y-62885714D01*
X135271428Y-63000000D01*
X135242857Y-63057142D01*
X135185714Y-63114285D01*
X135071428Y-63142857D01*
X134871428Y-63142857D01*
X134757142Y-63114285D01*
X134700000Y-63057142D01*
X134671428Y-63000000D01*
X134671428Y-62571428D02*
X134671428Y-62228571D01*
X135271428Y-62400000D02*
X134671428Y-62400000D01*
X134671428Y-61914285D02*
X134671428Y-61800000D01*
X134700000Y-61742857D01*
X134757142Y-61685714D01*
X134871428Y-61657142D01*
X135071428Y-61657142D01*
X135185714Y-61685714D01*
X135242857Y-61742857D01*
X135271428Y-61800000D01*
X135271428Y-61914285D01*
X135242857Y-61971428D01*
X135185714Y-62028571D01*
X135071428Y-62057142D01*
X134871428Y-62057142D01*
X134757142Y-62028571D01*
X134700000Y-61971428D01*
X134671428Y-61914285D01*
X135271428Y-61057142D02*
X134985714Y-61257142D01*
X135271428Y-61400000D02*
X134671428Y-61400000D01*
X134671428Y-61171428D01*
X134700000Y-61114285D01*
X134728571Y-61085714D01*
X134785714Y-61057142D01*
X134871428Y-61057142D01*
X134928571Y-61085714D01*
X134957142Y-61114285D01*
X134985714Y-61171428D01*
X134985714Y-61400000D01*
X134728571Y-60828571D02*
X134700000Y-60800000D01*
X134671428Y-60742857D01*
X134671428Y-60600000D01*
X134700000Y-60542857D01*
X134728571Y-60514285D01*
X134785714Y-60485714D01*
X134842857Y-60485714D01*
X134928571Y-60514285D01*
X135271428Y-60857142D01*
X135271428Y-60485714D01*
X135042857Y-60228571D02*
X135042857Y-59771428D01*
X134728571Y-59514285D02*
X134700000Y-59485714D01*
X134671428Y-59428571D01*
X134671428Y-59285714D01*
X134700000Y-59228571D01*
X134728571Y-59200000D01*
X134785714Y-59171428D01*
X134842857Y-59171428D01*
X134928571Y-59200000D01*
X135271428Y-59542857D01*
X135271428Y-59171428D01*
X129021428Y-63800000D02*
X128421428Y-63800000D01*
X128850000Y-63600000D01*
X128421428Y-63400000D01*
X129021428Y-63400000D01*
X128421428Y-63000000D02*
X128421428Y-62885714D01*
X128450000Y-62828571D01*
X128507142Y-62771428D01*
X128621428Y-62742857D01*
X128821428Y-62742857D01*
X128935714Y-62771428D01*
X128992857Y-62828571D01*
X129021428Y-62885714D01*
X129021428Y-63000000D01*
X128992857Y-63057142D01*
X128935714Y-63114285D01*
X128821428Y-63142857D01*
X128621428Y-63142857D01*
X128507142Y-63114285D01*
X128450000Y-63057142D01*
X128421428Y-63000000D01*
X128421428Y-62571428D02*
X128421428Y-62228571D01*
X129021428Y-62400000D02*
X128421428Y-62400000D01*
X128421428Y-61914285D02*
X128421428Y-61800000D01*
X128450000Y-61742857D01*
X128507142Y-61685714D01*
X128621428Y-61657142D01*
X128821428Y-61657142D01*
X128935714Y-61685714D01*
X128992857Y-61742857D01*
X129021428Y-61800000D01*
X129021428Y-61914285D01*
X128992857Y-61971428D01*
X128935714Y-62028571D01*
X128821428Y-62057142D01*
X128621428Y-62057142D01*
X128507142Y-62028571D01*
X128450000Y-61971428D01*
X128421428Y-61914285D01*
X129021428Y-61057142D02*
X128735714Y-61257142D01*
X129021428Y-61400000D02*
X128421428Y-61400000D01*
X128421428Y-61171428D01*
X128450000Y-61114285D01*
X128478571Y-61085714D01*
X128535714Y-61057142D01*
X128621428Y-61057142D01*
X128678571Y-61085714D01*
X128707142Y-61114285D01*
X128735714Y-61171428D01*
X128735714Y-61400000D01*
X128478571Y-60828571D02*
X128450000Y-60800000D01*
X128421428Y-60742857D01*
X128421428Y-60600000D01*
X128450000Y-60542857D01*
X128478571Y-60514285D01*
X128535714Y-60485714D01*
X128592857Y-60485714D01*
X128678571Y-60514285D01*
X129021428Y-60857142D01*
X129021428Y-60485714D01*
X128792857Y-60228571D02*
X128792857Y-59771428D01*
X129021428Y-59171428D02*
X129021428Y-59514285D01*
X129021428Y-59342857D02*
X128421428Y-59342857D01*
X128507142Y-59400000D01*
X128564285Y-59457142D01*
X128592857Y-59514285D01*
X125271428Y-63800000D02*
X124671428Y-63800000D01*
X125100000Y-63600000D01*
X124671428Y-63400000D01*
X125271428Y-63400000D01*
X124671428Y-63000000D02*
X124671428Y-62885714D01*
X124700000Y-62828571D01*
X124757142Y-62771428D01*
X124871428Y-62742857D01*
X125071428Y-62742857D01*
X125185714Y-62771428D01*
X125242857Y-62828571D01*
X125271428Y-62885714D01*
X125271428Y-63000000D01*
X125242857Y-63057142D01*
X125185714Y-63114285D01*
X125071428Y-63142857D01*
X124871428Y-63142857D01*
X124757142Y-63114285D01*
X124700000Y-63057142D01*
X124671428Y-63000000D01*
X124671428Y-62571428D02*
X124671428Y-62228571D01*
X125271428Y-62400000D02*
X124671428Y-62400000D01*
X124671428Y-61914285D02*
X124671428Y-61800000D01*
X124700000Y-61742857D01*
X124757142Y-61685714D01*
X124871428Y-61657142D01*
X125071428Y-61657142D01*
X125185714Y-61685714D01*
X125242857Y-61742857D01*
X125271428Y-61800000D01*
X125271428Y-61914285D01*
X125242857Y-61971428D01*
X125185714Y-62028571D01*
X125071428Y-62057142D01*
X124871428Y-62057142D01*
X124757142Y-62028571D01*
X124700000Y-61971428D01*
X124671428Y-61914285D01*
X125271428Y-61057142D02*
X124985714Y-61257142D01*
X125271428Y-61400000D02*
X124671428Y-61400000D01*
X124671428Y-61171428D01*
X124700000Y-61114285D01*
X124728571Y-61085714D01*
X124785714Y-61057142D01*
X124871428Y-61057142D01*
X124928571Y-61085714D01*
X124957142Y-61114285D01*
X124985714Y-61171428D01*
X124985714Y-61400000D01*
X124728571Y-60828571D02*
X124700000Y-60800000D01*
X124671428Y-60742857D01*
X124671428Y-60600000D01*
X124700000Y-60542857D01*
X124728571Y-60514285D01*
X124785714Y-60485714D01*
X124842857Y-60485714D01*
X124928571Y-60514285D01*
X125271428Y-60857142D01*
X125271428Y-60485714D01*
X125042857Y-60228571D02*
X125042857Y-59771428D01*
X125271428Y-59171428D02*
X125271428Y-59514285D01*
X125271428Y-59342857D02*
X124671428Y-59342857D01*
X124757142Y-59400000D01*
X124814285Y-59457142D01*
X124842857Y-59514285D01*
X95771428Y-64050000D02*
X95171428Y-64050000D01*
X95600000Y-63850000D01*
X95171428Y-63650000D01*
X95771428Y-63650000D01*
X95171428Y-63250000D02*
X95171428Y-63135714D01*
X95200000Y-63078571D01*
X95257142Y-63021428D01*
X95371428Y-62992857D01*
X95571428Y-62992857D01*
X95685714Y-63021428D01*
X95742857Y-63078571D01*
X95771428Y-63135714D01*
X95771428Y-63250000D01*
X95742857Y-63307142D01*
X95685714Y-63364285D01*
X95571428Y-63392857D01*
X95371428Y-63392857D01*
X95257142Y-63364285D01*
X95200000Y-63307142D01*
X95171428Y-63250000D01*
X95171428Y-62821428D02*
X95171428Y-62478571D01*
X95771428Y-62650000D02*
X95171428Y-62650000D01*
X95171428Y-62164285D02*
X95171428Y-62050000D01*
X95200000Y-61992857D01*
X95257142Y-61935714D01*
X95371428Y-61907142D01*
X95571428Y-61907142D01*
X95685714Y-61935714D01*
X95742857Y-61992857D01*
X95771428Y-62050000D01*
X95771428Y-62164285D01*
X95742857Y-62221428D01*
X95685714Y-62278571D01*
X95571428Y-62307142D01*
X95371428Y-62307142D01*
X95257142Y-62278571D01*
X95200000Y-62221428D01*
X95171428Y-62164285D01*
X95771428Y-61307142D02*
X95485714Y-61507142D01*
X95771428Y-61650000D02*
X95171428Y-61650000D01*
X95171428Y-61421428D01*
X95200000Y-61364285D01*
X95228571Y-61335714D01*
X95285714Y-61307142D01*
X95371428Y-61307142D01*
X95428571Y-61335714D01*
X95457142Y-61364285D01*
X95485714Y-61421428D01*
X95485714Y-61650000D01*
X95771428Y-60735714D02*
X95771428Y-61078571D01*
X95771428Y-60907142D02*
X95171428Y-60907142D01*
X95257142Y-60964285D01*
X95314285Y-61021428D01*
X95342857Y-61078571D01*
X95542857Y-60478571D02*
X95542857Y-60021428D01*
X95228571Y-59764285D02*
X95200000Y-59735714D01*
X95171428Y-59678571D01*
X95171428Y-59535714D01*
X95200000Y-59478571D01*
X95228571Y-59450000D01*
X95285714Y-59421428D01*
X95342857Y-59421428D01*
X95428571Y-59450000D01*
X95771428Y-59792857D01*
X95771428Y-59421428D01*
X92021428Y-64050000D02*
X91421428Y-64050000D01*
X91850000Y-63850000D01*
X91421428Y-63650000D01*
X92021428Y-63650000D01*
X91421428Y-63250000D02*
X91421428Y-63135714D01*
X91450000Y-63078571D01*
X91507142Y-63021428D01*
X91621428Y-62992857D01*
X91821428Y-62992857D01*
X91935714Y-63021428D01*
X91992857Y-63078571D01*
X92021428Y-63135714D01*
X92021428Y-63250000D01*
X91992857Y-63307142D01*
X91935714Y-63364285D01*
X91821428Y-63392857D01*
X91621428Y-63392857D01*
X91507142Y-63364285D01*
X91450000Y-63307142D01*
X91421428Y-63250000D01*
X91421428Y-62821428D02*
X91421428Y-62478571D01*
X92021428Y-62650000D02*
X91421428Y-62650000D01*
X91421428Y-62164285D02*
X91421428Y-62050000D01*
X91450000Y-61992857D01*
X91507142Y-61935714D01*
X91621428Y-61907142D01*
X91821428Y-61907142D01*
X91935714Y-61935714D01*
X91992857Y-61992857D01*
X92021428Y-62050000D01*
X92021428Y-62164285D01*
X91992857Y-62221428D01*
X91935714Y-62278571D01*
X91821428Y-62307142D01*
X91621428Y-62307142D01*
X91507142Y-62278571D01*
X91450000Y-62221428D01*
X91421428Y-62164285D01*
X92021428Y-61307142D02*
X91735714Y-61507142D01*
X92021428Y-61650000D02*
X91421428Y-61650000D01*
X91421428Y-61421428D01*
X91450000Y-61364285D01*
X91478571Y-61335714D01*
X91535714Y-61307142D01*
X91621428Y-61307142D01*
X91678571Y-61335714D01*
X91707142Y-61364285D01*
X91735714Y-61421428D01*
X91735714Y-61650000D01*
X92021428Y-60735714D02*
X92021428Y-61078571D01*
X92021428Y-60907142D02*
X91421428Y-60907142D01*
X91507142Y-60964285D01*
X91564285Y-61021428D01*
X91592857Y-61078571D01*
X91792857Y-60478571D02*
X91792857Y-60021428D01*
X91478571Y-59764285D02*
X91450000Y-59735714D01*
X91421428Y-59678571D01*
X91421428Y-59535714D01*
X91450000Y-59478571D01*
X91478571Y-59450000D01*
X91535714Y-59421428D01*
X91592857Y-59421428D01*
X91678571Y-59450000D01*
X92021428Y-59792857D01*
X92021428Y-59421428D01*
X85771428Y-63800000D02*
X85171428Y-63800000D01*
X85600000Y-63600000D01*
X85171428Y-63400000D01*
X85771428Y-63400000D01*
X85171428Y-63000000D02*
X85171428Y-62885714D01*
X85200000Y-62828571D01*
X85257142Y-62771428D01*
X85371428Y-62742857D01*
X85571428Y-62742857D01*
X85685714Y-62771428D01*
X85742857Y-62828571D01*
X85771428Y-62885714D01*
X85771428Y-63000000D01*
X85742857Y-63057142D01*
X85685714Y-63114285D01*
X85571428Y-63142857D01*
X85371428Y-63142857D01*
X85257142Y-63114285D01*
X85200000Y-63057142D01*
X85171428Y-63000000D01*
X85171428Y-62571428D02*
X85171428Y-62228571D01*
X85771428Y-62400000D02*
X85171428Y-62400000D01*
X85171428Y-61914285D02*
X85171428Y-61800000D01*
X85200000Y-61742857D01*
X85257142Y-61685714D01*
X85371428Y-61657142D01*
X85571428Y-61657142D01*
X85685714Y-61685714D01*
X85742857Y-61742857D01*
X85771428Y-61800000D01*
X85771428Y-61914285D01*
X85742857Y-61971428D01*
X85685714Y-62028571D01*
X85571428Y-62057142D01*
X85371428Y-62057142D01*
X85257142Y-62028571D01*
X85200000Y-61971428D01*
X85171428Y-61914285D01*
X85771428Y-61057142D02*
X85485714Y-61257142D01*
X85771428Y-61400000D02*
X85171428Y-61400000D01*
X85171428Y-61171428D01*
X85200000Y-61114285D01*
X85228571Y-61085714D01*
X85285714Y-61057142D01*
X85371428Y-61057142D01*
X85428571Y-61085714D01*
X85457142Y-61114285D01*
X85485714Y-61171428D01*
X85485714Y-61400000D01*
X85771428Y-60485714D02*
X85771428Y-60828571D01*
X85771428Y-60657142D02*
X85171428Y-60657142D01*
X85257142Y-60714285D01*
X85314285Y-60771428D01*
X85342857Y-60828571D01*
X85542857Y-60228571D02*
X85542857Y-59771428D01*
X85771428Y-59171428D02*
X85771428Y-59514285D01*
X85771428Y-59342857D02*
X85171428Y-59342857D01*
X85257142Y-59400000D01*
X85314285Y-59457142D01*
X85342857Y-59514285D01*
X82021428Y-63800000D02*
X81421428Y-63800000D01*
X81850000Y-63600000D01*
X81421428Y-63400000D01*
X82021428Y-63400000D01*
X81421428Y-63000000D02*
X81421428Y-62885714D01*
X81450000Y-62828571D01*
X81507142Y-62771428D01*
X81621428Y-62742857D01*
X81821428Y-62742857D01*
X81935714Y-62771428D01*
X81992857Y-62828571D01*
X82021428Y-62885714D01*
X82021428Y-63000000D01*
X81992857Y-63057142D01*
X81935714Y-63114285D01*
X81821428Y-63142857D01*
X81621428Y-63142857D01*
X81507142Y-63114285D01*
X81450000Y-63057142D01*
X81421428Y-63000000D01*
X81421428Y-62571428D02*
X81421428Y-62228571D01*
X82021428Y-62400000D02*
X81421428Y-62400000D01*
X81421428Y-61914285D02*
X81421428Y-61800000D01*
X81450000Y-61742857D01*
X81507142Y-61685714D01*
X81621428Y-61657142D01*
X81821428Y-61657142D01*
X81935714Y-61685714D01*
X81992857Y-61742857D01*
X82021428Y-61800000D01*
X82021428Y-61914285D01*
X81992857Y-61971428D01*
X81935714Y-62028571D01*
X81821428Y-62057142D01*
X81621428Y-62057142D01*
X81507142Y-62028571D01*
X81450000Y-61971428D01*
X81421428Y-61914285D01*
X82021428Y-61057142D02*
X81735714Y-61257142D01*
X82021428Y-61400000D02*
X81421428Y-61400000D01*
X81421428Y-61171428D01*
X81450000Y-61114285D01*
X81478571Y-61085714D01*
X81535714Y-61057142D01*
X81621428Y-61057142D01*
X81678571Y-61085714D01*
X81707142Y-61114285D01*
X81735714Y-61171428D01*
X81735714Y-61400000D01*
X82021428Y-60485714D02*
X82021428Y-60828571D01*
X82021428Y-60657142D02*
X81421428Y-60657142D01*
X81507142Y-60714285D01*
X81564285Y-60771428D01*
X81592857Y-60828571D01*
X81792857Y-60228571D02*
X81792857Y-59771428D01*
X82021428Y-59171428D02*
X82021428Y-59514285D01*
X82021428Y-59342857D02*
X81421428Y-59342857D01*
X81507142Y-59400000D01*
X81564285Y-59457142D01*
X81592857Y-59514285D01*
X102478571Y-140735714D02*
X102450000Y-140707142D01*
X102421428Y-140650000D01*
X102421428Y-140507142D01*
X102450000Y-140450000D01*
X102478571Y-140421428D01*
X102535714Y-140392857D01*
X102592857Y-140392857D01*
X102678571Y-140421428D01*
X103021428Y-140764285D01*
X103021428Y-140392857D01*
X102478571Y-140164285D02*
X102450000Y-140135714D01*
X102421428Y-140078571D01*
X102421428Y-139935714D01*
X102450000Y-139878571D01*
X102478571Y-139850000D01*
X102535714Y-139821428D01*
X102592857Y-139821428D01*
X102678571Y-139850000D01*
X103021428Y-140192857D01*
X103021428Y-139821428D01*
X102421428Y-139450000D02*
X102421428Y-139392857D01*
X102450000Y-139335714D01*
X102478571Y-139307142D01*
X102535714Y-139278571D01*
X102650000Y-139250000D01*
X102792857Y-139250000D01*
X102907142Y-139278571D01*
X102964285Y-139307142D01*
X102992857Y-139335714D01*
X103021428Y-139392857D01*
X103021428Y-139450000D01*
X102992857Y-139507142D01*
X102964285Y-139535714D01*
X102907142Y-139564285D01*
X102792857Y-139592857D01*
X102650000Y-139592857D01*
X102535714Y-139564285D01*
X102478571Y-139535714D01*
X102450000Y-139507142D01*
X102421428Y-139450000D01*
X102707142Y-138792857D02*
X102735714Y-138707142D01*
X102764285Y-138678571D01*
X102821428Y-138650000D01*
X102907142Y-138650000D01*
X102964285Y-138678571D01*
X102992857Y-138707142D01*
X103021428Y-138764285D01*
X103021428Y-138992857D01*
X102421428Y-138992857D01*
X102421428Y-138792857D01*
X102450000Y-138735714D01*
X102478571Y-138707142D01*
X102535714Y-138678571D01*
X102592857Y-138678571D01*
X102650000Y-138707142D01*
X102678571Y-138735714D01*
X102707142Y-138792857D01*
X102707142Y-138992857D01*
X103250000Y-137764285D02*
X103221428Y-137792857D01*
X103135714Y-137850000D01*
X103078571Y-137878571D01*
X102992857Y-137907142D01*
X102850000Y-137935714D01*
X102735714Y-137935714D01*
X102592857Y-137907142D01*
X102507142Y-137878571D01*
X102450000Y-137850000D01*
X102364285Y-137792857D01*
X102335714Y-137764285D01*
X103021428Y-137535714D02*
X102421428Y-137535714D01*
X103021428Y-137192857D01*
X102421428Y-137192857D01*
X103250000Y-136964285D02*
X103221428Y-136935714D01*
X103135714Y-136878571D01*
X103078571Y-136850000D01*
X102992857Y-136821428D01*
X102850000Y-136792857D01*
X102735714Y-136792857D01*
X102592857Y-136821428D01*
X102507142Y-136850000D01*
X102450000Y-136878571D01*
X102364285Y-136935714D01*
X102335714Y-136964285D01*
X97478571Y-140664285D02*
X97450000Y-140635714D01*
X97421428Y-140578571D01*
X97421428Y-140435714D01*
X97450000Y-140378571D01*
X97478571Y-140350000D01*
X97535714Y-140321428D01*
X97592857Y-140321428D01*
X97678571Y-140350000D01*
X98021428Y-140692857D01*
X98021428Y-140321428D01*
X97478571Y-140092857D02*
X97450000Y-140064285D01*
X97421428Y-140007142D01*
X97421428Y-139864285D01*
X97450000Y-139807142D01*
X97478571Y-139778571D01*
X97535714Y-139750000D01*
X97592857Y-139750000D01*
X97678571Y-139778571D01*
X98021428Y-140121428D01*
X98021428Y-139750000D01*
X97421428Y-139378571D02*
X97421428Y-139321428D01*
X97450000Y-139264285D01*
X97478571Y-139235714D01*
X97535714Y-139207142D01*
X97650000Y-139178571D01*
X97792857Y-139178571D01*
X97907142Y-139207142D01*
X97964285Y-139235714D01*
X97992857Y-139264285D01*
X98021428Y-139321428D01*
X98021428Y-139378571D01*
X97992857Y-139435714D01*
X97964285Y-139464285D01*
X97907142Y-139492857D01*
X97792857Y-139521428D01*
X97650000Y-139521428D01*
X97535714Y-139492857D01*
X97478571Y-139464285D01*
X97450000Y-139435714D01*
X97421428Y-139378571D01*
X97707142Y-138721428D02*
X97735714Y-138635714D01*
X97764285Y-138607142D01*
X97821428Y-138578571D01*
X97907142Y-138578571D01*
X97964285Y-138607142D01*
X97992857Y-138635714D01*
X98021428Y-138692857D01*
X98021428Y-138921428D01*
X97421428Y-138921428D01*
X97421428Y-138721428D01*
X97450000Y-138664285D01*
X97478571Y-138635714D01*
X97535714Y-138607142D01*
X97592857Y-138607142D01*
X97650000Y-138635714D01*
X97678571Y-138664285D01*
X97707142Y-138721428D01*
X97707142Y-138921428D01*
X98250000Y-137692857D02*
X98221428Y-137721428D01*
X98135714Y-137778571D01*
X98078571Y-137807142D01*
X97992857Y-137835714D01*
X97850000Y-137864285D01*
X97735714Y-137864285D01*
X97592857Y-137835714D01*
X97507142Y-137807142D01*
X97450000Y-137778571D01*
X97364285Y-137721428D01*
X97335714Y-137692857D01*
X98021428Y-137178571D02*
X98021428Y-137464285D01*
X97421428Y-137464285D01*
X98250000Y-137035714D02*
X98221428Y-137007142D01*
X98135714Y-136950000D01*
X98078571Y-136921428D01*
X97992857Y-136892857D01*
X97850000Y-136864285D01*
X97735714Y-136864285D01*
X97592857Y-136892857D01*
X97507142Y-136921428D01*
X97450000Y-136950000D01*
X97364285Y-137007142D01*
X97335714Y-137035714D01*
X69021428Y-140771428D02*
X68421428Y-140771428D01*
X68707142Y-140771428D02*
X68707142Y-140428571D01*
X69021428Y-140428571D02*
X68421428Y-140428571D01*
X68850000Y-140171428D02*
X68850000Y-139885714D01*
X69021428Y-140228571D02*
X68421428Y-140028571D01*
X69021428Y-139828571D01*
X69021428Y-139628571D02*
X68421428Y-139628571D01*
X68421428Y-139314285D01*
X69021428Y-139114285D02*
X68421428Y-139114285D01*
X68421428Y-138885714D01*
X68450000Y-138828571D01*
X68478571Y-138800000D01*
X68535714Y-138771428D01*
X68621428Y-138771428D01*
X68678571Y-138800000D01*
X68707142Y-138828571D01*
X68735714Y-138885714D01*
X68735714Y-139114285D01*
X68707142Y-138514285D02*
X68707142Y-138314285D01*
X69021428Y-138228571D02*
X69021428Y-138514285D01*
X68421428Y-138514285D01*
X68421428Y-138228571D01*
X68707142Y-137771428D02*
X68735714Y-137685714D01*
X68764285Y-137657142D01*
X68821428Y-137628571D01*
X68907142Y-137628571D01*
X68964285Y-137657142D01*
X68992857Y-137685714D01*
X69021428Y-137742857D01*
X69021428Y-137971428D01*
X68421428Y-137971428D01*
X68421428Y-137771428D01*
X68450000Y-137714285D01*
X68478571Y-137685714D01*
X68535714Y-137657142D01*
X68592857Y-137657142D01*
X68650000Y-137685714D01*
X68678571Y-137714285D01*
X68707142Y-137771428D01*
X68707142Y-137971428D01*
X69250000Y-136742857D02*
X69221428Y-136771428D01*
X69135714Y-136828571D01*
X69078571Y-136857142D01*
X68992857Y-136885714D01*
X68850000Y-136914285D01*
X68735714Y-136914285D01*
X68592857Y-136885714D01*
X68507142Y-136857142D01*
X68450000Y-136828571D01*
X68364285Y-136771428D01*
X68335714Y-136742857D01*
X68421428Y-136400000D02*
X68421428Y-136342857D01*
X68450000Y-136285714D01*
X68478571Y-136257142D01*
X68535714Y-136228571D01*
X68650000Y-136200000D01*
X68792857Y-136200000D01*
X68907142Y-136228571D01*
X68964285Y-136257142D01*
X68992857Y-136285714D01*
X69021428Y-136342857D01*
X69021428Y-136400000D01*
X68992857Y-136457142D01*
X68964285Y-136485714D01*
X68907142Y-136514285D01*
X68792857Y-136542857D01*
X68650000Y-136542857D01*
X68535714Y-136514285D01*
X68478571Y-136485714D01*
X68450000Y-136457142D01*
X68421428Y-136400000D01*
X68707142Y-135742857D02*
X68735714Y-135657142D01*
X68764285Y-135628571D01*
X68821428Y-135600000D01*
X68907142Y-135600000D01*
X68964285Y-135628571D01*
X68992857Y-135657142D01*
X69021428Y-135714285D01*
X69021428Y-135942857D01*
X68421428Y-135942857D01*
X68421428Y-135742857D01*
X68450000Y-135685714D01*
X68478571Y-135657142D01*
X68535714Y-135628571D01*
X68592857Y-135628571D01*
X68650000Y-135657142D01*
X68678571Y-135685714D01*
X68707142Y-135742857D01*
X68707142Y-135942857D01*
X69250000Y-135400000D02*
X69221428Y-135371428D01*
X69135714Y-135314285D01*
X69078571Y-135285714D01*
X68992857Y-135257142D01*
X68850000Y-135228571D01*
X68735714Y-135228571D01*
X68592857Y-135257142D01*
X68507142Y-135285714D01*
X68450000Y-135314285D01*
X68364285Y-135371428D01*
X68335714Y-135400000D01*
X64021428Y-140771428D02*
X63421428Y-140771428D01*
X63707142Y-140771428D02*
X63707142Y-140428571D01*
X64021428Y-140428571D02*
X63421428Y-140428571D01*
X63850000Y-140171428D02*
X63850000Y-139885714D01*
X64021428Y-140228571D02*
X63421428Y-140028571D01*
X64021428Y-139828571D01*
X64021428Y-139628571D02*
X63421428Y-139628571D01*
X63421428Y-139314285D01*
X64021428Y-139114285D02*
X63421428Y-139114285D01*
X63421428Y-138885714D01*
X63450000Y-138828571D01*
X63478571Y-138800000D01*
X63535714Y-138771428D01*
X63621428Y-138771428D01*
X63678571Y-138800000D01*
X63707142Y-138828571D01*
X63735714Y-138885714D01*
X63735714Y-139114285D01*
X63707142Y-138514285D02*
X63707142Y-138314285D01*
X64021428Y-138228571D02*
X64021428Y-138514285D01*
X63421428Y-138514285D01*
X63421428Y-138228571D01*
X63707142Y-137771428D02*
X63735714Y-137685714D01*
X63764285Y-137657142D01*
X63821428Y-137628571D01*
X63907142Y-137628571D01*
X63964285Y-137657142D01*
X63992857Y-137685714D01*
X64021428Y-137742857D01*
X64021428Y-137971428D01*
X63421428Y-137971428D01*
X63421428Y-137771428D01*
X63450000Y-137714285D01*
X63478571Y-137685714D01*
X63535714Y-137657142D01*
X63592857Y-137657142D01*
X63650000Y-137685714D01*
X63678571Y-137714285D01*
X63707142Y-137771428D01*
X63707142Y-137971428D01*
X64250000Y-136742857D02*
X64221428Y-136771428D01*
X64135714Y-136828571D01*
X64078571Y-136857142D01*
X63992857Y-136885714D01*
X63850000Y-136914285D01*
X63735714Y-136914285D01*
X63592857Y-136885714D01*
X63507142Y-136857142D01*
X63450000Y-136828571D01*
X63364285Y-136771428D01*
X63335714Y-136742857D01*
X63421428Y-136400000D02*
X63421428Y-136342857D01*
X63450000Y-136285714D01*
X63478571Y-136257142D01*
X63535714Y-136228571D01*
X63650000Y-136200000D01*
X63792857Y-136200000D01*
X63907142Y-136228571D01*
X63964285Y-136257142D01*
X63992857Y-136285714D01*
X64021428Y-136342857D01*
X64021428Y-136400000D01*
X63992857Y-136457142D01*
X63964285Y-136485714D01*
X63907142Y-136514285D01*
X63792857Y-136542857D01*
X63650000Y-136542857D01*
X63535714Y-136514285D01*
X63478571Y-136485714D01*
X63450000Y-136457142D01*
X63421428Y-136400000D01*
X63707142Y-135742857D02*
X63735714Y-135657142D01*
X63764285Y-135628571D01*
X63821428Y-135600000D01*
X63907142Y-135600000D01*
X63964285Y-135628571D01*
X63992857Y-135657142D01*
X64021428Y-135714285D01*
X64021428Y-135942857D01*
X63421428Y-135942857D01*
X63421428Y-135742857D01*
X63450000Y-135685714D01*
X63478571Y-135657142D01*
X63535714Y-135628571D01*
X63592857Y-135628571D01*
X63650000Y-135657142D01*
X63678571Y-135685714D01*
X63707142Y-135742857D01*
X63707142Y-135942857D01*
X64250000Y-135400000D02*
X64221428Y-135371428D01*
X64135714Y-135314285D01*
X64078571Y-135285714D01*
X63992857Y-135257142D01*
X63850000Y-135228571D01*
X63735714Y-135228571D01*
X63592857Y-135257142D01*
X63507142Y-135285714D01*
X63450000Y-135314285D01*
X63364285Y-135371428D01*
X63335714Y-135400000D01*
X82521428Y-140500000D02*
X82521428Y-140842857D01*
X82521428Y-140671428D02*
X81921428Y-140671428D01*
X82007142Y-140728571D01*
X82064285Y-140785714D01*
X82092857Y-140842857D01*
X81978571Y-140271428D02*
X81950000Y-140242857D01*
X81921428Y-140185714D01*
X81921428Y-140042857D01*
X81950000Y-139985714D01*
X81978571Y-139957142D01*
X82035714Y-139928571D01*
X82092857Y-139928571D01*
X82178571Y-139957142D01*
X82521428Y-140300000D01*
X82521428Y-139928571D01*
X82207142Y-139471428D02*
X82235714Y-139385714D01*
X82264285Y-139357142D01*
X82321428Y-139328571D01*
X82407142Y-139328571D01*
X82464285Y-139357142D01*
X82492857Y-139385714D01*
X82521428Y-139442857D01*
X82521428Y-139671428D01*
X81921428Y-139671428D01*
X81921428Y-139471428D01*
X81950000Y-139414285D01*
X81978571Y-139385714D01*
X82035714Y-139357142D01*
X82092857Y-139357142D01*
X82150000Y-139385714D01*
X82178571Y-139414285D01*
X82207142Y-139471428D01*
X82207142Y-139671428D01*
X81921428Y-138500000D02*
X81921428Y-138385714D01*
X81950000Y-138328571D01*
X82007142Y-138271428D01*
X82121428Y-138242857D01*
X82321428Y-138242857D01*
X82435714Y-138271428D01*
X82492857Y-138328571D01*
X82521428Y-138385714D01*
X82521428Y-138500000D01*
X82492857Y-138557142D01*
X82435714Y-138614285D01*
X82321428Y-138642857D01*
X82121428Y-138642857D01*
X82007142Y-138614285D01*
X81950000Y-138557142D01*
X81921428Y-138500000D01*
X81921428Y-137985714D02*
X82407142Y-137985714D01*
X82464285Y-137957142D01*
X82492857Y-137928571D01*
X82521428Y-137871428D01*
X82521428Y-137757142D01*
X82492857Y-137700000D01*
X82464285Y-137671428D01*
X82407142Y-137642857D01*
X81921428Y-137642857D01*
X81921428Y-137442857D02*
X81921428Y-137100000D01*
X82521428Y-137271428D02*
X81921428Y-137271428D01*
X77521428Y-140500000D02*
X77521428Y-140842857D01*
X77521428Y-140671428D02*
X76921428Y-140671428D01*
X77007142Y-140728571D01*
X77064285Y-140785714D01*
X77092857Y-140842857D01*
X76978571Y-140271428D02*
X76950000Y-140242857D01*
X76921428Y-140185714D01*
X76921428Y-140042857D01*
X76950000Y-139985714D01*
X76978571Y-139957142D01*
X77035714Y-139928571D01*
X77092857Y-139928571D01*
X77178571Y-139957142D01*
X77521428Y-140300000D01*
X77521428Y-139928571D01*
X77207142Y-139471428D02*
X77235714Y-139385714D01*
X77264285Y-139357142D01*
X77321428Y-139328571D01*
X77407142Y-139328571D01*
X77464285Y-139357142D01*
X77492857Y-139385714D01*
X77521428Y-139442857D01*
X77521428Y-139671428D01*
X76921428Y-139671428D01*
X76921428Y-139471428D01*
X76950000Y-139414285D01*
X76978571Y-139385714D01*
X77035714Y-139357142D01*
X77092857Y-139357142D01*
X77150000Y-139385714D01*
X77178571Y-139414285D01*
X77207142Y-139471428D01*
X77207142Y-139671428D01*
X76921428Y-138500000D02*
X76921428Y-138385714D01*
X76950000Y-138328571D01*
X77007142Y-138271428D01*
X77121428Y-138242857D01*
X77321428Y-138242857D01*
X77435714Y-138271428D01*
X77492857Y-138328571D01*
X77521428Y-138385714D01*
X77521428Y-138500000D01*
X77492857Y-138557142D01*
X77435714Y-138614285D01*
X77321428Y-138642857D01*
X77121428Y-138642857D01*
X77007142Y-138614285D01*
X76950000Y-138557142D01*
X76921428Y-138500000D01*
X76921428Y-137985714D02*
X77407142Y-137985714D01*
X77464285Y-137957142D01*
X77492857Y-137928571D01*
X77521428Y-137871428D01*
X77521428Y-137757142D01*
X77492857Y-137700000D01*
X77464285Y-137671428D01*
X77407142Y-137642857D01*
X76921428Y-137642857D01*
X76921428Y-137442857D02*
X76921428Y-137100000D01*
X77521428Y-137271428D02*
X76921428Y-137271428D01*
X59700000Y-120671428D02*
X59757142Y-120671428D01*
X59814285Y-120700000D01*
X59842857Y-120728571D01*
X59871428Y-120785714D01*
X59900000Y-120900000D01*
X59900000Y-121042857D01*
X59871428Y-121157142D01*
X59842857Y-121214285D01*
X59814285Y-121242857D01*
X59757142Y-121271428D01*
X59700000Y-121271428D01*
X59642857Y-121242857D01*
X59614285Y-121214285D01*
X59585714Y-121157142D01*
X59557142Y-121042857D01*
X59557142Y-120900000D01*
X59585714Y-120785714D01*
X59614285Y-120728571D01*
X59642857Y-120700000D01*
X59700000Y-120671428D01*
X60328571Y-121500000D02*
X60300000Y-121471428D01*
X60242857Y-121385714D01*
X60214285Y-121328571D01*
X60185714Y-121242857D01*
X60157142Y-121100000D01*
X60157142Y-120985714D01*
X60185714Y-120842857D01*
X60214285Y-120757142D01*
X60242857Y-120700000D01*
X60300000Y-120614285D01*
X60328571Y-120585714D01*
X60871428Y-121271428D02*
X60528571Y-121271428D01*
X60700000Y-121271428D02*
X60700000Y-120671428D01*
X60642857Y-120757142D01*
X60585714Y-120814285D01*
X60528571Y-120842857D01*
X61100000Y-120728571D02*
X61128571Y-120700000D01*
X61185714Y-120671428D01*
X61328571Y-120671428D01*
X61385714Y-120700000D01*
X61414285Y-120728571D01*
X61442857Y-120785714D01*
X61442857Y-120842857D01*
X61414285Y-120928571D01*
X61071428Y-121271428D01*
X61442857Y-121271428D01*
X61900000Y-120957142D02*
X61985714Y-120985714D01*
X62014285Y-121014285D01*
X62042857Y-121071428D01*
X62042857Y-121157142D01*
X62014285Y-121214285D01*
X61985714Y-121242857D01*
X61928571Y-121271428D01*
X61700000Y-121271428D01*
X61700000Y-120671428D01*
X61900000Y-120671428D01*
X61957142Y-120700000D01*
X61985714Y-120728571D01*
X62014285Y-120785714D01*
X62014285Y-120842857D01*
X61985714Y-120900000D01*
X61957142Y-120928571D01*
X61900000Y-120957142D01*
X61700000Y-120957142D01*
X62242857Y-121500000D02*
X62271428Y-121471428D01*
X62328571Y-121385714D01*
X62357142Y-121328571D01*
X62385714Y-121242857D01*
X62414285Y-121100000D01*
X62414285Y-120985714D01*
X62385714Y-120842857D01*
X62357142Y-120757142D01*
X62328571Y-120700000D01*
X62271428Y-120614285D01*
X62242857Y-120585714D01*
X59700000Y-115671428D02*
X59757142Y-115671428D01*
X59814285Y-115700000D01*
X59842857Y-115728571D01*
X59871428Y-115785714D01*
X59900000Y-115900000D01*
X59900000Y-116042857D01*
X59871428Y-116157142D01*
X59842857Y-116214285D01*
X59814285Y-116242857D01*
X59757142Y-116271428D01*
X59700000Y-116271428D01*
X59642857Y-116242857D01*
X59614285Y-116214285D01*
X59585714Y-116157142D01*
X59557142Y-116042857D01*
X59557142Y-115900000D01*
X59585714Y-115785714D01*
X59614285Y-115728571D01*
X59642857Y-115700000D01*
X59700000Y-115671428D01*
X60328571Y-116500000D02*
X60300000Y-116471428D01*
X60242857Y-116385714D01*
X60214285Y-116328571D01*
X60185714Y-116242857D01*
X60157142Y-116100000D01*
X60157142Y-115985714D01*
X60185714Y-115842857D01*
X60214285Y-115757142D01*
X60242857Y-115700000D01*
X60300000Y-115614285D01*
X60328571Y-115585714D01*
X60871428Y-116271428D02*
X60528571Y-116271428D01*
X60700000Y-116271428D02*
X60700000Y-115671428D01*
X60642857Y-115757142D01*
X60585714Y-115814285D01*
X60528571Y-115842857D01*
X61100000Y-115728571D02*
X61128571Y-115700000D01*
X61185714Y-115671428D01*
X61328571Y-115671428D01*
X61385714Y-115700000D01*
X61414285Y-115728571D01*
X61442857Y-115785714D01*
X61442857Y-115842857D01*
X61414285Y-115928571D01*
X61071428Y-116271428D01*
X61442857Y-116271428D01*
X61900000Y-115957142D02*
X61985714Y-115985714D01*
X62014285Y-116014285D01*
X62042857Y-116071428D01*
X62042857Y-116157142D01*
X62014285Y-116214285D01*
X61985714Y-116242857D01*
X61928571Y-116271428D01*
X61700000Y-116271428D01*
X61700000Y-115671428D01*
X61900000Y-115671428D01*
X61957142Y-115700000D01*
X61985714Y-115728571D01*
X62014285Y-115785714D01*
X62014285Y-115842857D01*
X61985714Y-115900000D01*
X61957142Y-115928571D01*
X61900000Y-115957142D01*
X61700000Y-115957142D01*
X62242857Y-116500000D02*
X62271428Y-116471428D01*
X62328571Y-116385714D01*
X62357142Y-116328571D01*
X62385714Y-116242857D01*
X62414285Y-116100000D01*
X62414285Y-115985714D01*
X62385714Y-115842857D01*
X62357142Y-115757142D01*
X62328571Y-115700000D01*
X62271428Y-115614285D01*
X62242857Y-115585714D01*
X59464285Y-106792857D02*
X59921428Y-106792857D01*
X59692857Y-107021428D02*
X59692857Y-106564285D01*
X60521428Y-107021428D02*
X60178571Y-107021428D01*
X60350000Y-107021428D02*
X60350000Y-106421428D01*
X60292857Y-106507142D01*
X60235714Y-106564285D01*
X60178571Y-106592857D01*
X60750000Y-106478571D02*
X60778571Y-106450000D01*
X60835714Y-106421428D01*
X60978571Y-106421428D01*
X61035714Y-106450000D01*
X61064285Y-106478571D01*
X61092857Y-106535714D01*
X61092857Y-106592857D01*
X61064285Y-106678571D01*
X60721428Y-107021428D01*
X61092857Y-107021428D01*
X61550000Y-106707142D02*
X61635714Y-106735714D01*
X61664285Y-106764285D01*
X61692857Y-106821428D01*
X61692857Y-106907142D01*
X61664285Y-106964285D01*
X61635714Y-106992857D01*
X61578571Y-107021428D01*
X61350000Y-107021428D01*
X61350000Y-106421428D01*
X61550000Y-106421428D01*
X61607142Y-106450000D01*
X61635714Y-106478571D01*
X61664285Y-106535714D01*
X61664285Y-106592857D01*
X61635714Y-106650000D01*
X61607142Y-106678571D01*
X61550000Y-106707142D01*
X61350000Y-106707142D01*
X62407142Y-107021428D02*
X62407142Y-106421428D01*
X62692857Y-107021428D02*
X62692857Y-106421428D01*
X63035714Y-107021428D01*
X63035714Y-106421428D01*
X59464285Y-101792857D02*
X59921428Y-101792857D01*
X59692857Y-102021428D02*
X59692857Y-101564285D01*
X60521428Y-102021428D02*
X60178571Y-102021428D01*
X60350000Y-102021428D02*
X60350000Y-101421428D01*
X60292857Y-101507142D01*
X60235714Y-101564285D01*
X60178571Y-101592857D01*
X60750000Y-101478571D02*
X60778571Y-101450000D01*
X60835714Y-101421428D01*
X60978571Y-101421428D01*
X61035714Y-101450000D01*
X61064285Y-101478571D01*
X61092857Y-101535714D01*
X61092857Y-101592857D01*
X61064285Y-101678571D01*
X60721428Y-102021428D01*
X61092857Y-102021428D01*
X61550000Y-101707142D02*
X61635714Y-101735714D01*
X61664285Y-101764285D01*
X61692857Y-101821428D01*
X61692857Y-101907142D01*
X61664285Y-101964285D01*
X61635714Y-101992857D01*
X61578571Y-102021428D01*
X61350000Y-102021428D01*
X61350000Y-101421428D01*
X61550000Y-101421428D01*
X61607142Y-101450000D01*
X61635714Y-101478571D01*
X61664285Y-101535714D01*
X61664285Y-101592857D01*
X61635714Y-101650000D01*
X61607142Y-101678571D01*
X61550000Y-101707142D01*
X61350000Y-101707142D01*
X62407142Y-102021428D02*
X62407142Y-101421428D01*
X62692857Y-102021428D02*
X62692857Y-101421428D01*
X63035714Y-102021428D01*
X63035714Y-101421428D01*
D11*
X51261904Y-138952380D02*
X51261904Y-139761904D01*
X51309523Y-139857142D01*
X51357142Y-139904761D01*
X51452380Y-139952380D01*
X51642857Y-139952380D01*
X51738095Y-139904761D01*
X51785714Y-139857142D01*
X51833333Y-139761904D01*
X51833333Y-138952380D01*
X52261904Y-139666666D02*
X52738095Y-139666666D01*
X52166666Y-139952380D02*
X52500000Y-138952380D01*
X52833333Y-139952380D01*
X53166666Y-139952380D02*
X53166666Y-138952380D01*
X53166666Y-139428571D02*
X53738095Y-139428571D01*
X53738095Y-139952380D02*
X53738095Y-138952380D01*
X54214285Y-139857142D02*
X54261904Y-139904761D01*
X54214285Y-139952380D01*
X54166666Y-139904761D01*
X54214285Y-139857142D01*
X54214285Y-139952380D01*
X54880952Y-138952380D02*
X54976190Y-138952380D01*
X55071428Y-139000000D01*
X55119047Y-139047619D01*
X55166666Y-139142857D01*
X55214285Y-139333333D01*
X55214285Y-139571428D01*
X55166666Y-139761904D01*
X55119047Y-139857142D01*
X55071428Y-139904761D01*
X54976190Y-139952380D01*
X54880952Y-139952380D01*
X54785714Y-139904761D01*
X54738095Y-139857142D01*
X54690476Y-139761904D01*
X54642857Y-139571428D01*
X54642857Y-139333333D01*
X54690476Y-139142857D01*
X54738095Y-139047619D01*
X54785714Y-139000000D01*
X54880952Y-138952380D01*
X55976190Y-139428571D02*
X56119047Y-139476190D01*
X56166666Y-139523809D01*
X56214285Y-139619047D01*
X56214285Y-139761904D01*
X56166666Y-139857142D01*
X56119047Y-139904761D01*
X56023809Y-139952380D01*
X55642857Y-139952380D01*
X55642857Y-138952380D01*
X55976190Y-138952380D01*
X56071428Y-139000000D01*
X56119047Y-139047619D01*
X56166666Y-139142857D01*
X56166666Y-139238095D01*
X56119047Y-139333333D01*
X56071428Y-139380952D01*
X55976190Y-139428571D01*
X55642857Y-139428571D01*
X56642857Y-139857142D02*
X56690476Y-139904761D01*
X56642857Y-139952380D01*
X56595238Y-139904761D01*
X56642857Y-139857142D01*
X56642857Y-139952380D01*
X57119047Y-139952380D02*
X57119047Y-138952380D01*
X57452380Y-139666666D01*
X57785714Y-138952380D01*
X57785714Y-139952380D01*
X58404761Y-139380952D02*
X58309523Y-139333333D01*
X58261904Y-139285714D01*
X58214285Y-139190476D01*
X58214285Y-139142857D01*
X58261904Y-139047619D01*
X58309523Y-139000000D01*
X58404761Y-138952380D01*
X58595238Y-138952380D01*
X58690476Y-139000000D01*
X58738095Y-139047619D01*
X58785714Y-139142857D01*
X58785714Y-139190476D01*
X58738095Y-139285714D01*
X58690476Y-139333333D01*
X58595238Y-139380952D01*
X58404761Y-139380952D01*
X58309523Y-139428571D01*
X58261904Y-139476190D01*
X58214285Y-139571428D01*
X58214285Y-139761904D01*
X58261904Y-139857142D01*
X58309523Y-139904761D01*
X58404761Y-139952380D01*
X58595238Y-139952380D01*
X58690476Y-139904761D01*
X58738095Y-139857142D01*
X58785714Y-139761904D01*
X58785714Y-139571428D01*
X58738095Y-139476190D01*
X58690476Y-139428571D01*
X58595238Y-139380952D01*
D12*
G36*
X101122364Y-113980914D02*
G01*
X101207734Y-114033600D01*
X101297995Y-114228272D01*
X101288889Y-114474076D01*
X101186683Y-114689802D01*
X101154500Y-114723211D01*
X100912448Y-114849615D01*
X100667350Y-114820153D01*
X100518122Y-114708500D01*
X100404011Y-114489128D01*
X100387507Y-114240189D01*
X100473101Y-114040353D01*
X100479600Y-114033600D01*
X100654042Y-113954176D01*
X100897751Y-113936614D01*
X101122364Y-113980914D01*
X101122364Y-113980914D01*
G37*
X101122364Y-113980914D02*
X101207734Y-114033600D01*
X101297995Y-114228272D01*
X101288889Y-114474076D01*
X101186683Y-114689802D01*
X101154500Y-114723211D01*
X100912448Y-114849615D01*
X100667350Y-114820153D01*
X100518122Y-114708500D01*
X100404011Y-114489128D01*
X100387507Y-114240189D01*
X100473101Y-114040353D01*
X100479600Y-114033600D01*
X100654042Y-113954176D01*
X100897751Y-113936614D01*
X101122364Y-113980914D01*
G36*
X95534364Y-113980914D02*
G01*
X95619734Y-114033600D01*
X95709995Y-114228272D01*
X95700889Y-114474076D01*
X95598683Y-114689802D01*
X95566500Y-114723211D01*
X95324448Y-114849615D01*
X95079350Y-114820153D01*
X94930122Y-114708500D01*
X94816011Y-114489128D01*
X94799507Y-114240189D01*
X94885101Y-114040353D01*
X94891600Y-114033600D01*
X95066042Y-113954176D01*
X95309751Y-113936614D01*
X95534364Y-113980914D01*
X95534364Y-113980914D01*
G37*
X95534364Y-113980914D02*
X95619734Y-114033600D01*
X95709995Y-114228272D01*
X95700889Y-114474076D01*
X95598683Y-114689802D01*
X95566500Y-114723211D01*
X95324448Y-114849615D01*
X95079350Y-114820153D01*
X94930122Y-114708500D01*
X94816011Y-114489128D01*
X94799507Y-114240189D01*
X94885101Y-114040353D01*
X94891600Y-114033600D01*
X95066042Y-113954176D01*
X95309751Y-113936614D01*
X95534364Y-113980914D01*
G36*
X101058307Y-115384586D02*
G01*
X101191977Y-115435741D01*
X101248294Y-115537208D01*
X101261549Y-115672539D01*
X101271792Y-115946767D01*
X101278472Y-116329475D01*
X101281039Y-116790245D01*
X101279336Y-117251708D01*
X101267000Y-118800334D01*
X100872504Y-118825826D01*
X100627401Y-118823578D01*
X100458845Y-118788665D01*
X100423415Y-118762987D01*
X100407303Y-118654350D01*
X100394690Y-118403924D01*
X100386192Y-118039230D01*
X100382424Y-117587787D01*
X100384003Y-117077114D01*
X100384486Y-117022994D01*
X100400150Y-115371334D01*
X100802533Y-115371334D01*
X101058307Y-115384586D01*
X101058307Y-115384586D01*
G37*
X101058307Y-115384586D02*
X101191977Y-115435741D01*
X101248294Y-115537208D01*
X101261549Y-115672539D01*
X101271792Y-115946767D01*
X101278472Y-116329475D01*
X101281039Y-116790245D01*
X101279336Y-117251708D01*
X101267000Y-118800334D01*
X100872504Y-118825826D01*
X100627401Y-118823578D01*
X100458845Y-118788665D01*
X100423415Y-118762987D01*
X100407303Y-118654350D01*
X100394690Y-118403924D01*
X100386192Y-118039230D01*
X100382424Y-117587787D01*
X100384003Y-117077114D01*
X100384486Y-117022994D01*
X100400150Y-115371334D01*
X100802533Y-115371334D01*
X101058307Y-115384586D01*
G36*
X98623674Y-115325142D02*
G01*
X98908434Y-115425084D01*
X99103047Y-115534984D01*
X99249653Y-115671317D01*
X99355598Y-115858732D01*
X99428227Y-116121883D01*
X99474883Y-116485421D01*
X99502913Y-116973996D01*
X99516763Y-117466834D01*
X99545903Y-118842667D01*
X98684667Y-118842667D01*
X98684667Y-117633839D01*
X98679310Y-117076623D01*
X98657693Y-116666483D01*
X98611498Y-116381349D01*
X98532406Y-116199151D01*
X98412099Y-116097818D01*
X98242258Y-116055280D01*
X98087199Y-116048667D01*
X97748513Y-116108859D01*
X97584000Y-116218000D01*
X97517243Y-116298749D01*
X97470648Y-116404527D01*
X97440654Y-116564707D01*
X97423701Y-116808663D01*
X97416229Y-117165768D01*
X97414667Y-117615000D01*
X97414667Y-118842667D01*
X96568000Y-118842667D01*
X96568000Y-115371334D01*
X96991334Y-115371334D01*
X97257450Y-115384898D01*
X97387461Y-115431902D01*
X97414667Y-115498498D01*
X97438990Y-115566043D01*
X97535792Y-115551754D01*
X97730913Y-115456165D01*
X98174113Y-115306425D01*
X98623674Y-115325142D01*
X98623674Y-115325142D01*
G37*
X98623674Y-115325142D02*
X98908434Y-115425084D01*
X99103047Y-115534984D01*
X99249653Y-115671317D01*
X99355598Y-115858732D01*
X99428227Y-116121883D01*
X99474883Y-116485421D01*
X99502913Y-116973996D01*
X99516763Y-117466834D01*
X99545903Y-118842667D01*
X98684667Y-118842667D01*
X98684667Y-117633839D01*
X98679310Y-117076623D01*
X98657693Y-116666483D01*
X98611498Y-116381349D01*
X98532406Y-116199151D01*
X98412099Y-116097818D01*
X98242258Y-116055280D01*
X98087199Y-116048667D01*
X97748513Y-116108859D01*
X97584000Y-116218000D01*
X97517243Y-116298749D01*
X97470648Y-116404527D01*
X97440654Y-116564707D01*
X97423701Y-116808663D01*
X97416229Y-117165768D01*
X97414667Y-117615000D01*
X97414667Y-118842667D01*
X96568000Y-118842667D01*
X96568000Y-115371334D01*
X96991334Y-115371334D01*
X97257450Y-115384898D01*
X97387461Y-115431902D01*
X97414667Y-115498498D01*
X97438990Y-115566043D01*
X97535792Y-115551754D01*
X97730913Y-115456165D01*
X98174113Y-115306425D01*
X98623674Y-115325142D01*
G36*
X95636667Y-118842667D02*
G01*
X95269778Y-118842667D01*
X95032191Y-118830658D01*
X94872717Y-118800511D01*
X94846445Y-118786222D01*
X94829160Y-118687926D01*
X94814015Y-118446906D01*
X94801874Y-118089767D01*
X94793604Y-117643113D01*
X94790069Y-117133549D01*
X94790000Y-117050556D01*
X94790000Y-115371334D01*
X95636667Y-115371334D01*
X95636667Y-118842667D01*
X95636667Y-118842667D01*
G37*
X95636667Y-118842667D02*
X95269778Y-118842667D01*
X95032191Y-118830658D01*
X94872717Y-118800511D01*
X94846445Y-118786222D01*
X94829160Y-118687926D01*
X94814015Y-118446906D01*
X94801874Y-118089767D01*
X94793604Y-117643113D01*
X94790069Y-117133549D01*
X94790000Y-117050556D01*
X94790000Y-115371334D01*
X95636667Y-115371334D01*
X95636667Y-118842667D01*
G36*
X94332061Y-115638424D02*
G01*
X94279562Y-115914393D01*
X94207647Y-116062288D01*
X94075207Y-116121975D01*
X93841133Y-116133320D01*
X93821704Y-116133334D01*
X93608817Y-116143396D01*
X93452987Y-116189088D01*
X93344102Y-116293668D01*
X93272052Y-116480395D01*
X93226726Y-116772526D01*
X93198014Y-117193320D01*
X93181334Y-117606433D01*
X93139000Y-118800334D01*
X92736834Y-118826139D01*
X92334667Y-118851945D01*
X92334667Y-115371334D01*
X92681260Y-115371334D01*
X92917750Y-115389689D01*
X93035898Y-115458722D01*
X93072135Y-115540667D01*
X93139076Y-115667816D01*
X93221555Y-115714922D01*
X93265732Y-115653402D01*
X93266000Y-115643588D01*
X93340318Y-115537787D01*
X93526834Y-115427285D01*
X93770894Y-115336253D01*
X94017842Y-115288863D01*
X94073051Y-115286667D01*
X94388309Y-115286667D01*
X94332061Y-115638424D01*
X94332061Y-115638424D01*
G37*
X94332061Y-115638424D02*
X94279562Y-115914393D01*
X94207647Y-116062288D01*
X94075207Y-116121975D01*
X93841133Y-116133320D01*
X93821704Y-116133334D01*
X93608817Y-116143396D01*
X93452987Y-116189088D01*
X93344102Y-116293668D01*
X93272052Y-116480395D01*
X93226726Y-116772526D01*
X93198014Y-117193320D01*
X93181334Y-117606433D01*
X93139000Y-118800334D01*
X92736834Y-118826139D01*
X92334667Y-118851945D01*
X92334667Y-115371334D01*
X92681260Y-115371334D01*
X92917750Y-115389689D01*
X93035898Y-115458722D01*
X93072135Y-115540667D01*
X93139076Y-115667816D01*
X93221555Y-115714922D01*
X93265732Y-115653402D01*
X93266000Y-115643588D01*
X93340318Y-115537787D01*
X93526834Y-115427285D01*
X93770894Y-115336253D01*
X94017842Y-115288863D01*
X94073051Y-115286667D01*
X94388309Y-115286667D01*
X94332061Y-115638424D01*
G36*
X90091000Y-113935826D02*
G01*
X91657334Y-113945246D01*
X91657334Y-114694000D01*
X91107000Y-114694000D01*
X90825297Y-114702937D01*
X90624261Y-114726315D01*
X90549168Y-114757500D01*
X90546131Y-114856765D01*
X90541665Y-115100969D01*
X90536128Y-115465724D01*
X90529875Y-115926644D01*
X90523262Y-116459345D01*
X90519186Y-116810667D01*
X90496704Y-118800334D01*
X89625334Y-118851516D01*
X89625334Y-114694000D01*
X88524667Y-114694000D01*
X88524667Y-113926406D01*
X90091000Y-113935826D01*
X90091000Y-113935826D01*
G37*
X90091000Y-113935826D02*
X91657334Y-113945246D01*
X91657334Y-114694000D01*
X91107000Y-114694000D01*
X90825297Y-114702937D01*
X90624261Y-114726315D01*
X90549168Y-114757500D01*
X90546131Y-114856765D01*
X90541665Y-115100969D01*
X90536128Y-115465724D01*
X90529875Y-115926644D01*
X90523262Y-116459345D01*
X90519186Y-116810667D01*
X90496704Y-118800334D01*
X89625334Y-118851516D01*
X89625334Y-114694000D01*
X88524667Y-114694000D01*
X88524667Y-113926406D01*
X90091000Y-113935826D01*
G36*
X103169525Y-114368509D02*
G01*
X103230972Y-114435863D01*
X103253697Y-114599132D01*
X103256667Y-114811942D01*
X103273226Y-115111887D01*
X103347331Y-115280577D01*
X103515628Y-115354798D01*
X103813925Y-115371334D01*
X103999247Y-115382011D01*
X104081608Y-115446572D01*
X104102706Y-115613811D01*
X104103334Y-115710000D01*
X104103334Y-116048667D01*
X103251293Y-116048667D01*
X103275147Y-117043500D01*
X103299000Y-118038334D01*
X103734851Y-118063625D01*
X103991579Y-118084824D01*
X104127911Y-118131305D01*
X104192640Y-118235391D01*
X104227144Y-118389776D01*
X104259247Y-118604476D01*
X104227556Y-118723251D01*
X104096610Y-118792543D01*
X103877208Y-118848050D01*
X103531316Y-118910032D01*
X103259438Y-118902295D01*
X102979191Y-118820035D01*
X102908400Y-118791529D01*
X102681558Y-118654117D01*
X102521062Y-118481317D01*
X102506233Y-118453241D01*
X102466420Y-118279069D01*
X102435457Y-117969822D01*
X102415856Y-117559640D01*
X102410000Y-117145350D01*
X102410000Y-116048667D01*
X102160997Y-116048667D01*
X101935166Y-116012896D01*
X101839472Y-115888075D01*
X101854772Y-115647938D01*
X101857998Y-115632930D01*
X101950957Y-115435538D01*
X102148707Y-115343238D01*
X102160605Y-115340779D01*
X102314248Y-115295559D01*
X102387073Y-115206829D01*
X102408883Y-115022590D01*
X102410000Y-114905688D01*
X102422897Y-114659075D01*
X102478945Y-114524848D01*
X102604181Y-114446928D01*
X102627179Y-114437905D01*
X102875166Y-114373313D01*
X103050512Y-114355334D01*
X103169525Y-114368509D01*
X103169525Y-114368509D01*
G37*
X103169525Y-114368509D02*
X103230972Y-114435863D01*
X103253697Y-114599132D01*
X103256667Y-114811942D01*
X103273226Y-115111887D01*
X103347331Y-115280577D01*
X103515628Y-115354798D01*
X103813925Y-115371334D01*
X103999247Y-115382011D01*
X104081608Y-115446572D01*
X104102706Y-115613811D01*
X104103334Y-115710000D01*
X104103334Y-116048667D01*
X103251293Y-116048667D01*
X103275147Y-117043500D01*
X103299000Y-118038334D01*
X103734851Y-118063625D01*
X103991579Y-118084824D01*
X104127911Y-118131305D01*
X104192640Y-118235391D01*
X104227144Y-118389776D01*
X104259247Y-118604476D01*
X104227556Y-118723251D01*
X104096610Y-118792543D01*
X103877208Y-118848050D01*
X103531316Y-118910032D01*
X103259438Y-118902295D01*
X102979191Y-118820035D01*
X102908400Y-118791529D01*
X102681558Y-118654117D01*
X102521062Y-118481317D01*
X102506233Y-118453241D01*
X102466420Y-118279069D01*
X102435457Y-117969822D01*
X102415856Y-117559640D01*
X102410000Y-117145350D01*
X102410000Y-116048667D01*
X102160997Y-116048667D01*
X101935166Y-116012896D01*
X101839472Y-115888075D01*
X101854772Y-115647938D01*
X101857998Y-115632930D01*
X101950957Y-115435538D01*
X102148707Y-115343238D01*
X102160605Y-115340779D01*
X102314248Y-115295559D01*
X102387073Y-115206829D01*
X102408883Y-115022590D01*
X102410000Y-114905688D01*
X102422897Y-114659075D01*
X102478945Y-114524848D01*
X102604181Y-114446928D01*
X102627179Y-114437905D01*
X102875166Y-114373313D01*
X103050512Y-114355334D01*
X103169525Y-114368509D01*
G36*
X105401506Y-115688834D02*
G01*
X105480569Y-115960128D01*
X105580092Y-116329449D01*
X105682210Y-116729883D01*
X105712357Y-116853000D01*
X105819029Y-117291948D01*
X105894148Y-117590495D01*
X105945868Y-117772850D01*
X105982341Y-117863225D01*
X106011722Y-117885830D01*
X106042162Y-117864876D01*
X106050250Y-117856356D01*
X106097588Y-117753293D01*
X106182168Y-117518574D01*
X106293557Y-117183027D01*
X106421324Y-116777479D01*
X106475756Y-116599000D01*
X106609007Y-116174449D01*
X106733327Y-115808420D01*
X106837605Y-115531487D01*
X106910732Y-115374222D01*
X106929084Y-115351463D01*
X107092105Y-115300539D01*
X107315104Y-115289092D01*
X107529332Y-115313375D01*
X107666044Y-115369640D01*
X107681771Y-115392500D01*
X107682938Y-115553066D01*
X107651664Y-115667667D01*
X107607921Y-115794281D01*
X107521432Y-116057448D01*
X107400250Y-116432189D01*
X107252429Y-116893521D01*
X107086021Y-117416466D01*
X106982948Y-117742000D01*
X106761930Y-118443693D01*
X106586158Y-119001220D01*
X106447674Y-119431176D01*
X106338516Y-119750150D01*
X106250726Y-119974737D01*
X106176345Y-120121529D01*
X106107412Y-120207118D01*
X106035969Y-120248096D01*
X105954056Y-120261055D01*
X105853713Y-120262589D01*
X105772425Y-120265472D01*
X105528347Y-120272072D01*
X105409690Y-120240848D01*
X105374184Y-120157512D01*
X105373334Y-120130560D01*
X105400041Y-119966567D01*
X105469203Y-119707204D01*
X105542667Y-119477667D01*
X105648123Y-119161461D01*
X105697439Y-118972072D01*
X105692908Y-118877385D01*
X105636820Y-118845286D01*
X105587979Y-118842667D01*
X105449471Y-118775525D01*
X105387137Y-118694500D01*
X105341111Y-118569788D01*
X105260522Y-118315940D01*
X105154308Y-117964305D01*
X105031407Y-117546233D01*
X104900755Y-117093074D01*
X104771291Y-116636177D01*
X104651952Y-116206891D01*
X104551676Y-115836568D01*
X104479400Y-115556555D01*
X104444063Y-115398203D01*
X104442000Y-115379337D01*
X104519812Y-115322585D01*
X104727376Y-115290649D01*
X104858529Y-115286667D01*
X105275058Y-115286667D01*
X105401506Y-115688834D01*
X105401506Y-115688834D01*
G37*
X105401506Y-115688834D02*
X105480569Y-115960128D01*
X105580092Y-116329449D01*
X105682210Y-116729883D01*
X105712357Y-116853000D01*
X105819029Y-117291948D01*
X105894148Y-117590495D01*
X105945868Y-117772850D01*
X105982341Y-117863225D01*
X106011722Y-117885830D01*
X106042162Y-117864876D01*
X106050250Y-117856356D01*
X106097588Y-117753293D01*
X106182168Y-117518574D01*
X106293557Y-117183027D01*
X106421324Y-116777479D01*
X106475756Y-116599000D01*
X106609007Y-116174449D01*
X106733327Y-115808420D01*
X106837605Y-115531487D01*
X106910732Y-115374222D01*
X106929084Y-115351463D01*
X107092105Y-115300539D01*
X107315104Y-115289092D01*
X107529332Y-115313375D01*
X107666044Y-115369640D01*
X107681771Y-115392500D01*
X107682938Y-115553066D01*
X107651664Y-115667667D01*
X107607921Y-115794281D01*
X107521432Y-116057448D01*
X107400250Y-116432189D01*
X107252429Y-116893521D01*
X107086021Y-117416466D01*
X106982948Y-117742000D01*
X106761930Y-118443693D01*
X106586158Y-119001220D01*
X106447674Y-119431176D01*
X106338516Y-119750150D01*
X106250726Y-119974737D01*
X106176345Y-120121529D01*
X106107412Y-120207118D01*
X106035969Y-120248096D01*
X105954056Y-120261055D01*
X105853713Y-120262589D01*
X105772425Y-120265472D01*
X105528347Y-120272072D01*
X105409690Y-120240848D01*
X105374184Y-120157512D01*
X105373334Y-120130560D01*
X105400041Y-119966567D01*
X105469203Y-119707204D01*
X105542667Y-119477667D01*
X105648123Y-119161461D01*
X105697439Y-118972072D01*
X105692908Y-118877385D01*
X105636820Y-118845286D01*
X105587979Y-118842667D01*
X105449471Y-118775525D01*
X105387137Y-118694500D01*
X105341111Y-118569788D01*
X105260522Y-118315940D01*
X105154308Y-117964305D01*
X105031407Y-117546233D01*
X104900755Y-117093074D01*
X104771291Y-116636177D01*
X104651952Y-116206891D01*
X104551676Y-115836568D01*
X104479400Y-115556555D01*
X104444063Y-115398203D01*
X104442000Y-115379337D01*
X104519812Y-115322585D01*
X104727376Y-115290649D01*
X104858529Y-115286667D01*
X105275058Y-115286667D01*
X105401506Y-115688834D01*
G36*
X102669454Y-119786316D02*
G01*
X102718808Y-119846421D01*
X102738804Y-119989054D01*
X102737289Y-120248952D01*
X102731062Y-120429916D01*
X102706334Y-121085832D01*
X102270558Y-121105271D01*
X101957137Y-121097410D01*
X101771119Y-121034258D01*
X101723674Y-120990831D01*
X101660065Y-120838992D01*
X101606333Y-120578685D01*
X101578085Y-120315476D01*
X101563643Y-120022406D01*
X101574359Y-119859890D01*
X101620423Y-119789812D01*
X101712020Y-119774056D01*
X101722804Y-119774000D01*
X101826911Y-119792160D01*
X101880613Y-119873993D01*
X101900057Y-120060526D01*
X101902000Y-120229300D01*
X101930520Y-120580578D01*
X102015335Y-120777228D01*
X102029000Y-120790000D01*
X102187866Y-120853060D01*
X102310393Y-120762575D01*
X102387336Y-120532154D01*
X102410000Y-120229300D01*
X102417485Y-119964229D01*
X102450244Y-119827501D01*
X102523735Y-119778408D01*
X102582895Y-119774000D01*
X102669454Y-119786316D01*
X102669454Y-119786316D01*
G37*
X102669454Y-119786316D02*
X102718808Y-119846421D01*
X102738804Y-119989054D01*
X102737289Y-120248952D01*
X102731062Y-120429916D01*
X102706334Y-121085832D01*
X102270558Y-121105271D01*
X101957137Y-121097410D01*
X101771119Y-121034258D01*
X101723674Y-120990831D01*
X101660065Y-120838992D01*
X101606333Y-120578685D01*
X101578085Y-120315476D01*
X101563643Y-120022406D01*
X101574359Y-119859890D01*
X101620423Y-119789812D01*
X101712020Y-119774056D01*
X101722804Y-119774000D01*
X101826911Y-119792160D01*
X101880613Y-119873993D01*
X101900057Y-120060526D01*
X101902000Y-120229300D01*
X101930520Y-120580578D01*
X102015335Y-120777228D01*
X102029000Y-120790000D01*
X102187866Y-120853060D01*
X102310393Y-120762575D01*
X102387336Y-120532154D01*
X102410000Y-120229300D01*
X102417485Y-119964229D01*
X102450244Y-119827501D01*
X102523735Y-119778408D01*
X102582895Y-119774000D01*
X102669454Y-119786316D01*
G36*
X101000363Y-119842322D02*
G01*
X101210778Y-120039478D01*
X101305140Y-120353752D01*
X101309334Y-120451334D01*
X101244903Y-120770462D01*
X101076124Y-121000343D01*
X100839761Y-121123126D01*
X100572583Y-121120958D01*
X100311355Y-120975990D01*
X100283438Y-120949438D01*
X100167921Y-120792084D01*
X100132853Y-120595256D01*
X100146032Y-120399151D01*
X100156000Y-120351031D01*
X100478057Y-120351031D01*
X100495594Y-120599955D01*
X100581206Y-120792724D01*
X100709893Y-120874477D01*
X100716667Y-120874667D01*
X100818498Y-120817316D01*
X100881410Y-120753198D01*
X100944093Y-120588185D01*
X100955904Y-120357903D01*
X100955277Y-120351031D01*
X100915318Y-120155614D01*
X100819493Y-120079427D01*
X100716667Y-120070334D01*
X100566609Y-120098450D01*
X100497891Y-120215828D01*
X100478057Y-120351031D01*
X100156000Y-120351031D01*
X100215706Y-120062816D01*
X100346107Y-119865587D01*
X100559459Y-119781671D01*
X100684700Y-119774000D01*
X101000363Y-119842322D01*
X101000363Y-119842322D01*
G37*
X101000363Y-119842322D02*
X101210778Y-120039478D01*
X101305140Y-120353752D01*
X101309334Y-120451334D01*
X101244903Y-120770462D01*
X101076124Y-121000343D01*
X100839761Y-121123126D01*
X100572583Y-121120958D01*
X100311355Y-120975990D01*
X100283438Y-120949438D01*
X100167921Y-120792084D01*
X100132853Y-120595256D01*
X100146032Y-120399151D01*
X100156000Y-120351031D01*
X100478057Y-120351031D01*
X100495594Y-120599955D01*
X100581206Y-120792724D01*
X100709893Y-120874477D01*
X100716667Y-120874667D01*
X100818498Y-120817316D01*
X100881410Y-120753198D01*
X100944093Y-120588185D01*
X100955904Y-120357903D01*
X100955277Y-120351031D01*
X100915318Y-120155614D01*
X100819493Y-120079427D01*
X100716667Y-120070334D01*
X100566609Y-120098450D01*
X100497891Y-120215828D01*
X100478057Y-120351031D01*
X100156000Y-120351031D01*
X100215706Y-120062816D01*
X100346107Y-119865587D01*
X100559459Y-119781671D01*
X100684700Y-119774000D01*
X101000363Y-119842322D01*
G36*
X99877832Y-119810851D02*
G01*
X99992280Y-119871742D01*
X99949005Y-119965319D01*
X99762545Y-120072122D01*
X99650973Y-120147725D01*
X99587934Y-120281497D01*
X99555745Y-120520453D01*
X99548275Y-120641834D01*
X99525864Y-120920180D01*
X99485754Y-121067821D01*
X99412838Y-121123364D01*
X99357775Y-121128667D01*
X99274700Y-121113199D01*
X99225247Y-121043950D01*
X99200883Y-120886650D01*
X99193071Y-120607029D01*
X99192667Y-120465776D01*
X99192667Y-119802885D01*
X99611462Y-119793345D01*
X99877832Y-119810851D01*
X99877832Y-119810851D01*
G37*
X99877832Y-119810851D02*
X99992280Y-119871742D01*
X99949005Y-119965319D01*
X99762545Y-120072122D01*
X99650973Y-120147725D01*
X99587934Y-120281497D01*
X99555745Y-120520453D01*
X99548275Y-120641834D01*
X99525864Y-120920180D01*
X99485754Y-121067821D01*
X99412838Y-121123364D01*
X99357775Y-121128667D01*
X99274700Y-121113199D01*
X99225247Y-121043950D01*
X99200883Y-120886650D01*
X99193071Y-120607029D01*
X99192667Y-120465776D01*
X99192667Y-119802885D01*
X99611462Y-119793345D01*
X99877832Y-119810851D01*
G36*
X98562187Y-119272272D02*
G01*
X98724191Y-119376331D01*
X98769334Y-119470574D01*
X98724045Y-119609113D01*
X98628312Y-119656023D01*
X98558520Y-119606048D01*
X98443390Y-119544037D01*
X98256337Y-119520000D01*
X98007334Y-119520000D01*
X98007334Y-120801248D01*
X98240167Y-120774457D01*
X98431618Y-120704303D01*
X98500055Y-120557167D01*
X98479593Y-120402005D01*
X98388014Y-120366667D01*
X98268002Y-120327450D01*
X98266042Y-120236586D01*
X98357911Y-120134251D01*
X98519385Y-120060622D01*
X98578926Y-120050006D01*
X98854000Y-120018594D01*
X98854000Y-120441829D01*
X98803128Y-120796840D01*
X98646925Y-121021398D01*
X98380010Y-121121739D01*
X98261334Y-121128667D01*
X98022214Y-121079241D01*
X97856839Y-120996866D01*
X97761047Y-120911519D01*
X97704435Y-120793572D01*
X97677033Y-120600729D01*
X97668871Y-120290697D01*
X97668667Y-120198580D01*
X97683977Y-119789944D01*
X97739889Y-119516365D01*
X97851378Y-119345518D01*
X98033417Y-119245076D01*
X98122392Y-119219098D01*
X98340840Y-119211796D01*
X98562187Y-119272272D01*
X98562187Y-119272272D01*
G37*
X98562187Y-119272272D02*
X98724191Y-119376331D01*
X98769334Y-119470574D01*
X98724045Y-119609113D01*
X98628312Y-119656023D01*
X98558520Y-119606048D01*
X98443390Y-119544037D01*
X98256337Y-119520000D01*
X98007334Y-119520000D01*
X98007334Y-120801248D01*
X98240167Y-120774457D01*
X98431618Y-120704303D01*
X98500055Y-120557167D01*
X98479593Y-120402005D01*
X98388014Y-120366667D01*
X98268002Y-120327450D01*
X98266042Y-120236586D01*
X98357911Y-120134251D01*
X98519385Y-120060622D01*
X98578926Y-120050006D01*
X98854000Y-120018594D01*
X98854000Y-120441829D01*
X98803128Y-120796840D01*
X98646925Y-121021398D01*
X98380010Y-121121739D01*
X98261334Y-121128667D01*
X98022214Y-121079241D01*
X97856839Y-120996866D01*
X97761047Y-120911519D01*
X97704435Y-120793572D01*
X97677033Y-120600729D01*
X97668871Y-120290697D01*
X97668667Y-120198580D01*
X97683977Y-119789944D01*
X97739889Y-119516365D01*
X97851378Y-119345518D01*
X98033417Y-119245076D01*
X98122392Y-119219098D01*
X98340840Y-119211796D01*
X98562187Y-119272272D01*
G36*
X96392703Y-119193479D02*
G01*
X96442374Y-119250857D01*
X96469627Y-119384877D01*
X96481075Y-119626951D01*
X96483334Y-119985667D01*
X96491778Y-120365059D01*
X96515288Y-120637566D01*
X96551125Y-120777183D01*
X96568000Y-120790000D01*
X96636790Y-120860913D01*
X96652667Y-120959334D01*
X96590701Y-121093115D01*
X96444795Y-121127686D01*
X96274934Y-121053048D01*
X96246267Y-121027067D01*
X96192679Y-120881687D01*
X96158521Y-120578357D01*
X96144878Y-120127463D01*
X96144667Y-120053400D01*
X96146867Y-119661272D01*
X96157379Y-119408244D01*
X96182069Y-119264097D01*
X96226806Y-119198617D01*
X96297457Y-119181586D01*
X96314000Y-119181334D01*
X96392703Y-119193479D01*
X96392703Y-119193479D01*
G37*
X96392703Y-119193479D02*
X96442374Y-119250857D01*
X96469627Y-119384877D01*
X96481075Y-119626951D01*
X96483334Y-119985667D01*
X96491778Y-120365059D01*
X96515288Y-120637566D01*
X96551125Y-120777183D01*
X96568000Y-120790000D01*
X96636790Y-120860913D01*
X96652667Y-120959334D01*
X96590701Y-121093115D01*
X96444795Y-121127686D01*
X96274934Y-121053048D01*
X96246267Y-121027067D01*
X96192679Y-120881687D01*
X96158521Y-120578357D01*
X96144878Y-120127463D01*
X96144667Y-120053400D01*
X96146867Y-119661272D01*
X96157379Y-119408244D01*
X96182069Y-119264097D01*
X96226806Y-119198617D01*
X96297457Y-119181586D01*
X96314000Y-119181334D01*
X96392703Y-119193479D01*
G36*
X95491891Y-119805547D02*
G01*
X95673366Y-119917664D01*
X95771275Y-120136563D01*
X95805178Y-120488457D01*
X95806000Y-120576254D01*
X95806000Y-121112412D01*
X95403834Y-121115120D01*
X95130570Y-121099691D01*
X94911088Y-121057618D01*
X94853500Y-121034373D01*
X94745215Y-120889088D01*
X94709985Y-120685589D01*
X94991216Y-120685589D01*
X95085690Y-120826682D01*
X95213334Y-120874667D01*
X95368682Y-120808596D01*
X95416216Y-120740026D01*
X95428190Y-120554734D01*
X95299647Y-120460005D01*
X95213334Y-120451334D01*
X95055923Y-120487578D01*
X95006389Y-120528360D01*
X94991216Y-120685589D01*
X94709985Y-120685589D01*
X94706170Y-120663553D01*
X94738562Y-120433012D01*
X94831558Y-120282644D01*
X95002588Y-120218437D01*
X95212558Y-120215280D01*
X95409456Y-120214844D01*
X95467334Y-120140337D01*
X95389138Y-120056742D01*
X95171000Y-120028000D01*
X94951827Y-120000460D01*
X94875203Y-119912567D01*
X94874667Y-119901000D01*
X94931620Y-119811959D01*
X95119571Y-119775934D01*
X95207286Y-119774000D01*
X95491891Y-119805547D01*
X95491891Y-119805547D01*
G37*
X95491891Y-119805547D02*
X95673366Y-119917664D01*
X95771275Y-120136563D01*
X95805178Y-120488457D01*
X95806000Y-120576254D01*
X95806000Y-121112412D01*
X95403834Y-121115120D01*
X95130570Y-121099691D01*
X94911088Y-121057618D01*
X94853500Y-121034373D01*
X94745215Y-120889088D01*
X94709985Y-120685589D01*
X94991216Y-120685589D01*
X95085690Y-120826682D01*
X95213334Y-120874667D01*
X95368682Y-120808596D01*
X95416216Y-120740026D01*
X95428190Y-120554734D01*
X95299647Y-120460005D01*
X95213334Y-120451334D01*
X95055923Y-120487578D01*
X95006389Y-120528360D01*
X94991216Y-120685589D01*
X94709985Y-120685589D01*
X94706170Y-120663553D01*
X94738562Y-120433012D01*
X94831558Y-120282644D01*
X95002588Y-120218437D01*
X95212558Y-120215280D01*
X95409456Y-120214844D01*
X95467334Y-120140337D01*
X95389138Y-120056742D01*
X95171000Y-120028000D01*
X94951827Y-120000460D01*
X94875203Y-119912567D01*
X94874667Y-119901000D01*
X94931620Y-119811959D01*
X95119571Y-119775934D01*
X95207286Y-119774000D01*
X95491891Y-119805547D01*
G36*
X93552042Y-119214482D02*
G01*
X93599132Y-119343889D01*
X93604667Y-119477667D01*
X93617996Y-119676357D01*
X93691334Y-119757848D01*
X93874707Y-119773979D01*
X93890633Y-119774000D01*
X94117170Y-119808581D01*
X94274551Y-119892343D01*
X94279244Y-119897680D01*
X94378829Y-120117115D01*
X94420890Y-120416411D01*
X94399831Y-120714253D01*
X94346494Y-120874667D01*
X94259719Y-120998038D01*
X94131756Y-121065091D01*
X93911416Y-121095434D01*
X93750511Y-121102971D01*
X93266000Y-121119609D01*
X93266000Y-120532329D01*
X93615281Y-120532329D01*
X93640308Y-120676090D01*
X93747912Y-120767586D01*
X93910540Y-120764874D01*
X94052741Y-120681682D01*
X94098133Y-120592803D01*
X94100978Y-120389197D01*
X94074839Y-120227474D01*
X93976725Y-120064601D01*
X93833073Y-120030095D01*
X93696546Y-120114374D01*
X93619808Y-120307855D01*
X93619520Y-120310319D01*
X93615281Y-120532329D01*
X93266000Y-120532329D01*
X93266000Y-120150471D01*
X93267811Y-119733266D01*
X93276590Y-119456669D01*
X93297352Y-119291969D01*
X93335116Y-119210451D01*
X93394897Y-119183404D01*
X93435334Y-119181334D01*
X93552042Y-119214482D01*
X93552042Y-119214482D01*
G37*
X93552042Y-119214482D02*
X93599132Y-119343889D01*
X93604667Y-119477667D01*
X93617996Y-119676357D01*
X93691334Y-119757848D01*
X93874707Y-119773979D01*
X93890633Y-119774000D01*
X94117170Y-119808581D01*
X94274551Y-119892343D01*
X94279244Y-119897680D01*
X94378829Y-120117115D01*
X94420890Y-120416411D01*
X94399831Y-120714253D01*
X94346494Y-120874667D01*
X94259719Y-120998038D01*
X94131756Y-121065091D01*
X93911416Y-121095434D01*
X93750511Y-121102971D01*
X93266000Y-121119609D01*
X93266000Y-120532329D01*
X93615281Y-120532329D01*
X93640308Y-120676090D01*
X93747912Y-120767586D01*
X93910540Y-120764874D01*
X94052741Y-120681682D01*
X94098133Y-120592803D01*
X94100978Y-120389197D01*
X94074839Y-120227474D01*
X93976725Y-120064601D01*
X93833073Y-120030095D01*
X93696546Y-120114374D01*
X93619808Y-120307855D01*
X93619520Y-120310319D01*
X93615281Y-120532329D01*
X93266000Y-120532329D01*
X93266000Y-120150471D01*
X93267811Y-119733266D01*
X93276590Y-119456669D01*
X93297352Y-119291969D01*
X93335116Y-119210451D01*
X93394897Y-119183404D01*
X93435334Y-119181334D01*
X93552042Y-119214482D01*
G36*
X92726189Y-119855124D02*
G01*
X92794286Y-119907048D01*
X92889467Y-120089503D01*
X92933235Y-120353847D01*
X92927222Y-120639843D01*
X92873060Y-120887253D01*
X92772380Y-121035842D01*
X92763566Y-121041021D01*
X92460231Y-121124240D01*
X92164468Y-121072392D01*
X91996000Y-120959334D01*
X91870490Y-120737318D01*
X91822364Y-120445673D01*
X91831851Y-120354254D01*
X92180535Y-120354254D01*
X92186373Y-120655746D01*
X92262652Y-120836984D01*
X92394828Y-120882397D01*
X92568361Y-120776417D01*
X92571734Y-120773067D01*
X92653151Y-120595579D01*
X92665740Y-120353290D01*
X92605731Y-120137736D01*
X92598392Y-120125503D01*
X92466734Y-120025222D01*
X92324303Y-120061997D01*
X92214068Y-120212305D01*
X92180535Y-120354254D01*
X91831851Y-120354254D01*
X91852595Y-120154362D01*
X91962151Y-119933348D01*
X91981500Y-119914122D01*
X92206884Y-119802432D01*
X92481837Y-119782533D01*
X92726189Y-119855124D01*
X92726189Y-119855124D01*
G37*
X92726189Y-119855124D02*
X92794286Y-119907048D01*
X92889467Y-120089503D01*
X92933235Y-120353847D01*
X92927222Y-120639843D01*
X92873060Y-120887253D01*
X92772380Y-121035842D01*
X92763566Y-121041021D01*
X92460231Y-121124240D01*
X92164468Y-121072392D01*
X91996000Y-120959334D01*
X91870490Y-120737318D01*
X91822364Y-120445673D01*
X91831851Y-120354254D01*
X92180535Y-120354254D01*
X92186373Y-120655746D01*
X92262652Y-120836984D01*
X92394828Y-120882397D01*
X92568361Y-120776417D01*
X92571734Y-120773067D01*
X92653151Y-120595579D01*
X92665740Y-120353290D01*
X92605731Y-120137736D01*
X92598392Y-120125503D01*
X92466734Y-120025222D01*
X92324303Y-120061997D01*
X92214068Y-120212305D01*
X92180535Y-120354254D01*
X91831851Y-120354254D01*
X91852595Y-120154362D01*
X91962151Y-119933348D01*
X91981500Y-119914122D01*
X92206884Y-119802432D01*
X92481837Y-119782533D01*
X92726189Y-119855124D01*
G36*
X91343773Y-119219480D02*
G01*
X91379629Y-119350978D01*
X91398231Y-119601414D01*
X91403334Y-119976608D01*
X91409038Y-120367867D01*
X91429091Y-120619389D01*
X91467902Y-120760479D01*
X91529880Y-120820443D01*
X91530334Y-120820618D01*
X91650687Y-120923525D01*
X91637727Y-121044215D01*
X91508420Y-121122440D01*
X91443571Y-121128667D01*
X91247805Y-121067813D01*
X91147238Y-120911488D01*
X91086941Y-120658937D01*
X91060218Y-120339999D01*
X91063751Y-119995777D01*
X91094221Y-119667374D01*
X91148310Y-119395896D01*
X91222700Y-119222444D01*
X91286917Y-119181334D01*
X91343773Y-119219480D01*
X91343773Y-119219480D01*
G37*
X91343773Y-119219480D02*
X91379629Y-119350978D01*
X91398231Y-119601414D01*
X91403334Y-119976608D01*
X91409038Y-120367867D01*
X91429091Y-120619389D01*
X91467902Y-120760479D01*
X91529880Y-120820443D01*
X91530334Y-120820618D01*
X91650687Y-120923525D01*
X91637727Y-121044215D01*
X91508420Y-121122440D01*
X91443571Y-121128667D01*
X91247805Y-121067813D01*
X91147238Y-120911488D01*
X91086941Y-120658937D01*
X91060218Y-120339999D01*
X91063751Y-119995777D01*
X91094221Y-119667374D01*
X91148310Y-119395896D01*
X91222700Y-119222444D01*
X91286917Y-119181334D01*
X91343773Y-119219480D01*
G36*
X90428653Y-119269516D02*
G01*
X90592801Y-119368563D01*
X90641334Y-119461460D01*
X90595466Y-119617594D01*
X90480002Y-119634750D01*
X90420951Y-119597433D01*
X90254892Y-119536134D01*
X90116827Y-119534667D01*
X90014502Y-119561616D01*
X89955986Y-119631797D01*
X89929147Y-119783766D01*
X89921857Y-120056075D01*
X89921667Y-120155000D01*
X89924779Y-120464636D01*
X89942903Y-120641847D01*
X89989214Y-120723532D01*
X90076892Y-120746588D01*
X90133334Y-120747667D01*
X90307815Y-120701080D01*
X90372055Y-120557167D01*
X90351593Y-120402005D01*
X90260014Y-120366667D01*
X90153540Y-120305684D01*
X90149452Y-120218500D01*
X90242721Y-120101165D01*
X90451993Y-120061867D01*
X90616622Y-120064860D01*
X90697080Y-120116373D01*
X90723507Y-120260114D01*
X90726000Y-120459233D01*
X90671989Y-120807802D01*
X90508124Y-121028317D01*
X90231660Y-121123879D01*
X90133334Y-121128667D01*
X89894214Y-121079241D01*
X89728839Y-120996866D01*
X89633047Y-120911519D01*
X89576435Y-120793572D01*
X89549033Y-120600729D01*
X89540871Y-120290697D01*
X89540667Y-120198580D01*
X89555977Y-119789944D01*
X89611889Y-119516365D01*
X89723378Y-119345518D01*
X89905417Y-119245076D01*
X89994392Y-119219098D01*
X90208219Y-119211841D01*
X90428653Y-119269516D01*
X90428653Y-119269516D01*
G37*
X90428653Y-119269516D02*
X90592801Y-119368563D01*
X90641334Y-119461460D01*
X90595466Y-119617594D01*
X90480002Y-119634750D01*
X90420951Y-119597433D01*
X90254892Y-119536134D01*
X90116827Y-119534667D01*
X90014502Y-119561616D01*
X89955986Y-119631797D01*
X89929147Y-119783766D01*
X89921857Y-120056075D01*
X89921667Y-120155000D01*
X89924779Y-120464636D01*
X89942903Y-120641847D01*
X89989214Y-120723532D01*
X90076892Y-120746588D01*
X90133334Y-120747667D01*
X90307815Y-120701080D01*
X90372055Y-120557167D01*
X90351593Y-120402005D01*
X90260014Y-120366667D01*
X90153540Y-120305684D01*
X90149452Y-120218500D01*
X90242721Y-120101165D01*
X90451993Y-120061867D01*
X90616622Y-120064860D01*
X90697080Y-120116373D01*
X90723507Y-120260114D01*
X90726000Y-120459233D01*
X90671989Y-120807802D01*
X90508124Y-121028317D01*
X90231660Y-121123879D01*
X90133334Y-121128667D01*
X89894214Y-121079241D01*
X89728839Y-120996866D01*
X89633047Y-120911519D01*
X89576435Y-120793572D01*
X89549033Y-120600729D01*
X89540871Y-120290697D01*
X89540667Y-120198580D01*
X89555977Y-119789944D01*
X89611889Y-119516365D01*
X89723378Y-119345518D01*
X89905417Y-119245076D01*
X89994392Y-119219098D01*
X90208219Y-119211841D01*
X90428653Y-119269516D01*
G36*
X103851521Y-119815539D02*
G01*
X104060478Y-119925190D01*
X104163474Y-120142214D01*
X104188000Y-120444259D01*
X104138867Y-120797262D01*
X103998577Y-121026214D01*
X103777797Y-121118057D01*
X103644875Y-121109323D01*
X103451932Y-121124863D01*
X103370384Y-121267301D01*
X103382930Y-121463509D01*
X103367290Y-121602627D01*
X103251805Y-121636667D01*
X103179499Y-121624777D01*
X103132134Y-121569564D01*
X103104489Y-121441717D01*
X103091341Y-121211920D01*
X103087468Y-120850862D01*
X103087334Y-120713461D01*
X103087334Y-120451334D01*
X103341334Y-120451334D01*
X103394469Y-120691497D01*
X103531693Y-120835608D01*
X103678238Y-120855210D01*
X103771857Y-120765742D01*
X103824253Y-120530847D01*
X103832806Y-120429405D01*
X103839250Y-120183991D01*
X103808030Y-120064376D01*
X103725473Y-120028733D01*
X103701572Y-120028000D01*
X103482981Y-120099904D01*
X103360137Y-120298427D01*
X103341334Y-120451334D01*
X103087334Y-120451334D01*
X103087334Y-119790255D01*
X103509476Y-119786985D01*
X103851521Y-119815539D01*
X103851521Y-119815539D01*
G37*
X103851521Y-119815539D02*
X104060478Y-119925190D01*
X104163474Y-120142214D01*
X104188000Y-120444259D01*
X104138867Y-120797262D01*
X103998577Y-121026214D01*
X103777797Y-121118057D01*
X103644875Y-121109323D01*
X103451932Y-121124863D01*
X103370384Y-121267301D01*
X103382930Y-121463509D01*
X103367290Y-121602627D01*
X103251805Y-121636667D01*
X103179499Y-121624777D01*
X103132134Y-121569564D01*
X103104489Y-121441717D01*
X103091341Y-121211920D01*
X103087468Y-120850862D01*
X103087334Y-120713461D01*
X103087334Y-120451334D01*
X103341334Y-120451334D01*
X103394469Y-120691497D01*
X103531693Y-120835608D01*
X103678238Y-120855210D01*
X103771857Y-120765742D01*
X103824253Y-120530847D01*
X103832806Y-120429405D01*
X103839250Y-120183991D01*
X103808030Y-120064376D01*
X103725473Y-120028733D01*
X103701572Y-120028000D01*
X103482981Y-120099904D01*
X103360137Y-120298427D01*
X103341334Y-120451334D01*
X103087334Y-120451334D01*
X103087334Y-119790255D01*
X103509476Y-119786985D01*
X103851521Y-119815539D01*
G36*
X82804830Y-113329004D02*
G01*
X83186370Y-113455173D01*
X83436848Y-113627344D01*
X83534093Y-113779535D01*
X83666525Y-114052782D01*
X83816206Y-114407360D01*
X83955066Y-114775004D01*
X84554159Y-116245765D01*
X85256997Y-117586842D01*
X86067891Y-118805614D01*
X86890665Y-119800779D01*
X87203250Y-120158152D01*
X87409772Y-120446440D01*
X87529261Y-120710686D01*
X87580746Y-120995936D01*
X87583255Y-121347234D01*
X87579459Y-121431259D01*
X87553136Y-121775688D01*
X87503790Y-122011865D01*
X87412399Y-122200825D01*
X87286587Y-122370973D01*
X86966443Y-122663487D01*
X86546408Y-122898547D01*
X86264008Y-123010609D01*
X86054780Y-123057321D01*
X85839308Y-123046751D01*
X85581823Y-122996553D01*
X84333920Y-122759553D01*
X83177382Y-122619857D01*
X82065500Y-122576739D01*
X80951568Y-122629470D01*
X79788880Y-122777323D01*
X79126667Y-122895999D01*
X78670079Y-122979366D01*
X78335597Y-123023226D01*
X78081082Y-123029274D01*
X77864397Y-122999202D01*
X77699456Y-122953350D01*
X77264812Y-122751751D01*
X76955900Y-122459563D01*
X76763343Y-122061891D01*
X76677763Y-121543841D01*
X76671333Y-121320374D01*
X76674080Y-121268728D01*
X76758342Y-121268728D01*
X76769556Y-121509624D01*
X76823765Y-121977854D01*
X76944523Y-122319825D01*
X77151363Y-122571956D01*
X77439352Y-122758369D01*
X77666009Y-122865378D01*
X77828450Y-122897295D01*
X78011439Y-122859517D01*
X78168670Y-122804806D01*
X78424752Y-122645084D01*
X78555183Y-122466139D01*
X78647407Y-122299587D01*
X78723049Y-122229343D01*
X78723615Y-122229334D01*
X78804916Y-122172660D01*
X78978503Y-122018541D01*
X79218506Y-121790824D01*
X79486114Y-121526388D01*
X80117708Y-120962267D01*
X80735174Y-120560070D01*
X81351766Y-120314615D01*
X81980734Y-120220721D01*
X82635332Y-120273206D01*
X82672922Y-120280350D01*
X83048235Y-120364733D01*
X83370504Y-120469231D01*
X83668333Y-120612232D01*
X83970328Y-120812125D01*
X84305094Y-121087299D01*
X84701237Y-121456144D01*
X85075249Y-121824707D01*
X85427609Y-122171245D01*
X85743692Y-122471584D01*
X86002503Y-122706615D01*
X86183050Y-122857227D01*
X86261787Y-122904807D01*
X86398021Y-122870623D01*
X86617768Y-122786857D01*
X86712710Y-122745340D01*
X87101827Y-122485037D01*
X87359897Y-122117781D01*
X87485895Y-121645095D01*
X87491806Y-121584836D01*
X87512467Y-121203614D01*
X87480886Y-120949861D01*
X87370725Y-120783706D01*
X87155645Y-120665275D01*
X86811769Y-120555400D01*
X86459195Y-120460007D01*
X86124055Y-120377990D01*
X85878328Y-120326954D01*
X85876460Y-120326642D01*
X85032913Y-120117433D01*
X84310584Y-119790295D01*
X83708608Y-119344649D01*
X83226123Y-118779912D01*
X82994821Y-118386020D01*
X82751877Y-117764421D01*
X82647878Y-117119140D01*
X82682430Y-116427666D01*
X82855139Y-115667486D01*
X82942412Y-115397629D01*
X83118533Y-114849852D01*
X83245716Y-114376686D01*
X83318302Y-114003068D01*
X83330636Y-113753933D01*
X83324009Y-113715458D01*
X83249367Y-113585017D01*
X83077208Y-113489424D01*
X82842710Y-113421771D01*
X82455567Y-113364486D01*
X82027217Y-113356757D01*
X81613819Y-113394454D01*
X81271531Y-113473448D01*
X81106842Y-113549433D01*
X81004257Y-113634051D01*
X80943545Y-113743147D01*
X80927086Y-113900831D01*
X80957263Y-114131212D01*
X81036456Y-114458398D01*
X81167046Y-114906498D01*
X81275589Y-115257922D01*
X81454587Y-115865442D01*
X81570708Y-116355147D01*
X81628831Y-116764410D01*
X81633836Y-117130603D01*
X81590602Y-117491097D01*
X81576798Y-117564775D01*
X81438756Y-118019101D01*
X81210672Y-118513586D01*
X80929457Y-118976330D01*
X80708204Y-119256763D01*
X80404637Y-119533681D01*
X80023687Y-119773648D01*
X79543870Y-119985722D01*
X78943702Y-120178965D01*
X78201700Y-120362437D01*
X77966007Y-120413206D01*
X77603960Y-120501954D01*
X77273690Y-120605148D01*
X77036396Y-120703195D01*
X77004468Y-120721076D01*
X76868568Y-120810092D01*
X76791223Y-120900912D01*
X76758968Y-121038726D01*
X76758342Y-121268728D01*
X76674080Y-121268728D01*
X76689453Y-120979756D01*
X76756544Y-120687663D01*
X76891702Y-120406149D01*
X77114023Y-120097265D01*
X77442605Y-119723064D01*
X77513424Y-119647000D01*
X78007231Y-119058423D01*
X78514574Y-118342645D01*
X79013432Y-117538023D01*
X79481786Y-116682915D01*
X79897619Y-115815678D01*
X80238910Y-114974671D01*
X80308076Y-114778667D01*
X80498086Y-114264078D01*
X80675248Y-113890505D01*
X80858257Y-113632595D01*
X81065810Y-113464996D01*
X81316605Y-113362354D01*
X81361336Y-113350431D01*
X81849680Y-113270945D01*
X82345055Y-113265698D01*
X82804830Y-113329004D01*
X82804830Y-113329004D01*
G37*
X82804830Y-113329004D02*
X83186370Y-113455173D01*
X83436848Y-113627344D01*
X83534093Y-113779535D01*
X83666525Y-114052782D01*
X83816206Y-114407360D01*
X83955066Y-114775004D01*
X84554159Y-116245765D01*
X85256997Y-117586842D01*
X86067891Y-118805614D01*
X86890665Y-119800779D01*
X87203250Y-120158152D01*
X87409772Y-120446440D01*
X87529261Y-120710686D01*
X87580746Y-120995936D01*
X87583255Y-121347234D01*
X87579459Y-121431259D01*
X87553136Y-121775688D01*
X87503790Y-122011865D01*
X87412399Y-122200825D01*
X87286587Y-122370973D01*
X86966443Y-122663487D01*
X86546408Y-122898547D01*
X86264008Y-123010609D01*
X86054780Y-123057321D01*
X85839308Y-123046751D01*
X85581823Y-122996553D01*
X84333920Y-122759553D01*
X83177382Y-122619857D01*
X82065500Y-122576739D01*
X80951568Y-122629470D01*
X79788880Y-122777323D01*
X79126667Y-122895999D01*
X78670079Y-122979366D01*
X78335597Y-123023226D01*
X78081082Y-123029274D01*
X77864397Y-122999202D01*
X77699456Y-122953350D01*
X77264812Y-122751751D01*
X76955900Y-122459563D01*
X76763343Y-122061891D01*
X76677763Y-121543841D01*
X76671333Y-121320374D01*
X76674080Y-121268728D01*
X76758342Y-121268728D01*
X76769556Y-121509624D01*
X76823765Y-121977854D01*
X76944523Y-122319825D01*
X77151363Y-122571956D01*
X77439352Y-122758369D01*
X77666009Y-122865378D01*
X77828450Y-122897295D01*
X78011439Y-122859517D01*
X78168670Y-122804806D01*
X78424752Y-122645084D01*
X78555183Y-122466139D01*
X78647407Y-122299587D01*
X78723049Y-122229343D01*
X78723615Y-122229334D01*
X78804916Y-122172660D01*
X78978503Y-122018541D01*
X79218506Y-121790824D01*
X79486114Y-121526388D01*
X80117708Y-120962267D01*
X80735174Y-120560070D01*
X81351766Y-120314615D01*
X81980734Y-120220721D01*
X82635332Y-120273206D01*
X82672922Y-120280350D01*
X83048235Y-120364733D01*
X83370504Y-120469231D01*
X83668333Y-120612232D01*
X83970328Y-120812125D01*
X84305094Y-121087299D01*
X84701237Y-121456144D01*
X85075249Y-121824707D01*
X85427609Y-122171245D01*
X85743692Y-122471584D01*
X86002503Y-122706615D01*
X86183050Y-122857227D01*
X86261787Y-122904807D01*
X86398021Y-122870623D01*
X86617768Y-122786857D01*
X86712710Y-122745340D01*
X87101827Y-122485037D01*
X87359897Y-122117781D01*
X87485895Y-121645095D01*
X87491806Y-121584836D01*
X87512467Y-121203614D01*
X87480886Y-120949861D01*
X87370725Y-120783706D01*
X87155645Y-120665275D01*
X86811769Y-120555400D01*
X86459195Y-120460007D01*
X86124055Y-120377990D01*
X85878328Y-120326954D01*
X85876460Y-120326642D01*
X85032913Y-120117433D01*
X84310584Y-119790295D01*
X83708608Y-119344649D01*
X83226123Y-118779912D01*
X82994821Y-118386020D01*
X82751877Y-117764421D01*
X82647878Y-117119140D01*
X82682430Y-116427666D01*
X82855139Y-115667486D01*
X82942412Y-115397629D01*
X83118533Y-114849852D01*
X83245716Y-114376686D01*
X83318302Y-114003068D01*
X83330636Y-113753933D01*
X83324009Y-113715458D01*
X83249367Y-113585017D01*
X83077208Y-113489424D01*
X82842710Y-113421771D01*
X82455567Y-113364486D01*
X82027217Y-113356757D01*
X81613819Y-113394454D01*
X81271531Y-113473448D01*
X81106842Y-113549433D01*
X81004257Y-113634051D01*
X80943545Y-113743147D01*
X80927086Y-113900831D01*
X80957263Y-114131212D01*
X81036456Y-114458398D01*
X81167046Y-114906498D01*
X81275589Y-115257922D01*
X81454587Y-115865442D01*
X81570708Y-116355147D01*
X81628831Y-116764410D01*
X81633836Y-117130603D01*
X81590602Y-117491097D01*
X81576798Y-117564775D01*
X81438756Y-118019101D01*
X81210672Y-118513586D01*
X80929457Y-118976330D01*
X80708204Y-119256763D01*
X80404637Y-119533681D01*
X80023687Y-119773648D01*
X79543870Y-119985722D01*
X78943702Y-120178965D01*
X78201700Y-120362437D01*
X77966007Y-120413206D01*
X77603960Y-120501954D01*
X77273690Y-120605148D01*
X77036396Y-120703195D01*
X77004468Y-120721076D01*
X76868568Y-120810092D01*
X76791223Y-120900912D01*
X76758968Y-121038726D01*
X76758342Y-121268728D01*
X76674080Y-121268728D01*
X76689453Y-120979756D01*
X76756544Y-120687663D01*
X76891702Y-120406149D01*
X77114023Y-120097265D01*
X77442605Y-119723064D01*
X77513424Y-119647000D01*
X78007231Y-119058423D01*
X78514574Y-118342645D01*
X79013432Y-117538023D01*
X79481786Y-116682915D01*
X79897619Y-115815678D01*
X80238910Y-114974671D01*
X80308076Y-114778667D01*
X80498086Y-114264078D01*
X80675248Y-113890505D01*
X80858257Y-113632595D01*
X81065810Y-113464996D01*
X81316605Y-113362354D01*
X81361336Y-113350431D01*
X81849680Y-113270945D01*
X82345055Y-113265698D01*
X82804830Y-113329004D01*
D10*
X239550000Y-70000000D02*
X239050000Y-70500000D01*
X239550000Y-71000000D02*
X239550000Y-70000000D01*
X239050000Y-70500000D02*
X239550000Y-71000000D01*
X239000000Y-72250000D02*
X238000000Y-72250000D01*
X239000000Y-72250000D02*
X239000000Y-71250000D01*
X239000000Y-66000000D02*
X239000000Y-67000000D01*
X232500000Y-72250000D02*
X233500000Y-72250000D01*
X232500000Y-72250000D02*
X232500000Y-71250000D01*
X232500000Y-66000000D02*
X232500000Y-67000000D01*
X232500000Y-66000000D02*
X233500000Y-66000000D01*
X239000000Y-66000000D02*
X238000000Y-66000000D01*
X239550000Y-63750000D02*
X239050000Y-64250000D01*
X239550000Y-64750000D02*
X239550000Y-63750000D01*
X239050000Y-64250000D02*
X239550000Y-64750000D01*
X239000000Y-66000000D02*
X238000000Y-66000000D01*
X239000000Y-66000000D02*
X239000000Y-65000000D01*
X239000000Y-59750000D02*
X239000000Y-60750000D01*
X232500000Y-66000000D02*
X233500000Y-66000000D01*
X232500000Y-66000000D02*
X232500000Y-65000000D01*
X232500000Y-59750000D02*
X232500000Y-60750000D01*
X232500000Y-59750000D02*
X233500000Y-59750000D01*
X239000000Y-59750000D02*
X238000000Y-59750000D01*
X239550000Y-76250000D02*
X239050000Y-76750000D01*
X239550000Y-77250000D02*
X239550000Y-76250000D01*
X239050000Y-76750000D02*
X239550000Y-77250000D01*
X239000000Y-78500000D02*
X238000000Y-78500000D01*
X239000000Y-78500000D02*
X239000000Y-77500000D01*
X239000000Y-72250000D02*
X239000000Y-73250000D01*
X232500000Y-78500000D02*
X233500000Y-78500000D01*
X232500000Y-78500000D02*
X232500000Y-77500000D01*
X232500000Y-72250000D02*
X232500000Y-73250000D01*
X232500000Y-72250000D02*
X233500000Y-72250000D01*
X239000000Y-72250000D02*
X238000000Y-72250000D01*
X239550000Y-91000000D02*
X239050000Y-91500000D01*
X239550000Y-92000000D02*
X239550000Y-91000000D01*
X239050000Y-91500000D02*
X239550000Y-92000000D01*
X239000000Y-93250000D02*
X238000000Y-93250000D01*
X239000000Y-93250000D02*
X239000000Y-92250000D01*
X239000000Y-87000000D02*
X239000000Y-88000000D01*
X232500000Y-93250000D02*
X233500000Y-93250000D01*
X232500000Y-93250000D02*
X232500000Y-92250000D01*
X232500000Y-87000000D02*
X232500000Y-88000000D01*
X232500000Y-87000000D02*
X233500000Y-87000000D01*
X239000000Y-87000000D02*
X238000000Y-87000000D01*
X239550000Y-84790000D02*
X239050000Y-85290000D01*
X239550000Y-85790000D02*
X239550000Y-84790000D01*
X239050000Y-85290000D02*
X239550000Y-85790000D01*
X239000000Y-87040000D02*
X238000000Y-87040000D01*
X239000000Y-87040000D02*
X239000000Y-86040000D01*
X239000000Y-80790000D02*
X239000000Y-81790000D01*
X232500000Y-87040000D02*
X233500000Y-87040000D01*
X232500000Y-87040000D02*
X232500000Y-86040000D01*
X232500000Y-80790000D02*
X232500000Y-81790000D01*
X232500000Y-80790000D02*
X233500000Y-80790000D01*
X239000000Y-80790000D02*
X238000000Y-80790000D01*
X113850000Y-145350000D02*
X113850000Y-148150000D01*
X120650000Y-145350000D02*
X120650000Y-148150000D01*
X116500000Y-147250000D02*
X116500000Y-146250000D01*
X118000000Y-147250000D02*
X116500000Y-147250000D01*
X118000000Y-146250000D02*
X118000000Y-147250000D01*
X116500000Y-146250000D02*
X118000000Y-146250000D01*
X116000000Y-146750000D02*
X118500000Y-146750000D01*
X113850000Y-144350000D02*
X114850000Y-144350000D01*
X113850000Y-144350000D02*
X113850000Y-145350000D01*
X113850000Y-149150000D02*
X113850000Y-148150000D01*
X113850000Y-149150000D02*
X114850000Y-149150000D01*
X120650000Y-149150000D02*
X120650000Y-148150000D01*
X120650000Y-149150000D02*
X119650000Y-149150000D01*
X120650000Y-144350000D02*
X120650000Y-145350000D01*
X120650000Y-144350000D02*
X119650000Y-144350000D01*
X143350000Y-110900000D02*
X143350000Y-111150000D01*
X143600000Y-110900000D02*
X143350000Y-110900000D01*
X143350000Y-112100000D02*
X143350000Y-111850000D01*
X143600000Y-112100000D02*
X143350000Y-112100000D01*
X145150000Y-110900000D02*
X144900000Y-110900000D01*
X145150000Y-111150000D02*
X145150000Y-110900000D01*
X145150000Y-112100000D02*
X144900000Y-112100000D01*
X145150000Y-111850000D02*
X145150000Y-112100000D01*
X145150000Y-105600000D02*
X145150000Y-105350000D01*
X144900000Y-105600000D02*
X145150000Y-105600000D01*
X145150000Y-104400000D02*
X145150000Y-104650000D01*
X144900000Y-104400000D02*
X145150000Y-104400000D01*
X143350000Y-105600000D02*
X143600000Y-105600000D01*
X143350000Y-105350000D02*
X143350000Y-105600000D01*
X143350000Y-104400000D02*
X143600000Y-104400000D01*
X143350000Y-104650000D02*
X143350000Y-104400000D01*
X167400000Y-107800000D02*
X166900000Y-107800000D01*
X167400000Y-107800000D02*
X167400000Y-108300000D01*
X167400000Y-117800000D02*
X166900000Y-117800000D01*
X167400000Y-117800000D02*
X167400000Y-117300000D01*
X162900000Y-107800000D02*
X162900000Y-108300000D01*
X162900000Y-107800000D02*
X163400000Y-107800000D01*
X162900000Y-117800000D02*
X163400000Y-117800000D01*
X162900000Y-117800000D02*
X162900000Y-117300000D01*
X216585000Y-99440000D02*
X217220000Y-98805000D01*
X216585000Y-99440000D02*
X217220000Y-100075000D01*
X217855000Y-99440000D02*
X216585000Y-99440000D01*
X217855000Y-101980000D02*
X217220000Y-101345000D01*
X217855000Y-101980000D02*
X217220000Y-102615000D01*
X217855000Y-101980000D02*
X216585000Y-101980000D01*
X224840000Y-137540000D02*
X224840000Y-138810000D01*
X229920000Y-137540000D02*
X224840000Y-137540000D01*
X229920000Y-138810000D02*
X229920000Y-137540000D01*
X218490000Y-96900000D02*
X218490000Y-95630000D01*
X219760000Y-95630000D02*
X218490000Y-95630000D01*
X236270000Y-95630000D02*
X236270000Y-96900000D01*
X236270000Y-95630000D02*
X235000000Y-95630000D01*
X236270000Y-138810000D02*
X236270000Y-137540000D01*
X236270000Y-138810000D02*
X235000000Y-138810000D01*
X218490000Y-138810000D02*
X218490000Y-137540000D01*
X218490000Y-138810000D02*
X219760000Y-138810000D01*
X127150000Y-107800000D02*
X126650000Y-107800000D01*
X127150000Y-107800000D02*
X127150000Y-108300000D01*
X127150000Y-117800000D02*
X126650000Y-117800000D01*
X127150000Y-117800000D02*
X127150000Y-117300000D01*
X122650000Y-107800000D02*
X122650000Y-108300000D01*
X122650000Y-107800000D02*
X123150000Y-107800000D01*
X122650000Y-117800000D02*
X123150000Y-117800000D01*
X122650000Y-117800000D02*
X122650000Y-117300000D01*
X140100000Y-61900000D02*
X140100000Y-62150000D01*
X140350000Y-61900000D02*
X140100000Y-61900000D01*
X140100000Y-63100000D02*
X140100000Y-62850000D01*
X140350000Y-63100000D02*
X140100000Y-63100000D01*
X141900000Y-61900000D02*
X141650000Y-61900000D01*
X141900000Y-62150000D02*
X141900000Y-61900000D01*
X141900000Y-63100000D02*
X141650000Y-63100000D01*
X141900000Y-62850000D02*
X141900000Y-63100000D01*
X61500000Y-71750000D02*
X61500000Y-66750000D01*
X68500000Y-71750000D02*
X68500000Y-66750000D01*
X68500000Y-78750000D02*
X68500000Y-77250000D01*
X61500000Y-77250000D02*
X61500000Y-78750000D01*
X68500000Y-78750000D02*
X61500000Y-78750000D01*
X183350000Y-61900000D02*
X183350000Y-62150000D01*
X183600000Y-61900000D02*
X183350000Y-61900000D01*
X183350000Y-63100000D02*
X183350000Y-62850000D01*
X183600000Y-63100000D02*
X183350000Y-63100000D01*
X185150000Y-61900000D02*
X184900000Y-61900000D01*
X185150000Y-62150000D02*
X185150000Y-61900000D01*
X185150000Y-63100000D02*
X184900000Y-63100000D01*
X185150000Y-62850000D02*
X185150000Y-63100000D01*
X164600000Y-61900000D02*
X164600000Y-62150000D01*
X164850000Y-61900000D02*
X164600000Y-61900000D01*
X164600000Y-63100000D02*
X164600000Y-62850000D01*
X164850000Y-63100000D02*
X164600000Y-63100000D01*
X166400000Y-61900000D02*
X166150000Y-61900000D01*
X166400000Y-62150000D02*
X166400000Y-61900000D01*
X166400000Y-63100000D02*
X166150000Y-63100000D01*
X166400000Y-62850000D02*
X166400000Y-63100000D01*
X121350000Y-61900000D02*
X121350000Y-62150000D01*
X121600000Y-61900000D02*
X121350000Y-61900000D01*
X121350000Y-63100000D02*
X121350000Y-62850000D01*
X121600000Y-63100000D02*
X121350000Y-63100000D01*
X123150000Y-61900000D02*
X122900000Y-61900000D01*
X123150000Y-62150000D02*
X123150000Y-61900000D01*
X123150000Y-63100000D02*
X122900000Y-63100000D01*
X123150000Y-62850000D02*
X123150000Y-63100000D01*
X96850000Y-61900000D02*
X96850000Y-62150000D01*
X97100000Y-61900000D02*
X96850000Y-61900000D01*
X96850000Y-63100000D02*
X96850000Y-62850000D01*
X97100000Y-63100000D02*
X96850000Y-63100000D01*
X98650000Y-61900000D02*
X98400000Y-61900000D01*
X98650000Y-62150000D02*
X98650000Y-61900000D01*
X98650000Y-63100000D02*
X98400000Y-63100000D01*
X98650000Y-62850000D02*
X98650000Y-63100000D01*
X78100000Y-61900000D02*
X78100000Y-62150000D01*
X78350000Y-61900000D02*
X78100000Y-61900000D01*
X78100000Y-63100000D02*
X78100000Y-62850000D01*
X78350000Y-63100000D02*
X78100000Y-63100000D01*
X79900000Y-61900000D02*
X79650000Y-61900000D01*
X79900000Y-62150000D02*
X79900000Y-61900000D01*
X79900000Y-63100000D02*
X79650000Y-63100000D01*
X79900000Y-62850000D02*
X79900000Y-63100000D01*
X97250000Y-108500000D02*
X98250000Y-108500000D01*
X97250000Y-108500000D02*
X97250000Y-107500000D01*
X105250000Y-108500000D02*
X105250000Y-107500000D01*
X105250000Y-108500000D02*
X104250000Y-108500000D01*
X105250000Y-100500000D02*
X104250000Y-100500000D01*
X105250000Y-100500000D02*
X105250000Y-101500000D01*
X97250000Y-100500000D02*
X97250000Y-101500000D01*
X97250000Y-100500000D02*
X98250000Y-100500000D01*
X79750000Y-108250000D02*
X79750000Y-107250000D01*
X79750000Y-108250000D02*
X78750000Y-108250000D01*
X79750000Y-100500000D02*
X78750000Y-100500000D01*
X79750000Y-100500000D02*
X79750000Y-101500000D01*
X71750000Y-108500000D02*
X72750000Y-108500000D01*
X71750000Y-108500000D02*
X71750000Y-107500000D01*
X71750000Y-100500000D02*
X71750000Y-101500000D01*
X71750000Y-100500000D02*
X72750000Y-100500000D01*
X87750000Y-105000000D02*
X87750000Y-104000000D01*
X89250000Y-105000000D02*
X87750000Y-105000000D01*
X89250000Y-104000000D02*
X89250000Y-105000000D01*
X87750000Y-104000000D02*
X89250000Y-104000000D01*
X87250000Y-104500000D02*
X89750000Y-104500000D01*
X150750001Y-103250001D02*
G75*
G02X150750001Y-106749999I1749999J-1749999D01*
G01*
X149500000Y-105750000D02*
X149750000Y-105750000D01*
X149500000Y-104250000D02*
X149500000Y-105750000D01*
X149500000Y-105000000D02*
X150500000Y-104250000D01*
X150500000Y-105750000D02*
X149500000Y-105000000D01*
X150500000Y-104250000D02*
X150500000Y-105750000D01*
X151000000Y-105000000D02*
X149000000Y-105000000D01*
X156249999Y-56250001D02*
G75*
G02X152750001Y-56250001I-1749999J-1749999D01*
G01*
X153750000Y-55000000D02*
X153750000Y-55250000D01*
X155250000Y-55000000D02*
X153750000Y-55000000D01*
X154500000Y-55000000D02*
X155250000Y-56000000D01*
X153750000Y-56000000D02*
X154500000Y-55000000D01*
X155250000Y-56000000D02*
X153750000Y-56000000D01*
X154500000Y-56500000D02*
X154500000Y-54500000D01*
X146500001Y-55749999D02*
G75*
G02X149999999Y-55749999I1749999J1749999D01*
G01*
X149000000Y-57000000D02*
X149000000Y-56750000D01*
X147500000Y-57000000D02*
X149000000Y-57000000D01*
X148250000Y-57000000D02*
X147500000Y-56000000D01*
X149000000Y-56000000D02*
X148250000Y-57000000D01*
X147500000Y-56000000D02*
X149000000Y-56000000D01*
X148250000Y-55500000D02*
X148250000Y-57500000D01*
X112999999Y-56250001D02*
G75*
G02X109500001Y-56250001I-1749999J-1749999D01*
G01*
X110500000Y-55000000D02*
X110500000Y-55250000D01*
X112000000Y-55000000D02*
X110500000Y-55000000D01*
X111250000Y-55000000D02*
X112000000Y-56000000D01*
X110500000Y-56000000D02*
X111250000Y-55000000D01*
X112000000Y-56000000D02*
X110500000Y-56000000D01*
X111250000Y-56500000D02*
X111250000Y-54500000D01*
X103250001Y-55749999D02*
G75*
G02X106749999Y-55749999I1749999J1749999D01*
G01*
X105750000Y-57000000D02*
X105750000Y-56750000D01*
X104250000Y-57000000D02*
X105750000Y-57000000D01*
X105000000Y-57000000D02*
X104250000Y-56000000D01*
X105750000Y-56000000D02*
X105000000Y-57000000D01*
X104250000Y-56000000D02*
X105750000Y-56000000D01*
X105000000Y-55500000D02*
X105000000Y-57500000D01*
X69749999Y-56250001D02*
G75*
G02X66250001Y-56250001I-1749999J-1749999D01*
G01*
X67250000Y-55000000D02*
X67250000Y-55250000D01*
X68750000Y-55000000D02*
X67250000Y-55000000D01*
X68000000Y-55000000D02*
X68750000Y-56000000D01*
X67250000Y-56000000D02*
X68000000Y-55000000D01*
X68750000Y-56000000D02*
X67250000Y-56000000D01*
X68000000Y-56500000D02*
X68000000Y-54500000D01*
X60000001Y-55749999D02*
G75*
G02X63499999Y-55749999I1749999J1749999D01*
G01*
X62500000Y-57000000D02*
X62500000Y-56750000D01*
X61000000Y-57000000D02*
X62500000Y-57000000D01*
X61750000Y-57000000D02*
X61000000Y-56000000D01*
X62500000Y-56000000D02*
X61750000Y-57000000D01*
X61000000Y-56000000D02*
X62500000Y-56000000D01*
X61750000Y-55500000D02*
X61750000Y-57500000D01*
X160000000Y-54750000D02*
X160000000Y-54500000D01*
X160000000Y-56500000D02*
X160000000Y-56250000D01*
X159750000Y-54750000D02*
X159750000Y-56250000D01*
X160250000Y-54750000D02*
X159750000Y-54750000D01*
X160250000Y-56250000D02*
X160250000Y-54750000D01*
X159750000Y-56250000D02*
X160250000Y-56250000D01*
X161749999Y-56250001D02*
G75*
G02X158250001Y-56250001I-1749999J-1749999D01*
G01*
X116750000Y-54750000D02*
X116750000Y-54500000D01*
X116750000Y-56500000D02*
X116750000Y-56250000D01*
X116500000Y-54750000D02*
X116500000Y-56250000D01*
X117000000Y-54750000D02*
X116500000Y-54750000D01*
X117000000Y-56250000D02*
X117000000Y-54750000D01*
X116500000Y-56250000D02*
X117000000Y-56250000D01*
X118499999Y-56250001D02*
G75*
G02X115000001Y-56250001I-1749999J-1749999D01*
G01*
X73500000Y-54750000D02*
X73500000Y-54500000D01*
X73500000Y-56500000D02*
X73500000Y-56250000D01*
X73250000Y-54750000D02*
X73250000Y-56250000D01*
X73750000Y-54750000D02*
X73250000Y-54750000D01*
X73750000Y-56250000D02*
X73750000Y-54750000D01*
X73250000Y-56250000D02*
X73750000Y-56250000D01*
X75249999Y-56250001D02*
G75*
G02X71750001Y-56250001I-1749999J-1749999D01*
G01*
X149250000Y-111500000D02*
X149000000Y-111500000D01*
X151000000Y-111500000D02*
X150750000Y-111500000D01*
X149250000Y-111750000D02*
X150750000Y-111750000D01*
X149250000Y-111250000D02*
X149250000Y-111750000D01*
X150750000Y-111250000D02*
X149250000Y-111250000D01*
X150750000Y-111750000D02*
X150750000Y-111250000D01*
X150750001Y-109750001D02*
G75*
G02X150750001Y-113249999I1749999J-1749999D01*
G01*
X214500000Y-102500000D02*
X213500000Y-102500000D01*
X214500000Y-102500000D02*
X214500000Y-103500000D01*
X188750000Y-102500000D02*
X188750000Y-103500000D01*
X188750000Y-102500000D02*
X189750000Y-102500000D01*
X188750000Y-148750000D02*
X189750000Y-148750000D01*
X188750000Y-148750000D02*
X188750000Y-147750000D01*
X214500000Y-148750000D02*
X214500000Y-147750000D01*
X214500000Y-148750000D02*
X213500000Y-148750000D01*
X64000000Y-149500000D02*
X63500000Y-149000000D01*
X63000000Y-149500000D02*
X64000000Y-149500000D01*
X63500000Y-149000000D02*
X63000000Y-149500000D01*
X60500000Y-149000000D02*
X60500000Y-148000000D01*
X60500000Y-149000000D02*
X61500000Y-149000000D01*
X71500000Y-149000000D02*
X70500000Y-149000000D01*
X60500000Y-141000000D02*
X60500000Y-142000000D01*
X60500000Y-141000000D02*
X61500000Y-141000000D01*
X71500000Y-141000000D02*
X70500000Y-141000000D01*
X71500000Y-141000000D02*
X71500000Y-142000000D01*
X71500000Y-149000000D02*
X71500000Y-148000000D01*
X77500000Y-149500000D02*
X77000000Y-149000000D01*
X76500000Y-149500000D02*
X77500000Y-149500000D01*
X77000000Y-149000000D02*
X76500000Y-149500000D01*
X74000000Y-149000000D02*
X74000000Y-148000000D01*
X74000000Y-149000000D02*
X75000000Y-149000000D01*
X85000000Y-149000000D02*
X84000000Y-149000000D01*
X74000000Y-141000000D02*
X74000000Y-142000000D01*
X74000000Y-141000000D02*
X75000000Y-141000000D01*
X85000000Y-141000000D02*
X84000000Y-141000000D01*
X85000000Y-141000000D02*
X85000000Y-142000000D01*
X85000000Y-149000000D02*
X85000000Y-148000000D01*
X161000000Y-69750000D02*
X161000000Y-66750000D01*
X168000000Y-69750000D02*
X168000000Y-66750000D01*
X168000000Y-78500000D02*
X168000000Y-77500000D01*
X161000000Y-77500000D02*
X161000000Y-78500000D01*
X168000000Y-78500000D02*
X161000000Y-78500000D01*
X161000000Y-84500000D02*
X161000000Y-81500000D01*
X168000000Y-84500000D02*
X168000000Y-81500000D01*
X168000000Y-93250000D02*
X168000000Y-92250000D01*
X161000000Y-92250000D02*
X161000000Y-93250000D01*
X168000000Y-93250000D02*
X161000000Y-93250000D01*
X182750000Y-69750000D02*
X182750000Y-66750000D01*
X189750000Y-69750000D02*
X189750000Y-66750000D01*
X189750000Y-78500000D02*
X189750000Y-77500000D01*
X182750000Y-77500000D02*
X182750000Y-78500000D01*
X189750000Y-78500000D02*
X182750000Y-78500000D01*
X182750000Y-84500000D02*
X182750000Y-81500000D01*
X189750000Y-84500000D02*
X189750000Y-81500000D01*
X189750000Y-93250000D02*
X189750000Y-92250000D01*
X182750000Y-92250000D02*
X182750000Y-93250000D01*
X189750000Y-93250000D02*
X182750000Y-93250000D01*
X117750000Y-69750000D02*
X117750000Y-66750000D01*
X124750000Y-69750000D02*
X124750000Y-66750000D01*
X124750000Y-78500000D02*
X124750000Y-77500000D01*
X117750000Y-77500000D02*
X117750000Y-78500000D01*
X124750000Y-78500000D02*
X117750000Y-78500000D01*
X117750000Y-84500000D02*
X117750000Y-81500000D01*
X124750000Y-84500000D02*
X124750000Y-81500000D01*
X124750000Y-93250000D02*
X124750000Y-92250000D01*
X117750000Y-92250000D02*
X117750000Y-93250000D01*
X124750000Y-93250000D02*
X117750000Y-93250000D01*
X139500000Y-69750000D02*
X139500000Y-66750000D01*
X146500000Y-69750000D02*
X146500000Y-66750000D01*
X146500000Y-78500000D02*
X146500000Y-77500000D01*
X139500000Y-77500000D02*
X139500000Y-78500000D01*
X146500000Y-78500000D02*
X139500000Y-78500000D01*
X139500000Y-84500000D02*
X139500000Y-81500000D01*
X146500000Y-84500000D02*
X146500000Y-81500000D01*
X146500000Y-93250000D02*
X146500000Y-92250000D01*
X139500000Y-92250000D02*
X139500000Y-93250000D01*
X146500000Y-93250000D02*
X139500000Y-93250000D01*
X200250000Y-62750000D02*
X198000000Y-62750000D01*
X200250000Y-62741600D02*
X200250000Y-60500000D01*
X187514800Y-62750000D02*
X187500000Y-60500000D01*
X187500000Y-52250000D02*
X187500000Y-54500000D01*
X187500000Y-52250000D02*
X190000000Y-52250000D01*
X199250000Y-52250000D02*
X198000000Y-52250000D01*
X200250000Y-53250000D02*
X199250000Y-52250000D01*
X189750000Y-62750000D02*
X187514800Y-62750000D01*
X200250000Y-54500000D02*
X200250000Y-53250000D01*
X214000000Y-62750000D02*
X211750000Y-62750000D01*
X214000000Y-62741600D02*
X214000000Y-60500000D01*
X201264800Y-62750000D02*
X201250000Y-60500000D01*
X201250000Y-52250000D02*
X201250000Y-54500000D01*
X201250000Y-52250000D02*
X203750000Y-52250000D01*
X213000000Y-52250000D02*
X211750000Y-52250000D01*
X214000000Y-53250000D02*
X213000000Y-52250000D01*
X203500000Y-62750000D02*
X201264800Y-62750000D01*
X214000000Y-54500000D02*
X214000000Y-53250000D01*
X227750000Y-62750000D02*
X225500000Y-62750000D01*
X227750000Y-62741600D02*
X227750000Y-60500000D01*
X215014800Y-62750000D02*
X215000000Y-60500000D01*
X215000000Y-52250000D02*
X215000000Y-54500000D01*
X215000000Y-52250000D02*
X217500000Y-52250000D01*
X226750000Y-52250000D02*
X225500000Y-52250000D01*
X227750000Y-53250000D02*
X226750000Y-52250000D01*
X217250000Y-62750000D02*
X215014800Y-62750000D01*
X227750000Y-54500000D02*
X227750000Y-53250000D01*
X182250000Y-50500000D02*
X182750000Y-51000000D01*
X183250000Y-50500000D02*
X182250000Y-50500000D01*
X182750000Y-51000000D02*
X183250000Y-50500000D01*
X185750000Y-51000000D02*
X185750000Y-52000000D01*
X185750000Y-51000000D02*
X184750000Y-51000000D01*
X174750000Y-51000000D02*
X175750000Y-51000000D01*
X185750000Y-59000000D02*
X185750000Y-58000000D01*
X185750000Y-59000000D02*
X184750000Y-59000000D01*
X174750000Y-59000000D02*
X175750000Y-59000000D01*
X174750000Y-59000000D02*
X174750000Y-58000000D01*
X174750000Y-51000000D02*
X174750000Y-52000000D01*
X172250000Y-50500000D02*
X172750000Y-51000000D01*
X173250000Y-50500000D02*
X172250000Y-50500000D01*
X172750000Y-51000000D02*
X173250000Y-50500000D01*
X175750000Y-51000000D02*
X175750000Y-52000000D01*
X175750000Y-51000000D02*
X174750000Y-51000000D01*
X164750000Y-51000000D02*
X165750000Y-51000000D01*
X175750000Y-59000000D02*
X175750000Y-58000000D01*
X175750000Y-59000000D02*
X174750000Y-59000000D01*
X164750000Y-59000000D02*
X165750000Y-59000000D01*
X164750000Y-59000000D02*
X164750000Y-58000000D01*
X164750000Y-51000000D02*
X164750000Y-52000000D01*
X139000000Y-50500000D02*
X139500000Y-51000000D01*
X140000000Y-50500000D02*
X139000000Y-50500000D01*
X139500000Y-51000000D02*
X140000000Y-50500000D01*
X142500000Y-51000000D02*
X142500000Y-52000000D01*
X142500000Y-51000000D02*
X141500000Y-51000000D01*
X131500000Y-51000000D02*
X132500000Y-51000000D01*
X142500000Y-59000000D02*
X142500000Y-58000000D01*
X142500000Y-59000000D02*
X141500000Y-59000000D01*
X131500000Y-59000000D02*
X132500000Y-59000000D01*
X131500000Y-59000000D02*
X131500000Y-58000000D01*
X131500000Y-51000000D02*
X131500000Y-52000000D01*
X129000000Y-50500000D02*
X129500000Y-51000000D01*
X130000000Y-50500000D02*
X129000000Y-50500000D01*
X129500000Y-51000000D02*
X130000000Y-50500000D01*
X132500000Y-51000000D02*
X132500000Y-52000000D01*
X132500000Y-51000000D02*
X131500000Y-51000000D01*
X121500000Y-51000000D02*
X122500000Y-51000000D01*
X132500000Y-59000000D02*
X132500000Y-58000000D01*
X132500000Y-59000000D02*
X131500000Y-59000000D01*
X121500000Y-59000000D02*
X122500000Y-59000000D01*
X121500000Y-59000000D02*
X121500000Y-58000000D01*
X121500000Y-51000000D02*
X121500000Y-52000000D01*
X85750000Y-50500000D02*
X86250000Y-51000000D01*
X86750000Y-50500000D02*
X85750000Y-50500000D01*
X86250000Y-51000000D02*
X86750000Y-50500000D01*
X89250000Y-51000000D02*
X89250000Y-52000000D01*
X89250000Y-51000000D02*
X88250000Y-51000000D01*
X78250000Y-51000000D02*
X79250000Y-51000000D01*
X89250000Y-59000000D02*
X89250000Y-58000000D01*
X89250000Y-59000000D02*
X88250000Y-59000000D01*
X78250000Y-59000000D02*
X79250000Y-59000000D01*
X78250000Y-59000000D02*
X78250000Y-58000000D01*
X78250000Y-51000000D02*
X78250000Y-52000000D01*
X95750000Y-50500000D02*
X96250000Y-51000000D01*
X96750000Y-50500000D02*
X95750000Y-50500000D01*
X96250000Y-51000000D02*
X96750000Y-50500000D01*
X99250000Y-51000000D02*
X99250000Y-52000000D01*
X99250000Y-51000000D02*
X98250000Y-51000000D01*
X88250000Y-51000000D02*
X89250000Y-51000000D01*
X99250000Y-59000000D02*
X99250000Y-58000000D01*
X99250000Y-59000000D02*
X98250000Y-59000000D01*
X88250000Y-59000000D02*
X89250000Y-59000000D01*
X88250000Y-59000000D02*
X88250000Y-58000000D01*
X88250000Y-51000000D02*
X88250000Y-52000000D01*
X74500000Y-69750000D02*
X74500000Y-66750000D01*
X81500000Y-69750000D02*
X81500000Y-66750000D01*
X81500000Y-78500000D02*
X81500000Y-77500000D01*
X74500000Y-77500000D02*
X74500000Y-78500000D01*
X81500000Y-78500000D02*
X74500000Y-78500000D01*
X74500000Y-84500000D02*
X74500000Y-81500000D01*
X81500000Y-84500000D02*
X81500000Y-81500000D01*
X81500000Y-93250000D02*
X81500000Y-92250000D01*
X74500000Y-92250000D02*
X74500000Y-93250000D01*
X81500000Y-93250000D02*
X74500000Y-93250000D01*
X96250000Y-69750000D02*
X96250000Y-66750000D01*
X103250000Y-69750000D02*
X103250000Y-66750000D01*
X103250000Y-78500000D02*
X103250000Y-77500000D01*
X96250000Y-77500000D02*
X96250000Y-78500000D01*
X103250000Y-78500000D02*
X96250000Y-78500000D01*
X96250000Y-84500000D02*
X96250000Y-81500000D01*
X103250000Y-84500000D02*
X103250000Y-81500000D01*
X103250000Y-93250000D02*
X103250000Y-92250000D01*
X96250000Y-92250000D02*
X96250000Y-93250000D01*
X103250000Y-93250000D02*
X96250000Y-93250000D01*
X50750000Y-116500000D02*
X51250000Y-116000000D01*
X50750000Y-115500000D02*
X50750000Y-116500000D01*
X51250000Y-116000000D02*
X50750000Y-115500000D01*
X51250000Y-113000000D02*
X52250000Y-113000000D01*
X51250000Y-113000000D02*
X51250000Y-114000000D01*
X51250000Y-124000000D02*
X51250000Y-123000000D01*
X59250000Y-113000000D02*
X58250000Y-113000000D01*
X59250000Y-113000000D02*
X59250000Y-114000000D01*
X59250000Y-124000000D02*
X59250000Y-123000000D01*
X59250000Y-124000000D02*
X58250000Y-124000000D01*
X51250000Y-124000000D02*
X52250000Y-124000000D01*
X50750000Y-102250000D02*
X51250000Y-101750000D01*
X50750000Y-101250000D02*
X50750000Y-102250000D01*
X51250000Y-101750000D02*
X50750000Y-101250000D01*
X51250000Y-98750000D02*
X52250000Y-98750000D01*
X51250000Y-98750000D02*
X51250000Y-99750000D01*
X51250000Y-109750000D02*
X51250000Y-108750000D01*
X59250000Y-98750000D02*
X58250000Y-98750000D01*
X59250000Y-98750000D02*
X59250000Y-99750000D01*
X59250000Y-109750000D02*
X59250000Y-108750000D01*
X59250000Y-109750000D02*
X58250000Y-109750000D01*
X51250000Y-109750000D02*
X52250000Y-109750000D01*
X98000000Y-149500000D02*
X97500000Y-149000000D01*
X97000000Y-149500000D02*
X98000000Y-149500000D01*
X97500000Y-149000000D02*
X97000000Y-149500000D01*
X94500000Y-149000000D02*
X94500000Y-148000000D01*
X94500000Y-149000000D02*
X95500000Y-149000000D01*
X105500000Y-149000000D02*
X104500000Y-149000000D01*
X94500000Y-141000000D02*
X94500000Y-142000000D01*
X94500000Y-141000000D02*
X95500000Y-141000000D01*
X105500000Y-141000000D02*
X104500000Y-141000000D01*
X105500000Y-141000000D02*
X105500000Y-142000000D01*
X105500000Y-149000000D02*
X105500000Y-148000000D01*
X208500000Y-94000000D02*
G75*
G03X208500000Y-93000000I0J500000D01*
G01*
X208500000Y-95000000D02*
G75*
G03X208500000Y-94000000I0J500000D01*
G01*
X208500000Y-96000000D02*
G75*
G03X208500000Y-95000000I0J500000D01*
G01*
X208500000Y-93000000D02*
X208500000Y-92500000D01*
X208500000Y-97000000D02*
G75*
G03X208500000Y-96000000I0J500000D01*
G01*
X208500000Y-97000000D02*
X208500000Y-97500000D01*
X198500000Y-97000000D02*
X198500000Y-97500000D01*
X198500000Y-93000000D02*
X198500000Y-92500000D01*
X198500000Y-97000000D02*
G75*
G02X198500000Y-96000000I0J500000D01*
G01*
X198500000Y-96000000D02*
G75*
G02X198500000Y-95000000I0J500000D01*
G01*
X198500000Y-94000000D02*
G75*
G02X198500000Y-93000000I0J500000D01*
G01*
X198500000Y-95000000D02*
G75*
G02X198500000Y-94000000I0J500000D01*
G01*
X192500000Y-88000000D02*
X193500000Y-88000000D01*
X192500000Y-88000000D02*
X192500000Y-89000000D01*
X214500000Y-102000000D02*
X214500000Y-101000000D01*
X214500000Y-102000000D02*
X213500000Y-102000000D01*
X214500000Y-88000000D02*
X214500000Y-89000000D01*
X214500000Y-88000000D02*
X213500000Y-88000000D01*
X192500000Y-102000000D02*
X192500000Y-101000000D01*
X192500000Y-102000000D02*
X193500000Y-102000000D01*
X230535714Y-66171428D02*
X230935714Y-66771428D01*
X230935714Y-66171428D02*
X230535714Y-66771428D01*
X231078571Y-66171428D02*
X231421428Y-66171428D01*
X231250000Y-66771428D02*
X231250000Y-66171428D01*
X231707142Y-66428571D02*
X231650000Y-66400000D01*
X231621428Y-66371428D01*
X231592857Y-66314285D01*
X231592857Y-66285714D01*
X231621428Y-66228571D01*
X231650000Y-66200000D01*
X231707142Y-66171428D01*
X231821428Y-66171428D01*
X231878571Y-66200000D01*
X231907142Y-66228571D01*
X231935714Y-66285714D01*
X231935714Y-66314285D01*
X231907142Y-66371428D01*
X231878571Y-66400000D01*
X231821428Y-66428571D01*
X231707142Y-66428571D01*
X231650000Y-66457142D01*
X231621428Y-66485714D01*
X231592857Y-66542857D01*
X231592857Y-66657142D01*
X231621428Y-66714285D01*
X231650000Y-66742857D01*
X231707142Y-66771428D01*
X231821428Y-66771428D01*
X231878571Y-66742857D01*
X231907142Y-66714285D01*
X231935714Y-66657142D01*
X231935714Y-66542857D01*
X231907142Y-66485714D01*
X231878571Y-66457142D01*
X231821428Y-66428571D01*
X230785714Y-60171428D02*
X231185714Y-60771428D01*
X231185714Y-60171428D02*
X230785714Y-60771428D01*
X231328571Y-60171428D02*
X231671428Y-60171428D01*
X231500000Y-60771428D02*
X231500000Y-60171428D01*
X231814285Y-60171428D02*
X232214285Y-60171428D01*
X231957142Y-60771428D01*
X230535714Y-72671428D02*
X230935714Y-73271428D01*
X230935714Y-72671428D02*
X230535714Y-73271428D01*
X231078571Y-72671428D02*
X231421428Y-72671428D01*
X231250000Y-73271428D02*
X231250000Y-72671428D01*
X231878571Y-72671428D02*
X231764285Y-72671428D01*
X231707142Y-72700000D01*
X231678571Y-72728571D01*
X231621428Y-72814285D01*
X231592857Y-72928571D01*
X231592857Y-73157142D01*
X231621428Y-73214285D01*
X231650000Y-73242857D01*
X231707142Y-73271428D01*
X231821428Y-73271428D01*
X231878571Y-73242857D01*
X231907142Y-73214285D01*
X231935714Y-73157142D01*
X231935714Y-73014285D01*
X231907142Y-72957142D01*
X231878571Y-72928571D01*
X231821428Y-72900000D01*
X231707142Y-72900000D01*
X231650000Y-72928571D01*
X231621428Y-72957142D01*
X231592857Y-73014285D01*
X230535714Y-87171428D02*
X230935714Y-87771428D01*
X230935714Y-87171428D02*
X230535714Y-87771428D01*
X231078571Y-87171428D02*
X231421428Y-87171428D01*
X231250000Y-87771428D02*
X231250000Y-87171428D01*
X231907142Y-87171428D02*
X231621428Y-87171428D01*
X231592857Y-87457142D01*
X231621428Y-87428571D01*
X231678571Y-87400000D01*
X231821428Y-87400000D01*
X231878571Y-87428571D01*
X231907142Y-87457142D01*
X231935714Y-87514285D01*
X231935714Y-87657142D01*
X231907142Y-87714285D01*
X231878571Y-87742857D01*
X231821428Y-87771428D01*
X231678571Y-87771428D01*
X231621428Y-87742857D01*
X231592857Y-87714285D01*
X230535714Y-80921428D02*
X230935714Y-81521428D01*
X230935714Y-80921428D02*
X230535714Y-81521428D01*
X231078571Y-80921428D02*
X231421428Y-80921428D01*
X231250000Y-81521428D02*
X231250000Y-80921428D01*
X231878571Y-81121428D02*
X231878571Y-81521428D01*
X231735714Y-80892857D02*
X231592857Y-81321428D01*
X231964285Y-81321428D01*
X116735714Y-143957142D02*
X116535714Y-143957142D01*
X116535714Y-144271428D02*
X116535714Y-143671428D01*
X116821428Y-143671428D01*
X117050000Y-143671428D02*
X117050000Y-144157142D01*
X117078571Y-144214285D01*
X117107142Y-144242857D01*
X117164285Y-144271428D01*
X117278571Y-144271428D01*
X117335714Y-144242857D01*
X117364285Y-144214285D01*
X117392857Y-144157142D01*
X117392857Y-143671428D01*
X117650000Y-143728571D02*
X117678571Y-143700000D01*
X117735714Y-143671428D01*
X117878571Y-143671428D01*
X117935714Y-143700000D01*
X117964285Y-143728571D01*
X117992857Y-143785714D01*
X117992857Y-143842857D01*
X117964285Y-143928571D01*
X117621428Y-144271428D01*
X117992857Y-144271428D01*
X143478571Y-109921428D02*
X143878571Y-110521428D01*
X143878571Y-109921428D02*
X143478571Y-110521428D01*
X144421428Y-110521428D02*
X144078571Y-110521428D01*
X144250000Y-110521428D02*
X144250000Y-109921428D01*
X144192857Y-110007142D01*
X144135714Y-110064285D01*
X144078571Y-110092857D01*
X144764285Y-110178571D02*
X144707142Y-110150000D01*
X144678571Y-110121428D01*
X144650000Y-110064285D01*
X144650000Y-110035714D01*
X144678571Y-109978571D01*
X144707142Y-109950000D01*
X144764285Y-109921428D01*
X144878571Y-109921428D01*
X144935714Y-109950000D01*
X144964285Y-109978571D01*
X144992857Y-110035714D01*
X144992857Y-110064285D01*
X144964285Y-110121428D01*
X144935714Y-110150000D01*
X144878571Y-110178571D01*
X144764285Y-110178571D01*
X144707142Y-110207142D01*
X144678571Y-110235714D01*
X144650000Y-110292857D01*
X144650000Y-110407142D01*
X144678571Y-110464285D01*
X144707142Y-110492857D01*
X144764285Y-110521428D01*
X144878571Y-110521428D01*
X144935714Y-110492857D01*
X144964285Y-110464285D01*
X144992857Y-110407142D01*
X144992857Y-110292857D01*
X144964285Y-110235714D01*
X144935714Y-110207142D01*
X144878571Y-110178571D01*
X143478571Y-103421428D02*
X143878571Y-104021428D01*
X143878571Y-103421428D02*
X143478571Y-104021428D01*
X144421428Y-104021428D02*
X144078571Y-104021428D01*
X144250000Y-104021428D02*
X144250000Y-103421428D01*
X144192857Y-103507142D01*
X144135714Y-103564285D01*
X144078571Y-103592857D01*
X144621428Y-103421428D02*
X145021428Y-103421428D01*
X144764285Y-104021428D01*
X168421428Y-112964285D02*
X169021428Y-112764285D01*
X168421428Y-112564285D01*
X168421428Y-112450000D02*
X168421428Y-112107142D01*
X169021428Y-112278571D02*
X168421428Y-112278571D01*
X168478571Y-111935714D02*
X168450000Y-111907142D01*
X168421428Y-111850000D01*
X168421428Y-111707142D01*
X168450000Y-111650000D01*
X168478571Y-111621428D01*
X168535714Y-111592857D01*
X168592857Y-111592857D01*
X168678571Y-111621428D01*
X169021428Y-111964285D01*
X169021428Y-111592857D01*
X226951428Y-138910000D02*
X227237142Y-138910000D01*
X226894285Y-139081428D02*
X227094285Y-138481428D01*
X227294285Y-139081428D01*
X227808571Y-139081428D02*
X227465714Y-139081428D01*
X227637142Y-139081428D02*
X227637142Y-138481428D01*
X227580000Y-138567142D01*
X227522857Y-138624285D01*
X227465714Y-138652857D01*
X216848571Y-104791428D02*
X216648571Y-104505714D01*
X216505714Y-104791428D02*
X216505714Y-104191428D01*
X216734285Y-104191428D01*
X216791428Y-104220000D01*
X216820000Y-104248571D01*
X216848571Y-104305714D01*
X216848571Y-104391428D01*
X216820000Y-104448571D01*
X216791428Y-104477142D01*
X216734285Y-104505714D01*
X216505714Y-104505714D01*
X217105714Y-104477142D02*
X217305714Y-104477142D01*
X217391428Y-104791428D02*
X217105714Y-104791428D01*
X217105714Y-104191428D01*
X217391428Y-104191428D01*
X217620000Y-104762857D02*
X217705714Y-104791428D01*
X217848571Y-104791428D01*
X217905714Y-104762857D01*
X217934285Y-104734285D01*
X217962857Y-104677142D01*
X217962857Y-104620000D01*
X217934285Y-104562857D01*
X217905714Y-104534285D01*
X217848571Y-104505714D01*
X217734285Y-104477142D01*
X217677142Y-104448571D01*
X217648571Y-104420000D01*
X217620000Y-104362857D01*
X217620000Y-104305714D01*
X217648571Y-104248571D01*
X217677142Y-104220000D01*
X217734285Y-104191428D01*
X217877142Y-104191428D01*
X217962857Y-104220000D01*
X216762857Y-106760000D02*
X216705714Y-106731428D01*
X216620000Y-106731428D01*
X216534285Y-106760000D01*
X216477142Y-106817142D01*
X216448571Y-106874285D01*
X216420000Y-106988571D01*
X216420000Y-107074285D01*
X216448571Y-107188571D01*
X216477142Y-107245714D01*
X216534285Y-107302857D01*
X216620000Y-107331428D01*
X216677142Y-107331428D01*
X216762857Y-107302857D01*
X216791428Y-107274285D01*
X216791428Y-107074285D01*
X216677142Y-107074285D01*
X217048571Y-107331428D02*
X217048571Y-106731428D01*
X217391428Y-107331428D01*
X217391428Y-106731428D01*
X217677142Y-107331428D02*
X217677142Y-106731428D01*
X217820000Y-106731428D01*
X217905714Y-106760000D01*
X217962857Y-106817142D01*
X217991428Y-106874285D01*
X218020000Y-106988571D01*
X218020000Y-107074285D01*
X217991428Y-107188571D01*
X217962857Y-107245714D01*
X217905714Y-107302857D01*
X217820000Y-107331428D01*
X217677142Y-107331428D01*
X237082857Y-101680000D02*
X237025714Y-101651428D01*
X236940000Y-101651428D01*
X236854285Y-101680000D01*
X236797142Y-101737142D01*
X236768571Y-101794285D01*
X236740000Y-101908571D01*
X236740000Y-101994285D01*
X236768571Y-102108571D01*
X236797142Y-102165714D01*
X236854285Y-102222857D01*
X236940000Y-102251428D01*
X236997142Y-102251428D01*
X237082857Y-102222857D01*
X237111428Y-102194285D01*
X237111428Y-101994285D01*
X236997142Y-101994285D01*
X237368571Y-102251428D02*
X237368571Y-101651428D01*
X237711428Y-102251428D01*
X237711428Y-101651428D01*
X237997142Y-102251428D02*
X237997142Y-101651428D01*
X238140000Y-101651428D01*
X238225714Y-101680000D01*
X238282857Y-101737142D01*
X238311428Y-101794285D01*
X238340000Y-101908571D01*
X238340000Y-101994285D01*
X238311428Y-102108571D01*
X238282857Y-102165714D01*
X238225714Y-102222857D01*
X238140000Y-102251428D01*
X237997142Y-102251428D01*
X236882857Y-99111428D02*
X237082857Y-99711428D01*
X237282857Y-99111428D01*
X237482857Y-99711428D02*
X237482857Y-99111428D01*
X237768571Y-99711428D02*
X237768571Y-99111428D01*
X238111428Y-99711428D01*
X238111428Y-99111428D01*
X237168571Y-104791428D02*
X236968571Y-104505714D01*
X236825714Y-104791428D02*
X236825714Y-104191428D01*
X237054285Y-104191428D01*
X237111428Y-104220000D01*
X237140000Y-104248571D01*
X237168571Y-104305714D01*
X237168571Y-104391428D01*
X237140000Y-104448571D01*
X237111428Y-104477142D01*
X237054285Y-104505714D01*
X236825714Y-104505714D01*
X237425714Y-104477142D02*
X237625714Y-104477142D01*
X237711428Y-104791428D02*
X237425714Y-104791428D01*
X237425714Y-104191428D01*
X237711428Y-104191428D01*
X237940000Y-104762857D02*
X238025714Y-104791428D01*
X238168571Y-104791428D01*
X238225714Y-104762857D01*
X238254285Y-104734285D01*
X238282857Y-104677142D01*
X238282857Y-104620000D01*
X238254285Y-104562857D01*
X238225714Y-104534285D01*
X238168571Y-104505714D01*
X238054285Y-104477142D01*
X237997142Y-104448571D01*
X237968571Y-104420000D01*
X237940000Y-104362857D01*
X237940000Y-104305714D01*
X237968571Y-104248571D01*
X237997142Y-104220000D01*
X238054285Y-104191428D01*
X238197142Y-104191428D01*
X238282857Y-104220000D01*
X237425714Y-106731428D02*
X237140000Y-106731428D01*
X237111428Y-107017142D01*
X237140000Y-106988571D01*
X237197142Y-106960000D01*
X237340000Y-106960000D01*
X237397142Y-106988571D01*
X237425714Y-107017142D01*
X237454285Y-107074285D01*
X237454285Y-107217142D01*
X237425714Y-107274285D01*
X237397142Y-107302857D01*
X237340000Y-107331428D01*
X237197142Y-107331428D01*
X237140000Y-107302857D01*
X237111428Y-107274285D01*
X237625714Y-106731428D02*
X237825714Y-107331428D01*
X238025714Y-106731428D01*
X236797142Y-132131428D02*
X237168571Y-132131428D01*
X236968571Y-132360000D01*
X237054285Y-132360000D01*
X237111428Y-132388571D01*
X237140000Y-132417142D01*
X237168571Y-132474285D01*
X237168571Y-132617142D01*
X237140000Y-132674285D01*
X237111428Y-132702857D01*
X237054285Y-132731428D01*
X236882857Y-132731428D01*
X236825714Y-132702857D01*
X236797142Y-132674285D01*
X237340000Y-132131428D02*
X237540000Y-132731428D01*
X237740000Y-132131428D01*
X237882857Y-132131428D02*
X238254285Y-132131428D01*
X238054285Y-132360000D01*
X238140000Y-132360000D01*
X238197142Y-132388571D01*
X238225714Y-132417142D01*
X238254285Y-132474285D01*
X238254285Y-132617142D01*
X238225714Y-132674285D01*
X238197142Y-132702857D01*
X238140000Y-132731428D01*
X237968571Y-132731428D01*
X237911428Y-132702857D01*
X237882857Y-132674285D01*
X124285714Y-106671428D02*
X124485714Y-107271428D01*
X124685714Y-106671428D01*
X124800000Y-106671428D02*
X125142857Y-106671428D01*
X124971428Y-107271428D02*
X124971428Y-106671428D01*
X125657142Y-107271428D02*
X125314285Y-107271428D01*
X125485714Y-107271428D02*
X125485714Y-106671428D01*
X125428571Y-106757142D01*
X125371428Y-106814285D01*
X125314285Y-106842857D01*
X140228571Y-60921428D02*
X140628571Y-61521428D01*
X140628571Y-60921428D02*
X140228571Y-61521428D01*
X141171428Y-61521428D02*
X140828571Y-61521428D01*
X141000000Y-61521428D02*
X141000000Y-60921428D01*
X140942857Y-61007142D01*
X140885714Y-61064285D01*
X140828571Y-61092857D01*
X141742857Y-61521428D02*
X141400000Y-61521428D01*
X141571428Y-61521428D02*
X141571428Y-60921428D01*
X141514285Y-61007142D01*
X141457142Y-61064285D01*
X141400000Y-61092857D01*
X64214285Y-65171428D02*
X64414285Y-65771428D01*
X64614285Y-65171428D01*
X64814285Y-65771428D02*
X64814285Y-65171428D01*
X64957142Y-65171428D01*
X65042857Y-65200000D01*
X65100000Y-65257142D01*
X65128571Y-65314285D01*
X65157142Y-65428571D01*
X65157142Y-65514285D01*
X65128571Y-65628571D01*
X65100000Y-65685714D01*
X65042857Y-65742857D01*
X64957142Y-65771428D01*
X64814285Y-65771428D01*
X65385714Y-65228571D02*
X65414285Y-65200000D01*
X65471428Y-65171428D01*
X65614285Y-65171428D01*
X65671428Y-65200000D01*
X65700000Y-65228571D01*
X65728571Y-65285714D01*
X65728571Y-65342857D01*
X65700000Y-65428571D01*
X65357142Y-65771428D01*
X65728571Y-65771428D01*
X183478571Y-60921428D02*
X183878571Y-61521428D01*
X183878571Y-60921428D02*
X183478571Y-61521428D01*
X184421428Y-61521428D02*
X184078571Y-61521428D01*
X184250000Y-61521428D02*
X184250000Y-60921428D01*
X184192857Y-61007142D01*
X184135714Y-61064285D01*
X184078571Y-61092857D01*
X184621428Y-60921428D02*
X184992857Y-60921428D01*
X184792857Y-61150000D01*
X184878571Y-61150000D01*
X184935714Y-61178571D01*
X184964285Y-61207142D01*
X184992857Y-61264285D01*
X184992857Y-61407142D01*
X184964285Y-61464285D01*
X184935714Y-61492857D01*
X184878571Y-61521428D01*
X184707142Y-61521428D01*
X184650000Y-61492857D01*
X184621428Y-61464285D01*
X164728571Y-60921428D02*
X165128571Y-61521428D01*
X165128571Y-60921428D02*
X164728571Y-61521428D01*
X165671428Y-61521428D02*
X165328571Y-61521428D01*
X165500000Y-61521428D02*
X165500000Y-60921428D01*
X165442857Y-61007142D01*
X165385714Y-61064285D01*
X165328571Y-61092857D01*
X165900000Y-60978571D02*
X165928571Y-60950000D01*
X165985714Y-60921428D01*
X166128571Y-60921428D01*
X166185714Y-60950000D01*
X166214285Y-60978571D01*
X166242857Y-61035714D01*
X166242857Y-61092857D01*
X166214285Y-61178571D01*
X165871428Y-61521428D01*
X166242857Y-61521428D01*
X121478571Y-60921428D02*
X121878571Y-61521428D01*
X121878571Y-60921428D02*
X121478571Y-61521428D01*
X122421428Y-61521428D02*
X122078571Y-61521428D01*
X122250000Y-61521428D02*
X122250000Y-60921428D01*
X122192857Y-61007142D01*
X122135714Y-61064285D01*
X122078571Y-61092857D01*
X122792857Y-60921428D02*
X122850000Y-60921428D01*
X122907142Y-60950000D01*
X122935714Y-60978571D01*
X122964285Y-61035714D01*
X122992857Y-61150000D01*
X122992857Y-61292857D01*
X122964285Y-61407142D01*
X122935714Y-61464285D01*
X122907142Y-61492857D01*
X122850000Y-61521428D01*
X122792857Y-61521428D01*
X122735714Y-61492857D01*
X122707142Y-61464285D01*
X122678571Y-61407142D01*
X122650000Y-61292857D01*
X122650000Y-61150000D01*
X122678571Y-61035714D01*
X122707142Y-60978571D01*
X122735714Y-60950000D01*
X122792857Y-60921428D01*
X97264285Y-61171428D02*
X97664285Y-61771428D01*
X97664285Y-61171428D02*
X97264285Y-61771428D01*
X97921428Y-61771428D02*
X98035714Y-61771428D01*
X98092857Y-61742857D01*
X98121428Y-61714285D01*
X98178571Y-61628571D01*
X98207142Y-61514285D01*
X98207142Y-61285714D01*
X98178571Y-61228571D01*
X98150000Y-61200000D01*
X98092857Y-61171428D01*
X97978571Y-61171428D01*
X97921428Y-61200000D01*
X97892857Y-61228571D01*
X97864285Y-61285714D01*
X97864285Y-61428571D01*
X97892857Y-61485714D01*
X97921428Y-61514285D01*
X97978571Y-61542857D01*
X98092857Y-61542857D01*
X98150000Y-61514285D01*
X98178571Y-61485714D01*
X98207142Y-61428571D01*
X78514285Y-61171428D02*
X78914285Y-61771428D01*
X78914285Y-61171428D02*
X78514285Y-61771428D01*
X79228571Y-61428571D02*
X79171428Y-61400000D01*
X79142857Y-61371428D01*
X79114285Y-61314285D01*
X79114285Y-61285714D01*
X79142857Y-61228571D01*
X79171428Y-61200000D01*
X79228571Y-61171428D01*
X79342857Y-61171428D01*
X79400000Y-61200000D01*
X79428571Y-61228571D01*
X79457142Y-61285714D01*
X79457142Y-61314285D01*
X79428571Y-61371428D01*
X79400000Y-61400000D01*
X79342857Y-61428571D01*
X79228571Y-61428571D01*
X79171428Y-61457142D01*
X79142857Y-61485714D01*
X79114285Y-61542857D01*
X79114285Y-61657142D01*
X79142857Y-61714285D01*
X79171428Y-61742857D01*
X79228571Y-61771428D01*
X79342857Y-61771428D01*
X79400000Y-61742857D01*
X79428571Y-61714285D01*
X79457142Y-61657142D01*
X79457142Y-61542857D01*
X79428571Y-61485714D01*
X79400000Y-61457142D01*
X79342857Y-61428571D01*
X88735714Y-100207142D02*
X88535714Y-100207142D01*
X88535714Y-100521428D02*
X88535714Y-99921428D01*
X88821428Y-99921428D01*
X89050000Y-99921428D02*
X89050000Y-100407142D01*
X89078571Y-100464285D01*
X89107142Y-100492857D01*
X89164285Y-100521428D01*
X89278571Y-100521428D01*
X89335714Y-100492857D01*
X89364285Y-100464285D01*
X89392857Y-100407142D01*
X89392857Y-99921428D01*
X89992857Y-100521428D02*
X89650000Y-100521428D01*
X89821428Y-100521428D02*
X89821428Y-99921428D01*
X89764285Y-100007142D01*
X89707142Y-100064285D01*
X89650000Y-100092857D01*
X146964285Y-102671428D02*
X147164285Y-103271428D01*
X147364285Y-102671428D01*
X147564285Y-103271428D02*
X147564285Y-102671428D01*
X147707142Y-102671428D01*
X147792857Y-102700000D01*
X147850000Y-102757142D01*
X147878571Y-102814285D01*
X147907142Y-102928571D01*
X147907142Y-103014285D01*
X147878571Y-103128571D01*
X147850000Y-103185714D01*
X147792857Y-103242857D01*
X147707142Y-103271428D01*
X147564285Y-103271428D01*
X148478571Y-103271428D02*
X148135714Y-103271428D01*
X148307142Y-103271428D02*
X148307142Y-102671428D01*
X148250000Y-102757142D01*
X148192857Y-102814285D01*
X148135714Y-102842857D01*
X152171428Y-54321428D02*
X152771428Y-54121428D01*
X152171428Y-53921428D01*
X152771428Y-53721428D02*
X152171428Y-53721428D01*
X152171428Y-53578571D01*
X152200000Y-53492857D01*
X152257142Y-53435714D01*
X152314285Y-53407142D01*
X152428571Y-53378571D01*
X152514285Y-53378571D01*
X152628571Y-53407142D01*
X152685714Y-53435714D01*
X152742857Y-53492857D01*
X152771428Y-53578571D01*
X152771428Y-53721428D01*
X152771428Y-52807142D02*
X152771428Y-53150000D01*
X152771428Y-52978571D02*
X152171428Y-52978571D01*
X152257142Y-53035714D01*
X152314285Y-53092857D01*
X152342857Y-53150000D01*
X152171428Y-52292857D02*
X152171428Y-52407142D01*
X152200000Y-52464285D01*
X152228571Y-52492857D01*
X152314285Y-52550000D01*
X152428571Y-52578571D01*
X152657142Y-52578571D01*
X152714285Y-52550000D01*
X152742857Y-52521428D01*
X152771428Y-52464285D01*
X152771428Y-52350000D01*
X152742857Y-52292857D01*
X152714285Y-52264285D01*
X152657142Y-52235714D01*
X152514285Y-52235714D01*
X152457142Y-52264285D01*
X152428571Y-52292857D01*
X152400000Y-52350000D01*
X152400000Y-52464285D01*
X152428571Y-52521428D01*
X152457142Y-52550000D01*
X152514285Y-52578571D01*
X145671428Y-59821428D02*
X146271428Y-59621428D01*
X145671428Y-59421428D01*
X146271428Y-59221428D02*
X145671428Y-59221428D01*
X145671428Y-59078571D01*
X145700000Y-58992857D01*
X145757142Y-58935714D01*
X145814285Y-58907142D01*
X145928571Y-58878571D01*
X146014285Y-58878571D01*
X146128571Y-58907142D01*
X146185714Y-58935714D01*
X146242857Y-58992857D01*
X146271428Y-59078571D01*
X146271428Y-59221428D01*
X146271428Y-58307142D02*
X146271428Y-58650000D01*
X146271428Y-58478571D02*
X145671428Y-58478571D01*
X145757142Y-58535714D01*
X145814285Y-58592857D01*
X145842857Y-58650000D01*
X145871428Y-57792857D02*
X146271428Y-57792857D01*
X145642857Y-57935714D02*
X146071428Y-58078571D01*
X146071428Y-57707142D01*
X108671428Y-54321428D02*
X109271428Y-54121428D01*
X108671428Y-53921428D01*
X109271428Y-53721428D02*
X108671428Y-53721428D01*
X108671428Y-53578571D01*
X108700000Y-53492857D01*
X108757142Y-53435714D01*
X108814285Y-53407142D01*
X108928571Y-53378571D01*
X109014285Y-53378571D01*
X109128571Y-53407142D01*
X109185714Y-53435714D01*
X109242857Y-53492857D01*
X109271428Y-53578571D01*
X109271428Y-53721428D01*
X109271428Y-52807142D02*
X109271428Y-53150000D01*
X109271428Y-52978571D02*
X108671428Y-52978571D01*
X108757142Y-53035714D01*
X108814285Y-53092857D01*
X108842857Y-53150000D01*
X109271428Y-52235714D02*
X109271428Y-52578571D01*
X109271428Y-52407142D02*
X108671428Y-52407142D01*
X108757142Y-52464285D01*
X108814285Y-52521428D01*
X108842857Y-52578571D01*
X102421428Y-59535714D02*
X103021428Y-59335714D01*
X102421428Y-59135714D01*
X103021428Y-58935714D02*
X102421428Y-58935714D01*
X102421428Y-58792857D01*
X102450000Y-58707142D01*
X102507142Y-58650000D01*
X102564285Y-58621428D01*
X102678571Y-58592857D01*
X102764285Y-58592857D01*
X102878571Y-58621428D01*
X102935714Y-58650000D01*
X102992857Y-58707142D01*
X103021428Y-58792857D01*
X103021428Y-58935714D01*
X103021428Y-58307142D02*
X103021428Y-58192857D01*
X102992857Y-58135714D01*
X102964285Y-58107142D01*
X102878571Y-58050000D01*
X102764285Y-58021428D01*
X102535714Y-58021428D01*
X102478571Y-58050000D01*
X102450000Y-58078571D01*
X102421428Y-58135714D01*
X102421428Y-58250000D01*
X102450000Y-58307142D01*
X102478571Y-58335714D01*
X102535714Y-58364285D01*
X102678571Y-58364285D01*
X102735714Y-58335714D01*
X102764285Y-58307142D01*
X102792857Y-58250000D01*
X102792857Y-58135714D01*
X102764285Y-58078571D01*
X102735714Y-58050000D01*
X102678571Y-58021428D01*
X65671428Y-53785714D02*
X66271428Y-53585714D01*
X65671428Y-53385714D01*
X66271428Y-53185714D02*
X65671428Y-53185714D01*
X65671428Y-53042857D01*
X65700000Y-52957142D01*
X65757142Y-52900000D01*
X65814285Y-52871428D01*
X65928571Y-52842857D01*
X66014285Y-52842857D01*
X66128571Y-52871428D01*
X66185714Y-52900000D01*
X66242857Y-52957142D01*
X66271428Y-53042857D01*
X66271428Y-53185714D01*
X65671428Y-52328571D02*
X65671428Y-52442857D01*
X65700000Y-52500000D01*
X65728571Y-52528571D01*
X65814285Y-52585714D01*
X65928571Y-52614285D01*
X66157142Y-52614285D01*
X66214285Y-52585714D01*
X66242857Y-52557142D01*
X66271428Y-52500000D01*
X66271428Y-52385714D01*
X66242857Y-52328571D01*
X66214285Y-52300000D01*
X66157142Y-52271428D01*
X66014285Y-52271428D01*
X65957142Y-52300000D01*
X65928571Y-52328571D01*
X65900000Y-52385714D01*
X65900000Y-52500000D01*
X65928571Y-52557142D01*
X65957142Y-52585714D01*
X66014285Y-52614285D01*
X59421428Y-59785714D02*
X60021428Y-59585714D01*
X59421428Y-59385714D01*
X60021428Y-59185714D02*
X59421428Y-59185714D01*
X59421428Y-59042857D01*
X59450000Y-58957142D01*
X59507142Y-58900000D01*
X59564285Y-58871428D01*
X59678571Y-58842857D01*
X59764285Y-58842857D01*
X59878571Y-58871428D01*
X59935714Y-58900000D01*
X59992857Y-58957142D01*
X60021428Y-59042857D01*
X60021428Y-59185714D01*
X59621428Y-58328571D02*
X60021428Y-58328571D01*
X59392857Y-58471428D02*
X59821428Y-58614285D01*
X59821428Y-58242857D01*
X158021428Y-53635714D02*
X157735714Y-53835714D01*
X158021428Y-53978571D02*
X157421428Y-53978571D01*
X157421428Y-53750000D01*
X157450000Y-53692857D01*
X157478571Y-53664285D01*
X157535714Y-53635714D01*
X157621428Y-53635714D01*
X157678571Y-53664285D01*
X157707142Y-53692857D01*
X157735714Y-53750000D01*
X157735714Y-53978571D01*
X158021428Y-53064285D02*
X158021428Y-53407142D01*
X158021428Y-53235714D02*
X157421428Y-53235714D01*
X157507142Y-53292857D01*
X157564285Y-53350000D01*
X157592857Y-53407142D01*
X157678571Y-52721428D02*
X157650000Y-52778571D01*
X157621428Y-52807142D01*
X157564285Y-52835714D01*
X157535714Y-52835714D01*
X157478571Y-52807142D01*
X157450000Y-52778571D01*
X157421428Y-52721428D01*
X157421428Y-52607142D01*
X157450000Y-52550000D01*
X157478571Y-52521428D01*
X157535714Y-52492857D01*
X157564285Y-52492857D01*
X157621428Y-52521428D01*
X157650000Y-52550000D01*
X157678571Y-52607142D01*
X157678571Y-52721428D01*
X157707142Y-52778571D01*
X157735714Y-52807142D01*
X157792857Y-52835714D01*
X157907142Y-52835714D01*
X157964285Y-52807142D01*
X157992857Y-52778571D01*
X158021428Y-52721428D01*
X158021428Y-52607142D01*
X157992857Y-52550000D01*
X157964285Y-52521428D01*
X157907142Y-52492857D01*
X157792857Y-52492857D01*
X157735714Y-52521428D01*
X157707142Y-52550000D01*
X157678571Y-52607142D01*
X114771428Y-53635714D02*
X114485714Y-53835714D01*
X114771428Y-53978571D02*
X114171428Y-53978571D01*
X114171428Y-53750000D01*
X114200000Y-53692857D01*
X114228571Y-53664285D01*
X114285714Y-53635714D01*
X114371428Y-53635714D01*
X114428571Y-53664285D01*
X114457142Y-53692857D01*
X114485714Y-53750000D01*
X114485714Y-53978571D01*
X114771428Y-53064285D02*
X114771428Y-53407142D01*
X114771428Y-53235714D02*
X114171428Y-53235714D01*
X114257142Y-53292857D01*
X114314285Y-53350000D01*
X114342857Y-53407142D01*
X114171428Y-52521428D02*
X114171428Y-52807142D01*
X114457142Y-52835714D01*
X114428571Y-52807142D01*
X114400000Y-52750000D01*
X114400000Y-52607142D01*
X114428571Y-52550000D01*
X114457142Y-52521428D01*
X114514285Y-52492857D01*
X114657142Y-52492857D01*
X114714285Y-52521428D01*
X114742857Y-52550000D01*
X114771428Y-52607142D01*
X114771428Y-52750000D01*
X114742857Y-52807142D01*
X114714285Y-52835714D01*
X71771428Y-53385714D02*
X71485714Y-53585714D01*
X71771428Y-53728571D02*
X71171428Y-53728571D01*
X71171428Y-53500000D01*
X71200000Y-53442857D01*
X71228571Y-53414285D01*
X71285714Y-53385714D01*
X71371428Y-53385714D01*
X71428571Y-53414285D01*
X71457142Y-53442857D01*
X71485714Y-53500000D01*
X71485714Y-53728571D01*
X71771428Y-52814285D02*
X71771428Y-53157142D01*
X71771428Y-52985714D02*
X71171428Y-52985714D01*
X71257142Y-53042857D01*
X71314285Y-53100000D01*
X71342857Y-53157142D01*
X71228571Y-52585714D02*
X71200000Y-52557142D01*
X71171428Y-52500000D01*
X71171428Y-52357142D01*
X71200000Y-52300000D01*
X71228571Y-52271428D01*
X71285714Y-52242857D01*
X71342857Y-52242857D01*
X71428571Y-52271428D01*
X71771428Y-52614285D01*
X71771428Y-52242857D01*
X147400000Y-109771428D02*
X147200000Y-109485714D01*
X147057142Y-109771428D02*
X147057142Y-109171428D01*
X147285714Y-109171428D01*
X147342857Y-109200000D01*
X147371428Y-109228571D01*
X147400000Y-109285714D01*
X147400000Y-109371428D01*
X147371428Y-109428571D01*
X147342857Y-109457142D01*
X147285714Y-109485714D01*
X147057142Y-109485714D01*
X147600000Y-109171428D02*
X148000000Y-109171428D01*
X147742857Y-109771428D01*
X187950000Y-106628571D02*
X187921428Y-106685714D01*
X187921428Y-106771428D01*
X187950000Y-106857142D01*
X188007142Y-106914285D01*
X188064285Y-106942857D01*
X188178571Y-106971428D01*
X188264285Y-106971428D01*
X188378571Y-106942857D01*
X188435714Y-106914285D01*
X188492857Y-106857142D01*
X188521428Y-106771428D01*
X188521428Y-106714285D01*
X188492857Y-106628571D01*
X188464285Y-106600000D01*
X188264285Y-106600000D01*
X188264285Y-106714285D01*
X188521428Y-106028571D02*
X188521428Y-106371428D01*
X188521428Y-106200000D02*
X187921428Y-106200000D01*
X188007142Y-106257142D01*
X188064285Y-106314285D01*
X188092857Y-106371428D01*
X60750000Y-139671428D02*
X61150000Y-140271428D01*
X61150000Y-139671428D02*
X60750000Y-140271428D01*
X61292857Y-139671428D02*
X61635714Y-139671428D01*
X61464285Y-140271428D02*
X61464285Y-139671428D01*
X62150000Y-140271428D02*
X61807142Y-140271428D01*
X61978571Y-140271428D02*
X61978571Y-139671428D01*
X61921428Y-139757142D01*
X61864285Y-139814285D01*
X61807142Y-139842857D01*
X62664285Y-139671428D02*
X62550000Y-139671428D01*
X62492857Y-139700000D01*
X62464285Y-139728571D01*
X62407142Y-139814285D01*
X62378571Y-139928571D01*
X62378571Y-140157142D01*
X62407142Y-140214285D01*
X62435714Y-140242857D01*
X62492857Y-140271428D01*
X62607142Y-140271428D01*
X62664285Y-140242857D01*
X62692857Y-140214285D01*
X62721428Y-140157142D01*
X62721428Y-140014285D01*
X62692857Y-139957142D01*
X62664285Y-139928571D01*
X62607142Y-139900000D01*
X62492857Y-139900000D01*
X62435714Y-139928571D01*
X62407142Y-139957142D01*
X62378571Y-140014285D01*
X74000000Y-139921428D02*
X74400000Y-140521428D01*
X74400000Y-139921428D02*
X74000000Y-140521428D01*
X74542857Y-139921428D02*
X74885714Y-139921428D01*
X74714285Y-140521428D02*
X74714285Y-139921428D01*
X75400000Y-140521428D02*
X75057142Y-140521428D01*
X75228571Y-140521428D02*
X75228571Y-139921428D01*
X75171428Y-140007142D01*
X75114285Y-140064285D01*
X75057142Y-140092857D01*
X75942857Y-139921428D02*
X75657142Y-139921428D01*
X75628571Y-140207142D01*
X75657142Y-140178571D01*
X75714285Y-140150000D01*
X75857142Y-140150000D01*
X75914285Y-140178571D01*
X75942857Y-140207142D01*
X75971428Y-140264285D01*
X75971428Y-140407142D01*
X75942857Y-140464285D01*
X75914285Y-140492857D01*
X75857142Y-140521428D01*
X75714285Y-140521428D01*
X75657142Y-140492857D01*
X75628571Y-140464285D01*
X163500000Y-65671428D02*
X163700000Y-66271428D01*
X163900000Y-65671428D01*
X164014285Y-65671428D02*
X164357142Y-65671428D01*
X164185714Y-66271428D02*
X164185714Y-65671428D01*
X164871428Y-66271428D02*
X164528571Y-66271428D01*
X164700000Y-66271428D02*
X164700000Y-65671428D01*
X164642857Y-65757142D01*
X164585714Y-65814285D01*
X164528571Y-65842857D01*
X165385714Y-65871428D02*
X165385714Y-66271428D01*
X165242857Y-65642857D02*
X165100000Y-66071428D01*
X165471428Y-66071428D01*
X163500000Y-80171428D02*
X163700000Y-80771428D01*
X163900000Y-80171428D01*
X164014285Y-80171428D02*
X164357142Y-80171428D01*
X164185714Y-80771428D02*
X164185714Y-80171428D01*
X164871428Y-80771428D02*
X164528571Y-80771428D01*
X164700000Y-80771428D02*
X164700000Y-80171428D01*
X164642857Y-80257142D01*
X164585714Y-80314285D01*
X164528571Y-80342857D01*
X165071428Y-80171428D02*
X165442857Y-80171428D01*
X165242857Y-80400000D01*
X165328571Y-80400000D01*
X165385714Y-80428571D01*
X165414285Y-80457142D01*
X165442857Y-80514285D01*
X165442857Y-80657142D01*
X165414285Y-80714285D01*
X165385714Y-80742857D01*
X165328571Y-80771428D01*
X165157142Y-80771428D01*
X165100000Y-80742857D01*
X165071428Y-80714285D01*
X185250000Y-65421428D02*
X185450000Y-66021428D01*
X185650000Y-65421428D01*
X185764285Y-65421428D02*
X186107142Y-65421428D01*
X185935714Y-66021428D02*
X185935714Y-65421428D01*
X186621428Y-66021428D02*
X186278571Y-66021428D01*
X186450000Y-66021428D02*
X186450000Y-65421428D01*
X186392857Y-65507142D01*
X186335714Y-65564285D01*
X186278571Y-65592857D01*
X186850000Y-65478571D02*
X186878571Y-65450000D01*
X186935714Y-65421428D01*
X187078571Y-65421428D01*
X187135714Y-65450000D01*
X187164285Y-65478571D01*
X187192857Y-65535714D01*
X187192857Y-65592857D01*
X187164285Y-65678571D01*
X186821428Y-66021428D01*
X187192857Y-66021428D01*
X185250000Y-80171428D02*
X185450000Y-80771428D01*
X185650000Y-80171428D01*
X185764285Y-80171428D02*
X186107142Y-80171428D01*
X185935714Y-80771428D02*
X185935714Y-80171428D01*
X186621428Y-80771428D02*
X186278571Y-80771428D01*
X186450000Y-80771428D02*
X186450000Y-80171428D01*
X186392857Y-80257142D01*
X186335714Y-80314285D01*
X186278571Y-80342857D01*
X187192857Y-80771428D02*
X186850000Y-80771428D01*
X187021428Y-80771428D02*
X187021428Y-80171428D01*
X186964285Y-80257142D01*
X186907142Y-80314285D01*
X186850000Y-80342857D01*
X120250000Y-65671428D02*
X120450000Y-66271428D01*
X120650000Y-65671428D01*
X120764285Y-65671428D02*
X121107142Y-65671428D01*
X120935714Y-66271428D02*
X120935714Y-65671428D01*
X121621428Y-66271428D02*
X121278571Y-66271428D01*
X121450000Y-66271428D02*
X121450000Y-65671428D01*
X121392857Y-65757142D01*
X121335714Y-65814285D01*
X121278571Y-65842857D01*
X121992857Y-65671428D02*
X122050000Y-65671428D01*
X122107142Y-65700000D01*
X122135714Y-65728571D01*
X122164285Y-65785714D01*
X122192857Y-65900000D01*
X122192857Y-66042857D01*
X122164285Y-66157142D01*
X122135714Y-66214285D01*
X122107142Y-66242857D01*
X122050000Y-66271428D01*
X121992857Y-66271428D01*
X121935714Y-66242857D01*
X121907142Y-66214285D01*
X121878571Y-66157142D01*
X121850000Y-66042857D01*
X121850000Y-65900000D01*
X121878571Y-65785714D01*
X121907142Y-65728571D01*
X121935714Y-65700000D01*
X121992857Y-65671428D01*
X120535714Y-79921428D02*
X120735714Y-80521428D01*
X120935714Y-79921428D01*
X121050000Y-79921428D02*
X121392857Y-79921428D01*
X121221428Y-80521428D02*
X121221428Y-79921428D01*
X121621428Y-80521428D02*
X121735714Y-80521428D01*
X121792857Y-80492857D01*
X121821428Y-80464285D01*
X121878571Y-80378571D01*
X121907142Y-80264285D01*
X121907142Y-80035714D01*
X121878571Y-79978571D01*
X121850000Y-79950000D01*
X121792857Y-79921428D01*
X121678571Y-79921428D01*
X121621428Y-79950000D01*
X121592857Y-79978571D01*
X121564285Y-80035714D01*
X121564285Y-80178571D01*
X121592857Y-80235714D01*
X121621428Y-80264285D01*
X121678571Y-80292857D01*
X121792857Y-80292857D01*
X121850000Y-80264285D01*
X121878571Y-80235714D01*
X121907142Y-80178571D01*
X142285714Y-65421428D02*
X142485714Y-66021428D01*
X142685714Y-65421428D01*
X142800000Y-65421428D02*
X143142857Y-65421428D01*
X142971428Y-66021428D02*
X142971428Y-65421428D01*
X143428571Y-65678571D02*
X143371428Y-65650000D01*
X143342857Y-65621428D01*
X143314285Y-65564285D01*
X143314285Y-65535714D01*
X143342857Y-65478571D01*
X143371428Y-65450000D01*
X143428571Y-65421428D01*
X143542857Y-65421428D01*
X143600000Y-65450000D01*
X143628571Y-65478571D01*
X143657142Y-65535714D01*
X143657142Y-65564285D01*
X143628571Y-65621428D01*
X143600000Y-65650000D01*
X143542857Y-65678571D01*
X143428571Y-65678571D01*
X143371428Y-65707142D01*
X143342857Y-65735714D01*
X143314285Y-65792857D01*
X143314285Y-65907142D01*
X143342857Y-65964285D01*
X143371428Y-65992857D01*
X143428571Y-66021428D01*
X143542857Y-66021428D01*
X143600000Y-65992857D01*
X143628571Y-65964285D01*
X143657142Y-65907142D01*
X143657142Y-65792857D01*
X143628571Y-65735714D01*
X143600000Y-65707142D01*
X143542857Y-65678571D01*
X142285714Y-80171428D02*
X142485714Y-80771428D01*
X142685714Y-80171428D01*
X142800000Y-80171428D02*
X143142857Y-80171428D01*
X142971428Y-80771428D02*
X142971428Y-80171428D01*
X143285714Y-80171428D02*
X143685714Y-80171428D01*
X143428571Y-80771428D01*
X195800000Y-52021428D02*
X195800000Y-51421428D01*
X195942857Y-51421428D01*
X196028571Y-51450000D01*
X196085714Y-51507142D01*
X196114285Y-51564285D01*
X196142857Y-51678571D01*
X196142857Y-51764285D01*
X196114285Y-51878571D01*
X196085714Y-51935714D01*
X196028571Y-51992857D01*
X195942857Y-52021428D01*
X195800000Y-52021428D01*
X196371428Y-51850000D02*
X196657142Y-51850000D01*
X196314285Y-52021428D02*
X196514285Y-51421428D01*
X196714285Y-52021428D01*
X196857142Y-51421428D02*
X197228571Y-51421428D01*
X197028571Y-51650000D01*
X197114285Y-51650000D01*
X197171428Y-51678571D01*
X197200000Y-51707142D01*
X197228571Y-51764285D01*
X197228571Y-51907142D01*
X197200000Y-51964285D01*
X197171428Y-51992857D01*
X197114285Y-52021428D01*
X196942857Y-52021428D01*
X196885714Y-51992857D01*
X196857142Y-51964285D01*
X209550000Y-52021428D02*
X209550000Y-51421428D01*
X209692857Y-51421428D01*
X209778571Y-51450000D01*
X209835714Y-51507142D01*
X209864285Y-51564285D01*
X209892857Y-51678571D01*
X209892857Y-51764285D01*
X209864285Y-51878571D01*
X209835714Y-51935714D01*
X209778571Y-51992857D01*
X209692857Y-52021428D01*
X209550000Y-52021428D01*
X210121428Y-51850000D02*
X210407142Y-51850000D01*
X210064285Y-52021428D02*
X210264285Y-51421428D01*
X210464285Y-52021428D01*
X210635714Y-51478571D02*
X210664285Y-51450000D01*
X210721428Y-51421428D01*
X210864285Y-51421428D01*
X210921428Y-51450000D01*
X210950000Y-51478571D01*
X210978571Y-51535714D01*
X210978571Y-51592857D01*
X210950000Y-51678571D01*
X210607142Y-52021428D01*
X210978571Y-52021428D01*
X223300000Y-52021428D02*
X223300000Y-51421428D01*
X223442857Y-51421428D01*
X223528571Y-51450000D01*
X223585714Y-51507142D01*
X223614285Y-51564285D01*
X223642857Y-51678571D01*
X223642857Y-51764285D01*
X223614285Y-51878571D01*
X223585714Y-51935714D01*
X223528571Y-51992857D01*
X223442857Y-52021428D01*
X223300000Y-52021428D01*
X223871428Y-51850000D02*
X224157142Y-51850000D01*
X223814285Y-52021428D02*
X224014285Y-51421428D01*
X224214285Y-52021428D01*
X224728571Y-52021428D02*
X224385714Y-52021428D01*
X224557142Y-52021428D02*
X224557142Y-51421428D01*
X224500000Y-51507142D01*
X224442857Y-51564285D01*
X224385714Y-51592857D01*
X175250000Y-59421428D02*
X175650000Y-60021428D01*
X175650000Y-59421428D02*
X175250000Y-60021428D01*
X175792857Y-59421428D02*
X176135714Y-59421428D01*
X175964285Y-60021428D02*
X175964285Y-59421428D01*
X176650000Y-60021428D02*
X176307142Y-60021428D01*
X176478571Y-60021428D02*
X176478571Y-59421428D01*
X176421428Y-59507142D01*
X176364285Y-59564285D01*
X176307142Y-59592857D01*
X177164285Y-59621428D02*
X177164285Y-60021428D01*
X177021428Y-59392857D02*
X176878571Y-59821428D01*
X177250000Y-59821428D01*
X164750000Y-59421428D02*
X165150000Y-60021428D01*
X165150000Y-59421428D02*
X164750000Y-60021428D01*
X165292857Y-59421428D02*
X165635714Y-59421428D01*
X165464285Y-60021428D02*
X165464285Y-59421428D01*
X166150000Y-60021428D02*
X165807142Y-60021428D01*
X165978571Y-60021428D02*
X165978571Y-59421428D01*
X165921428Y-59507142D01*
X165864285Y-59564285D01*
X165807142Y-59592857D01*
X166350000Y-59421428D02*
X166721428Y-59421428D01*
X166521428Y-59650000D01*
X166607142Y-59650000D01*
X166664285Y-59678571D01*
X166692857Y-59707142D01*
X166721428Y-59764285D01*
X166721428Y-59907142D01*
X166692857Y-59964285D01*
X166664285Y-59992857D01*
X166607142Y-60021428D01*
X166435714Y-60021428D01*
X166378571Y-59992857D01*
X166350000Y-59964285D01*
X132000000Y-59421428D02*
X132400000Y-60021428D01*
X132400000Y-59421428D02*
X132000000Y-60021428D01*
X132542857Y-59421428D02*
X132885714Y-59421428D01*
X132714285Y-60021428D02*
X132714285Y-59421428D01*
X133400000Y-60021428D02*
X133057142Y-60021428D01*
X133228571Y-60021428D02*
X133228571Y-59421428D01*
X133171428Y-59507142D01*
X133114285Y-59564285D01*
X133057142Y-59592857D01*
X133628571Y-59478571D02*
X133657142Y-59450000D01*
X133714285Y-59421428D01*
X133857142Y-59421428D01*
X133914285Y-59450000D01*
X133942857Y-59478571D01*
X133971428Y-59535714D01*
X133971428Y-59592857D01*
X133942857Y-59678571D01*
X133600000Y-60021428D01*
X133971428Y-60021428D01*
X121500000Y-59421428D02*
X121900000Y-60021428D01*
X121900000Y-59421428D02*
X121500000Y-60021428D01*
X122042857Y-59421428D02*
X122385714Y-59421428D01*
X122214285Y-60021428D02*
X122214285Y-59421428D01*
X122900000Y-60021428D02*
X122557142Y-60021428D01*
X122728571Y-60021428D02*
X122728571Y-59421428D01*
X122671428Y-59507142D01*
X122614285Y-59564285D01*
X122557142Y-59592857D01*
X123471428Y-60021428D02*
X123128571Y-60021428D01*
X123300000Y-60021428D02*
X123300000Y-59421428D01*
X123242857Y-59507142D01*
X123185714Y-59564285D01*
X123128571Y-59592857D01*
X78285714Y-59421428D02*
X78685714Y-60021428D01*
X78685714Y-59421428D02*
X78285714Y-60021428D01*
X78828571Y-59421428D02*
X79171428Y-59421428D01*
X79000000Y-60021428D02*
X79000000Y-59421428D01*
X79400000Y-60021428D02*
X79514285Y-60021428D01*
X79571428Y-59992857D01*
X79600000Y-59964285D01*
X79657142Y-59878571D01*
X79685714Y-59764285D01*
X79685714Y-59535714D01*
X79657142Y-59478571D01*
X79628571Y-59450000D01*
X79571428Y-59421428D01*
X79457142Y-59421428D01*
X79400000Y-59450000D01*
X79371428Y-59478571D01*
X79342857Y-59535714D01*
X79342857Y-59678571D01*
X79371428Y-59735714D01*
X79400000Y-59764285D01*
X79457142Y-59792857D01*
X79571428Y-59792857D01*
X79628571Y-59764285D01*
X79657142Y-59735714D01*
X79685714Y-59678571D01*
X88750000Y-59421428D02*
X89150000Y-60021428D01*
X89150000Y-59421428D02*
X88750000Y-60021428D01*
X89292857Y-59421428D02*
X89635714Y-59421428D01*
X89464285Y-60021428D02*
X89464285Y-59421428D01*
X90150000Y-60021428D02*
X89807142Y-60021428D01*
X89978571Y-60021428D02*
X89978571Y-59421428D01*
X89921428Y-59507142D01*
X89864285Y-59564285D01*
X89807142Y-59592857D01*
X90521428Y-59421428D02*
X90578571Y-59421428D01*
X90635714Y-59450000D01*
X90664285Y-59478571D01*
X90692857Y-59535714D01*
X90721428Y-59650000D01*
X90721428Y-59792857D01*
X90692857Y-59907142D01*
X90664285Y-59964285D01*
X90635714Y-59992857D01*
X90578571Y-60021428D01*
X90521428Y-60021428D01*
X90464285Y-59992857D01*
X90435714Y-59964285D01*
X90407142Y-59907142D01*
X90378571Y-59792857D01*
X90378571Y-59650000D01*
X90407142Y-59535714D01*
X90435714Y-59478571D01*
X90464285Y-59450000D01*
X90521428Y-59421428D01*
X77285714Y-65671428D02*
X77485714Y-66271428D01*
X77685714Y-65671428D01*
X77800000Y-65671428D02*
X78142857Y-65671428D01*
X77971428Y-66271428D02*
X77971428Y-65671428D01*
X78600000Y-65671428D02*
X78485714Y-65671428D01*
X78428571Y-65700000D01*
X78400000Y-65728571D01*
X78342857Y-65814285D01*
X78314285Y-65928571D01*
X78314285Y-66157142D01*
X78342857Y-66214285D01*
X78371428Y-66242857D01*
X78428571Y-66271428D01*
X78542857Y-66271428D01*
X78600000Y-66242857D01*
X78628571Y-66214285D01*
X78657142Y-66157142D01*
X78657142Y-66014285D01*
X78628571Y-65957142D01*
X78600000Y-65928571D01*
X78542857Y-65900000D01*
X78428571Y-65900000D01*
X78371428Y-65928571D01*
X78342857Y-65957142D01*
X78314285Y-66014285D01*
X77285714Y-79921428D02*
X77485714Y-80521428D01*
X77685714Y-79921428D01*
X77800000Y-79921428D02*
X78142857Y-79921428D01*
X77971428Y-80521428D02*
X77971428Y-79921428D01*
X78628571Y-79921428D02*
X78342857Y-79921428D01*
X78314285Y-80207142D01*
X78342857Y-80178571D01*
X78400000Y-80150000D01*
X78542857Y-80150000D01*
X78600000Y-80178571D01*
X78628571Y-80207142D01*
X78657142Y-80264285D01*
X78657142Y-80407142D01*
X78628571Y-80464285D01*
X78600000Y-80492857D01*
X78542857Y-80521428D01*
X78400000Y-80521428D01*
X78342857Y-80492857D01*
X78314285Y-80464285D01*
X99035714Y-65421428D02*
X99235714Y-66021428D01*
X99435714Y-65421428D01*
X99550000Y-65421428D02*
X99892857Y-65421428D01*
X99721428Y-66021428D02*
X99721428Y-65421428D01*
X100350000Y-65621428D02*
X100350000Y-66021428D01*
X100207142Y-65392857D02*
X100064285Y-65821428D01*
X100435714Y-65821428D01*
X99035714Y-80171428D02*
X99235714Y-80771428D01*
X99435714Y-80171428D01*
X99550000Y-80171428D02*
X99892857Y-80171428D01*
X99721428Y-80771428D02*
X99721428Y-80171428D01*
X100035714Y-80171428D02*
X100407142Y-80171428D01*
X100207142Y-80400000D01*
X100292857Y-80400000D01*
X100350000Y-80428571D01*
X100378571Y-80457142D01*
X100407142Y-80514285D01*
X100407142Y-80657142D01*
X100378571Y-80714285D01*
X100350000Y-80742857D01*
X100292857Y-80771428D01*
X100121428Y-80771428D01*
X100064285Y-80742857D01*
X100035714Y-80714285D01*
X59785714Y-113171428D02*
X60185714Y-113771428D01*
X60185714Y-113171428D02*
X59785714Y-113771428D01*
X60328571Y-113171428D02*
X60671428Y-113171428D01*
X60500000Y-113771428D02*
X60500000Y-113171428D01*
X60842857Y-113228571D02*
X60871428Y-113200000D01*
X60928571Y-113171428D01*
X61071428Y-113171428D01*
X61128571Y-113200000D01*
X61157142Y-113228571D01*
X61185714Y-113285714D01*
X61185714Y-113342857D01*
X61157142Y-113428571D01*
X60814285Y-113771428D01*
X61185714Y-113771428D01*
X59785714Y-98921428D02*
X60185714Y-99521428D01*
X60185714Y-98921428D02*
X59785714Y-99521428D01*
X60328571Y-98921428D02*
X60671428Y-98921428D01*
X60500000Y-99521428D02*
X60500000Y-98921428D01*
X61185714Y-99521428D02*
X60842857Y-99521428D01*
X61014285Y-99521428D02*
X61014285Y-98921428D01*
X60957142Y-99007142D01*
X60900000Y-99064285D01*
X60842857Y-99092857D01*
X94535714Y-139921428D02*
X94935714Y-140521428D01*
X94935714Y-139921428D02*
X94535714Y-140521428D01*
X95078571Y-139921428D02*
X95421428Y-139921428D01*
X95250000Y-140521428D02*
X95250000Y-139921428D01*
X95564285Y-139921428D02*
X95935714Y-139921428D01*
X95735714Y-140150000D01*
X95821428Y-140150000D01*
X95878571Y-140178571D01*
X95907142Y-140207142D01*
X95935714Y-140264285D01*
X95935714Y-140407142D01*
X95907142Y-140464285D01*
X95878571Y-140492857D01*
X95821428Y-140521428D01*
X95650000Y-140521428D01*
X95592857Y-140492857D01*
X95564285Y-140464285D01*
X212150000Y-88021428D02*
X211864285Y-88021428D01*
X211864285Y-87421428D01*
X212664285Y-88021428D02*
X212321428Y-88021428D01*
X212492857Y-88021428D02*
X212492857Y-87421428D01*
X212435714Y-87507142D01*
X212378571Y-87564285D01*
X212321428Y-87592857D01*
M02*
